<svg width="73" height="73" viewBox="0 0 73 73" fill="none" xmlns="http://www.w3.org/2000/svg">
<path d="M15.9297 52C14.8639 52 14 51.1263 14 50.0485V46.4578C14 45.38 14.8639 44.5063 15.9297 44.5063C16.9954 44.5063 17.8593 45.38 17.8593 46.4578V50.0485C17.8593 51.1263 16.9954 52 15.9297 52ZM40.3978 50.0485V46.4578C40.3978 45.38 39.5339 44.5063 38.4682 44.5063C37.4024 44.5063 36.5385 45.38 36.5385 46.4578V50.0485C36.5385 51.1263 37.4024 52 38.4682 52C39.5339 52 40.3978 51.1263 40.3978 50.0485ZM43 28.1918C43 27.5336 42.4723 27 41.8215 27H39.5845C38.9337 27 38.406 27.5336 38.406 28.1918C38.406 28.85 38.9337 29.3837 39.5845 29.3837H41.8215C42.4723 29.3837 43 28.85 43 28.1918Z" fill="#0D6388"/>
<path d="M36.2377 5C32.5089 5 29.4753 7.94274 29.4753 11.56C29.4753 11.5914 29.4776 11.6224 29.4802 11.6532C27.0653 12.0385 25.0586 13.5973 24.1032 15.7069C23.7568 16.4719 24.3239 17.3314 25.1852 17.3314H36.1108C36.9721 17.3314 37.5391 16.4719 37.1928 15.707C36.2375 13.5973 34.2308 12.0384 31.8159 11.6532C31.8184 11.6223 31.8207 11.5914 31.8207 11.56C31.8207 9.19736 33.8022 7.27519 36.2377 7.27519C38.6731 7.27519 40.6546 9.19736 40.6546 11.56V32.8624C40.6546 33.4906 41.1796 34 41.8273 34C42.475 34 43 33.4907 43 32.8624V11.56C43 7.94284 39.9664 5 36.2377 5V5Z" fill="#019CDE" fill-opacity="0.4"/>
<path d="M45.558 33H2C2 42.9411 9.81233 51 19.4493 51H38.5812C42.1684 51 45.2035 48.2647 45.685 44.5978L46.9867 34.6871C47.1039 33.7943 46.4312 33 45.558 33V33Z" fill="#019CDE"/>
<path d="M46.4441 36C46.425 36 46.4058 35.9996 46.3865 35.9988L1.50036 34.2779C0.641031 34.245 -0.0302434 33.4848 0.00105122 32.5798C0.0323458 31.675 0.754391 30.9667 1.61362 31.0012L46.4997 32.7221C47.3591 32.755 48.0302 33.5152 47.9989 34.4202C47.9685 35.3047 47.2778 36 46.4441 36Z" fill="#0D6388"/>
</svg>
