<svg width="47" height="47" viewBox="0 0 47 47" fill="none" xmlns="http://www.w3.org/2000/svg">
<path d="M13.8334 28.043C13.8334 26.7577 14.8709 25.7061 16.1389 25.7061C17.407 25.7061 18.4445 26.7577 18.4445 28.043C18.4445 29.3283 17.407 30.3799 16.1389 30.3799C14.8709 30.3799 13.8334 29.3283 13.8334 28.043ZM23.0556 30.3799C24.3237 30.3799 25.3612 29.3283 25.3612 28.043C25.3612 26.7577 24.3237 25.7061 23.0556 25.7061C21.7876 25.7061 20.7501 26.7577 20.7501 28.043C20.7501 29.3283 21.7876 30.3799 23.0556 30.3799ZM29.9723 30.3799C31.2404 30.3799 32.2779 29.3283 32.2779 28.043C32.2779 26.7577 31.2404 25.7061 29.9723 25.7061C28.7043 25.7061 27.6668 26.7577 27.6668 28.043C27.6668 29.3283 28.7043 30.3799 29.9723 30.3799ZM23.0556 12.853C18.9978 12.853 15.6317 15.9144 15.0784 19.8638H31.0559C30.7693 17.9188 29.8048 16.1423 28.3371 14.8562C26.8694 13.57 24.9958 12.8594 23.0556 12.853ZM23.0556 9.34766C29.419 9.34766 34.5835 14.5823 34.5835 21.0322V23.3691H11.5278V21.0322C11.5278 14.5823 16.6923 9.34766 23.0556 9.34766ZM16.1389 37.3906C17.407 37.3906 18.4445 36.339 18.4445 35.0537C18.4445 33.7684 17.407 32.7168 16.1389 32.7168C14.8709 32.7168 13.8334 33.7684 13.8334 35.0537C13.8334 36.339 14.8709 37.3906 16.1389 37.3906ZM23.0556 37.3906C24.3237 37.3906 25.3612 36.339 25.3612 35.0537C25.3612 33.7684 24.3237 32.7168 23.0556 32.7168C21.7876 32.7168 20.7501 33.7684 20.7501 35.0537C20.7501 36.339 21.7876 37.3906 23.0556 37.3906ZM29.9723 37.3906C31.2404 37.3906 32.2779 36.339 32.2779 35.0537C32.2779 33.7684 31.2404 32.7168 29.9723 32.7168C28.7043 32.7168 27.6668 33.7684 27.6668 35.0537C27.6668 36.339 28.7043 37.3906 29.9723 37.3906ZM41.5001 4.67383H4.61113V42.0645H41.5001V4.67383ZM41.5001 0C44.0363 0 46.1113 2.10322 46.1113 4.67383V42.0645C46.1113 44.6351 44.0363 46.7383 41.5001 46.7383H4.61113C2.07501 46.7383 0 44.6351 0 42.0645V4.67383C0 2.10322 2.07501 0 4.61113 0H41.5001Z" fill="#019CDE"/>
</svg>
