<svg width="42" height="47" viewBox="0 0 42 47" fill="none" xmlns="http://www.w3.org/2000/svg">
<path d="M16.139 18.6951V23.3689H11.5278V18.6951H16.139ZM29.9724 23.3689V18.6951H25.3613V23.3689H29.9724ZM41.5002 28.0427V46.7378H0V28.0427H2.30557V18.6951C2.30557 8.36607 10.5595 0 20.7501 0C30.9407 0 39.1947 8.36607 39.1947 18.6951V28.0427H41.5002ZM9.22228 32.7165H4.61114V42.064H9.22228V32.7165ZM18.4446 32.7165H13.8334V42.064H18.4446V32.7165ZM18.4446 4.86073C11.8967 5.98244 6.91671 11.7546 6.91671 18.6951V28.0427H18.4446V4.86073ZM23.0557 28.0427H34.5835V18.6951C34.5835 11.7546 29.6035 5.98244 23.0557 4.86073V28.0427ZM27.6668 32.7165H23.0557V42.064H27.6668V32.7165ZM36.8891 32.7165H32.278V42.064H36.8891V32.7165Z" fill="#019CDE"/>
</svg>
