<svg width="47" height="47" viewBox="0 0 47 47" fill="none" xmlns="http://www.w3.org/2000/svg">
<path d="M9.881 13.1311L5.20399 8.41283L8.30004 5.27471L12.9551 10.0153L9.881 13.1311ZM25.2514 0V6.67685H20.8599V0H25.2514ZM40.9073 8.41283L36.2303 13.1311L33.1562 10.0153L37.8113 5.27471L40.9073 8.41283ZM6.58733 21.1433V25.5946H0V21.1433H6.58733ZM39.524 21.1433H46.1113V25.5946H39.524V21.1433ZM9.881 42.2867H36.2303C37.395 42.2867 38.5121 42.7557 39.3356 43.5904C40.1592 44.4252 40.6219 45.5574 40.6219 46.7379H5.48944C5.48944 45.5574 5.95212 44.4252 6.7757 43.5904C7.59928 42.7557 8.71629 42.2867 9.881 42.2867ZM23.0557 8.90246C26.5498 8.90246 29.9008 10.3094 32.3716 12.8137C34.8423 15.318 36.2303 18.7145 36.2303 22.2562V40.0611H9.881V22.2562C9.881 18.7145 11.269 15.318 13.7398 12.8137C16.2105 10.3094 19.5615 8.90246 23.0557 8.90246ZM23.0557 13.3537C20.7262 13.3537 18.4922 14.2916 16.8451 15.9612C15.1979 17.6307 14.2726 19.8951 14.2726 22.2562V35.6098H31.8388V22.2562C31.8388 19.8951 30.9134 17.6307 29.2663 15.9612C27.6191 14.2916 25.3851 13.3537 23.0557 13.3537Z" fill="#019CDE"/>
</svg>
