<svg width="38" height="35" viewBox="0 0 38 35" fill="none" xmlns="http://www.w3.org/2000/svg">
<path d="M16.183 8.70056C17.2273 8.7091 18.2591 8.48988 19.1944 8.06074C20.1298 7.6316 20.9422 7.00464 21.5658 6.23084C22.1958 6.99824 23.0097 7.62051 23.9435 8.04893C24.8774 8.47735 25.9059 8.70029 26.9486 8.70029C27.9913 8.70029 29.0199 8.47735 29.9538 8.04893C30.8876 7.62051 31.7014 6.99824 32.3315 6.23084C32.955 7.00464 33.7675 7.6316 34.7029 8.06074C35.6382 8.48988 36.67 8.7091 37.7143 8.70056V6.21469C36.798 6.16517 35.9183 5.86502 35.1872 5.35242C34.456 4.83981 33.9065 4.13793 33.6085 3.33604C33.518 3.08915 33.3463 2.87453 33.1174 2.72212C32.8884 2.56971 32.6137 2.48712 32.3315 2.48587C32.0497 2.48401 31.7746 2.56469 31.5456 2.71633C31.3166 2.86797 31.1456 3.08276 31.0571 3.32983C30.7597 4.13307 30.2102 4.83636 29.4785 5.35012C28.7468 5.86388 27.8661 6.16485 26.9486 6.21469C26.0323 6.16517 25.1526 5.86502 24.4215 5.35242C23.6904 4.83981 23.1409 4.13793 22.8429 3.33604C22.7524 3.08915 22.5807 2.87453 22.3517 2.72212C22.1228 2.56971 21.848 2.48712 21.5658 2.48587C21.2831 2.48026 21.0061 2.55949 20.7763 2.71166C20.5465 2.86383 20.3764 3.08074 20.2914 3.32983C19.994 4.13307 19.4445 4.83636 18.7129 5.35012C17.9812 5.86388 17.1005 6.16485 16.183 6.21469H14.8373V4.97175C14.8373 3.65316 14.2702 2.38858 13.2607 1.45619C12.2512 0.523808 10.8821 0 9.45446 0C8.02685 0 6.65771 0.523808 5.64823 1.45619C4.63875 2.38858 4.07164 3.65316 4.07164 4.97175V18.9697C2.47152 19.9912 1.2522 21.4444 0.580524 23.1304C-0.0911501 24.8165 -0.182367 26.653 0.319355 28.3888C0.821076 30.1246 1.89122 31.6748 3.38337 32.8272C4.87552 33.9797 6.71677 34.6782 8.65519 34.8271C10.5936 34.9761 12.5345 34.5681 14.2123 33.6591C15.8901 32.7502 17.2228 31.3846 18.0281 29.7492C18.8334 28.1139 19.0719 26.2886 18.711 24.5232C18.3502 22.7579 17.4075 21.1386 16.0121 19.887H16.183C17.2273 19.8955 18.2591 19.6763 19.1944 19.2472C20.1298 18.818 20.9422 18.1911 21.5658 17.4173C22.1958 18.1847 23.0097 18.8069 23.9435 19.2354C24.8774 19.6638 25.9059 19.8867 26.9486 19.8867C27.9913 19.8867 29.0199 19.6638 29.9538 19.2354C30.8876 18.8069 31.7014 18.1847 32.3315 17.4173C32.955 18.1911 33.7675 18.818 34.7029 19.2472C35.6382 19.6763 36.67 19.8955 37.7143 19.887V17.4011C36.798 17.3516 35.9183 17.0515 35.1872 16.5389C34.456 16.0262 33.9065 15.3244 33.6085 14.5225C33.518 14.2756 33.3463 14.061 33.1174 13.9086C32.8884 13.7561 32.6137 13.6736 32.3315 13.6723C32.0497 13.6704 31.7746 13.7511 31.5456 13.9028C31.3166 14.0544 31.1456 14.2692 31.0571 14.5163C30.7597 15.3195 30.2102 16.0228 29.4785 16.5366C28.7468 17.0503 27.8661 17.3513 26.9486 17.4011C26.0323 17.3516 25.1526 17.0515 24.4215 16.5389C23.6904 16.0262 23.1409 15.3244 22.8429 14.5225C22.7524 14.2756 22.5807 14.061 22.3517 13.9086C22.1228 13.7561 21.848 13.6736 21.5658 13.6723C21.2831 13.6667 21.0061 13.7459 20.7763 13.8981C20.5465 14.0503 20.3764 14.2672 20.2914 14.5163C19.994 15.3195 19.4445 16.0228 18.7129 16.5366C17.9812 17.0503 17.1005 17.3513 16.183 17.4011H14.8373V8.70056H16.183ZM6.76305 4.97175C6.76305 4.31245 7.04661 3.68016 7.55135 3.21397C8.05608 2.74778 8.74065 2.48587 9.45446 2.48587C10.1683 2.48587 10.8528 2.74778 11.3576 3.21397C11.8623 3.68016 12.1459 4.31245 12.1459 4.97175V12.4294H6.76305V4.97175ZM9.45446 32.3164C7.97391 32.3167 6.53462 31.8658 5.35988 31.0335C4.18515 30.2012 3.34064 29.034 2.95739 27.7131C2.57415 26.3923 2.67358 24.9915 3.24026 23.7281C3.80695 22.4648 4.80921 21.4095 6.09154 20.726L6.76305 20.3655V14.9152H12.1459V20.3668L12.8174 20.726C14.0997 21.4095 15.102 22.4648 15.6687 23.7281C16.2353 24.9915 16.3348 26.3923 15.9515 27.7131C15.5683 29.034 14.7238 30.2012 13.549 31.0335C12.3743 31.8658 10.935 32.3167 9.45446 32.3164Z" fill="#019CDE"/>
</svg>
