<svg width="39" height="37" viewBox="0 0 39 37" fill="none" xmlns="http://www.w3.org/2000/svg">
<path d="M19.3488 16.1341C17.2353 16.1341 15.5062 17.8633 15.5062 19.9767C15.5062 22.0901 17.2353 23.8193 19.3488 23.8193C21.4622 23.8193 23.1914 22.0901 23.1914 19.9767C23.1914 17.8633 21.4622 16.1341 19.3488 16.1341ZM30.8766 19.9767C30.8766 13.6172 25.7083 8.44888 19.3488 8.44888C12.9893 8.44888 7.82095 13.6172 7.82095 19.9767C7.82095 24.242 10.1457 27.9501 13.5849 29.9483L15.5062 26.6052C13.2198 25.2603 11.6636 22.8202 11.6636 19.9767C11.6636 15.7306 15.1027 12.2915 19.3488 12.2915C23.5949 12.2915 27.034 15.7306 27.034 19.9767C27.034 22.8202 25.4777 25.2603 23.1914 26.6052L25.1127 29.9483C28.5518 27.9501 30.8766 24.242 30.8766 19.9767ZM19.3488 0.763672C8.74318 0.763672 0.135742 9.37111 0.135742 19.9767C0.135742 27.0855 3.99756 33.2721 9.72304 36.596L11.6443 33.2721C7.07165 30.6015 3.97835 25.6638 3.97835 19.9767C3.97835 11.4845 10.8566 4.60628 19.3488 4.60628C27.8409 4.60628 34.7192 11.4845 34.7192 19.9767C34.7192 25.6638 31.6259 30.6015 27.034 33.2721L28.9553 36.596C34.7 33.2721 38.5618 27.0855 38.5618 19.9767C38.5618 9.37111 29.9544 0.763672 19.3488 0.763672Z" fill="#019CDE"/>
</svg>
