<svg width="47" height="46" viewBox="0 0 47 46" fill="none" xmlns="http://www.w3.org/2000/svg">
<g clip-path="url(#clip0_188_615)">
<path d="M45.7056 46H2.26118C1.5584 46 0.983398 45.425 0.983398 44.7222V1.27778C0.983398 0.575 1.5584 0 2.26118 0H45.7056C46.4084 0 46.9834 0.575 46.9834 1.27778V44.7222C46.9834 45.425 46.4084 46 45.7056 46Z" fill="#97CFE8"/>
<path d="M2.53717 45.9991H45.7136C46.412 45.9991 46.9835 45.4277 46.9835 44.7292V1.5528C46.9836 1.3861 46.9507 1.22103 46.8866 1.06714C46.8225 0.91325 46.7285 0.773594 46.6101 0.65625L1.64062 45.6258C1.75797 45.7442 1.89762 45.8381 2.05151 45.9022C2.2054 45.9663 2.37047 45.9992 2.53717 45.9991Z" fill="#019CDE"/>
<path d="M3.61182 2.62891H44.3547V43.3718H3.61182V2.62891Z" fill="#8CCAF7"/>
<path opacity="0.5" d="M3.61182 43.3718V2.62891H44.3547L3.61182 43.3718Z" fill="white"/>
<path d="M22.6689 2.62891H25.2975V43.3718H22.6689V2.62891Z" fill="#019CDE"/>
<path d="M3.61182 24.3141V21.6855H44.3547V24.3141H3.61182Z" fill="#019CDE"/>
</g>
<defs>
<clipPath id="clip0_188_615">
<rect width="46" height="46" fill="white" transform="translate(0.983398)"/>
</clipPath>
</defs>
</svg>
