<svg width="48" height="47" viewBox="0 0 48 47" fill="none" xmlns="http://www.w3.org/2000/svg">
<path d="M15.9297 47C14.8639 47 14 46.1263 14 45.0485V41.4578C14 40.38 14.8639 39.5063 15.9297 39.5063C16.9954 39.5063 17.8593 40.38 17.8593 41.4578V45.0485C17.8593 46.1263 16.9954 47 15.9297 47ZM40.3978 45.0485V41.4578C40.3978 40.38 39.5339 39.5063 38.4682 39.5063C37.4024 39.5063 36.5385 40.38 36.5385 41.4578V45.0485C36.5385 46.1263 37.4024 47 38.4682 47C39.5339 47 40.3978 46.1263 40.3978 45.0485ZM43 23.1918C43 22.5336 42.4723 22 41.8215 22H39.5845C38.9337 22 38.406 22.5336 38.406 23.1918C38.406 23.85 38.9337 24.3837 39.5845 24.3837H41.8215C42.4723 24.3837 43 23.85 43 23.1918Z" fill="#0D6388"/>
<path d="M36.2377 0C32.5089 0 29.4753 2.94274 29.4753 6.55995C29.4753 6.59145 29.4776 6.6224 29.4802 6.65316C27.0653 7.03851 25.0586 8.59733 24.1032 10.7069C23.7568 11.4719 24.3239 12.3314 25.1852 12.3314H36.1108C36.9721 12.3314 37.5391 11.4719 37.1928 10.707C36.2375 8.59733 34.2308 7.03842 31.8159 6.65316C31.8184 6.6223 31.8207 6.59145 31.8207 6.55995C31.8207 4.19736 33.8022 2.27519 36.2377 2.27519C38.6731 2.27519 40.6546 4.19736 40.6546 6.55995V27.8624C40.6546 28.4906 41.1796 29 41.8273 29C42.475 29 43 28.4907 43 27.8624V6.55995C43 2.94284 39.9664 0 36.2377 0Z" fill="#019CDE" fill-opacity="0.4"/>
<path d="M45.558 28H2C2 37.9411 9.81233 46 19.4493 46H38.5812C42.1684 46 45.2035 43.2647 45.685 39.5978L46.9867 29.6871C47.1039 28.7943 46.4312 28 45.558 28Z" fill="#019CDE"/>
<path d="M46.4441 31C46.425 31 46.4058 30.9996 46.3865 30.9988L1.50036 29.2779C0.641031 29.245 -0.0302434 28.4848 0.00105122 27.5798C0.0323458 26.675 0.754391 25.9667 1.61362 26.0012L46.4997 27.7221C47.3591 27.755 48.0302 28.5152 47.9989 29.4202C47.9685 30.3047 47.2778 31 46.4441 31Z" fill="#0D6388"/>
</svg>
