<svg width="37" height="37" viewBox="0 0 37 37" fill="none" xmlns="http://www.w3.org/2000/svg">
<path d="M30.6406 7.51562H31.7969V9.82812H30.6406V7.51562Z" fill="#E67469"/>
<path d="M32.9531 7.51562H34.1094V9.82812H32.9531V7.51562Z" fill="#E67469"/>
<path d="M5.78125 35.2656H3.46875L2.89062 32.375H6.35938L5.78125 35.2656Z" fill="#E67469"/>
<path d="M33.5312 35.2656H31.2188L30.6406 32.375H34.1094L33.5312 35.2656Z" fill="#E67469"/>
<path d="M15.8262 7.51562H14.6699C14.6699 6.87246 14.9562 6.5292 15.1652 6.27829C15.3213 6.09098 15.3926 6.00527 15.3926 5.78125C15.3926 5.55723 15.3213 5.47145 15.1652 5.28413C14.9562 5.03316 14.6699 4.69004 14.6699 4.04688C14.6699 3.40371 14.9562 3.06045 15.1652 2.80962C15.3214 2.62223 15.3926 2.53652 15.3926 2.3125H16.5488C16.5488 2.95566 16.2625 3.29893 16.0535 3.54976C15.8974 3.737 15.8262 3.82285 15.8262 4.04688C15.8262 4.2709 15.8974 4.35668 16.0535 4.54399C16.2625 4.79475 16.5488 5.13809 16.5488 5.78125C16.5488 6.42441 16.2625 6.76768 16.0535 7.01858C15.8974 7.20582 15.8262 7.2916 15.8262 7.51562Z" fill="#FFCC78"/>
<path d="M27.75 7.51562H26.5938C26.5938 6.87246 26.8801 6.5292 27.0891 6.27829C27.2452 6.09098 27.3164 6.00527 27.3164 5.78125C27.3164 5.55723 27.2452 5.47145 27.0891 5.28413C26.8801 5.03316 26.5938 4.69004 26.5938 4.04688C26.5938 3.40371 26.8801 3.06045 27.0891 2.80962C27.2452 2.62223 27.3164 2.53652 27.3164 2.3125H28.4727C28.4727 2.95566 28.1863 3.29893 27.9773 3.54976C27.8212 3.737 27.75 3.82285 27.75 4.04688C27.75 4.2709 27.8213 4.35668 27.9773 4.54399C28.1863 4.79475 28.4727 5.13809 28.4727 5.78125C28.4727 6.42441 28.1863 6.76768 27.9773 7.01858C27.8213 7.20582 27.75 7.2916 27.75 7.51562Z" fill="#FFCC78"/>
<path d="M9.82812 6.35938H8.67188C8.67188 5.71621 8.95819 5.37295 9.16718 5.12204C9.32328 4.93473 9.39453 4.84902 9.39453 4.625C9.39453 4.40098 9.32328 4.3152 9.16718 4.12788C8.95819 3.87691 8.67188 3.53379 8.67188 2.89062C8.67188 2.24746 8.95819 1.9042 9.16718 1.65337C9.32335 1.46598 9.39453 1.38027 9.39453 1.15625H10.5508C10.5508 1.79941 10.2645 2.14268 10.0555 2.39351C9.89931 2.58075 9.82812 2.6666 9.82812 2.89062C9.82812 3.11465 9.89938 3.20043 10.0555 3.38774C10.2645 3.6385 10.5508 3.98184 10.5508 4.625C10.5508 5.26816 10.2645 5.61143 10.0555 5.86233C9.89938 6.04957 9.82812 6.13535 9.82812 6.35938Z" fill="#FFCC78"/>
<path d="M21.752 6.35938H20.5957C20.5957 5.71621 20.882 5.37295 21.091 5.12204C21.2471 4.93473 21.3184 4.84902 21.3184 4.625C21.3184 4.40098 21.2471 4.3152 21.091 4.12788C20.882 3.87691 20.5957 3.53379 20.5957 2.89062C20.5957 2.24746 20.882 1.9042 21.091 1.65337C21.2472 1.46598 21.3184 1.38027 21.3184 1.15625H22.4746C22.4746 1.79941 22.1883 2.14268 21.9793 2.39351C21.8231 2.58075 21.752 2.6666 21.752 2.89062C21.752 3.11465 21.8232 3.20043 21.9793 3.38774C22.1883 3.6385 22.4746 3.98184 22.4746 4.625C22.4746 5.26816 22.1883 5.61143 21.9793 5.86233C21.8232 6.04957 21.752 6.13535 21.752 6.35938Z" fill="#FFCC78"/>
<path d="M34.543 9.25H2.45703C2.05792 9.25 1.73438 9.57354 1.73438 9.97266V32.2305C1.73438 32.6296 2.05792 32.9531 2.45703 32.9531H34.543C34.9421 32.9531 35.2656 32.6296 35.2656 32.2305V9.97266C35.2656 9.57354 34.9421 9.25 34.543 9.25Z" fill="#FF8175"/>
<path d="M4.04688 11.5625H32.9531V28.3281H4.04688V11.5625Z" fill="#FFCC78"/>
<path d="M15.0312 30.0625H21.9688V31.2188H15.0312V30.0625Z" fill="#E67469"/>
<path d="M32.9531 26.5938H31.5078C30.9714 26.5931 30.457 26.3798 30.0777 26.0004C29.6984 25.6211 29.485 25.1068 29.4844 24.5703V15.0312C29.4844 14.8779 29.4235 14.7309 29.315 14.6225C29.2066 14.514 29.0596 14.4531 28.9062 14.4531C28.7529 14.4531 28.6059 14.514 28.4975 14.6225C28.389 14.7309 28.3281 14.8779 28.3281 15.0312V24.8594C28.3281 25.3194 28.1454 25.7605 27.8201 26.0858C27.4949 26.411 27.0537 26.5938 26.5938 26.5938C26.1338 26.5938 25.6926 26.411 25.3674 26.0858C25.0421 25.7605 24.8594 25.3194 24.8594 24.8594V15.0312C24.8594 14.8779 24.7985 14.7309 24.69 14.6225C24.5816 14.514 24.4346 14.4531 24.2812 14.4531C24.1279 14.4531 23.9809 14.514 23.8725 14.6225C23.764 14.7309 23.7031 14.8779 23.7031 15.0312V24.8594C23.7031 25.3194 23.5204 25.7605 23.1951 26.0858C22.8699 26.411 22.4287 26.5938 21.9688 26.5938C21.5088 26.5938 21.0676 26.411 20.7424 26.0858C20.4171 25.7605 20.2344 25.3194 20.2344 24.8594V15.0312C20.2344 14.8779 20.1735 14.7309 20.065 14.6225C19.9566 14.514 19.8096 14.4531 19.6562 14.4531C19.5029 14.4531 19.3559 14.514 19.2475 14.6225C19.139 14.7309 19.0781 14.8779 19.0781 15.0312V24.8594C19.0781 25.3194 18.8954 25.7605 18.5701 26.0858C18.2449 26.411 17.8037 26.5938 17.3438 26.5938C16.8838 26.5938 16.4426 26.411 16.1174 26.0858C15.7921 25.7605 15.6094 25.3194 15.6094 24.8594V15.0312C15.6094 14.8779 15.5485 14.7309 15.44 14.6225C15.3316 14.514 15.1846 14.4531 15.0312 14.4531C14.8779 14.4531 14.7309 14.514 14.6225 14.6225C14.514 14.7309 14.4531 14.8779 14.4531 15.0312V24.8594C14.4531 25.3194 14.2704 25.7605 13.9451 26.0858C13.6199 26.411 13.1787 26.5938 12.7188 26.5938C12.2588 26.5938 11.8176 26.411 11.4924 26.0858C11.1671 25.7605 10.9844 25.3194 10.9844 24.8594V15.0312C10.9844 14.8779 10.9235 14.7309 10.815 14.6225C10.7066 14.514 10.5596 14.4531 10.4062 14.4531C10.2529 14.4531 10.1059 14.514 9.99745 14.6225C9.88903 14.7309 9.82812 14.8779 9.82812 15.0312V24.8594C9.82812 25.3194 9.6454 25.7605 9.32014 26.0858C8.99488 26.411 8.55373 26.5938 8.09375 26.5938C7.63377 26.5938 7.19262 26.411 6.86736 26.0858C6.5421 25.7605 6.35938 25.3194 6.35938 24.8594V15.0312C6.3592 14.878 6.29824 14.731 6.18986 14.6226C6.08147 14.5143 5.93453 14.4533 5.78125 14.4531H4.04688V13.2969H5.78125C6.24108 13.2974 6.68192 13.4803 7.00707 13.8054C7.33221 14.1306 7.51511 14.5714 7.51562 15.0312V24.8594C7.51562 25.0127 7.57653 25.1598 7.68495 25.2682C7.79337 25.3766 7.94042 25.4375 8.09375 25.4375C8.24708 25.4375 8.39413 25.3766 8.50255 25.2682C8.61097 25.1598 8.67188 25.0127 8.67188 24.8594V15.0312C8.67188 14.5713 8.8546 14.1301 9.17986 13.8049C9.50512 13.4796 9.94627 13.2969 10.4062 13.2969C10.8662 13.2969 11.3074 13.4796 11.6326 13.8049C11.9579 14.1301 12.1406 14.5713 12.1406 15.0312V24.8594C12.1406 25.0127 12.2015 25.1598 12.31 25.2682C12.4184 25.3766 12.5654 25.4375 12.7188 25.4375C12.8721 25.4375 13.0191 25.3766 13.1275 25.2682C13.236 25.1598 13.2969 25.0127 13.2969 24.8594V15.0312C13.2969 14.5713 13.4796 14.1301 13.8049 13.8049C14.1301 13.4796 14.5713 13.2969 15.0312 13.2969C15.4912 13.2969 15.9324 13.4796 16.2576 13.8049C16.5829 14.1301 16.7656 14.5713 16.7656 15.0312V24.8594C16.7656 25.0127 16.8265 25.1598 16.935 25.2682C17.0434 25.3766 17.1904 25.4375 17.3438 25.4375C17.4971 25.4375 17.6441 25.3766 17.7525 25.2682C17.861 25.1598 17.9219 25.0127 17.9219 24.8594V15.0312C17.9219 14.5713 18.1046 14.1301 18.4299 13.8049C18.7551 13.4796 19.1963 13.2969 19.6562 13.2969C20.1162 13.2969 20.5574 13.4796 20.8826 13.8049C21.2079 14.1301 21.3906 14.5713 21.3906 15.0312V24.8594C21.3906 25.0127 21.4515 25.1598 21.56 25.2682C21.6684 25.3766 21.8154 25.4375 21.9688 25.4375C22.1221 25.4375 22.2691 25.3766 22.3775 25.2682C22.486 25.1598 22.5469 25.0127 22.5469 24.8594V15.0312C22.5469 14.5713 22.7296 14.1301 23.0549 13.8049C23.3801 13.4796 23.8213 13.2969 24.2812 13.2969C24.7412 13.2969 25.1824 13.4796 25.5076 13.8049C25.8329 14.1301 26.0156 14.5713 26.0156 15.0312V24.8594C26.0156 25.0127 26.0765 25.1598 26.185 25.2682C26.2934 25.3766 26.4404 25.4375 26.5938 25.4375C26.7471 25.4375 26.8941 25.3766 27.0025 25.2682C27.111 25.1598 27.1719 25.0127 27.1719 24.8594V15.0312C27.1719 14.5713 27.3546 14.1301 27.6799 13.8049C28.0051 13.4796 28.4463 13.2969 28.9062 13.2969C29.3662 13.2969 29.8074 13.4796 30.1326 13.8049C30.4579 14.1301 30.6406 14.5713 30.6406 15.0312V24.5703C30.6409 24.8002 30.7323 25.0207 30.8949 25.1832C31.0575 25.3458 31.2779 25.4373 31.5078 25.4375H32.9531V26.5938Z" fill="#FFF5E4"/>
<path d="M32.375 30.0625H33.5312V31.2188H32.375V30.0625Z" fill="#E67469"/>
<path d="M30.0625 30.0625H31.2188V31.2188H30.0625V30.0625Z" fill="#E67469"/>
<path d="M3.46875 30.0625H4.625V31.2188H3.46875V30.0625Z" fill="#E67469"/>
<path d="M5.78125 30.0625H6.9375V31.2188H5.78125V30.0625Z" fill="#E67469"/>
</svg>
