<svg width="34" height="34" viewBox="0 0 34 34" fill="none" xmlns="http://www.w3.org/2000/svg">
<g clip-path="url(#clip0_257_167)">
<path d="M28.3622 16.4905V30.8966H19.4668V22.1641H14.5324V30.8966H5.24463V16.4905L16.8034 7.59961L28.3622 16.4905Z" fill="#FFB74F"/>
<path d="M28.8458 12.0676V5.9747H23.9778V8.32261L16.8027 2.80273L0 15.729L3.52023 20.3046L16.8027 10.087L30.0851 20.3046L33.6053 15.729L28.8458 12.0676Z" fill="#FF7D3C"/>
<path d="M28.3615 16.4905V30.8966H19.4661V22.1641H16.8027V7.59961L28.3615 16.4905Z" fill="#FF9A00"/>
<path d="M33.6054 15.729L30.0852 20.3046L16.8027 10.087V2.80273L23.9779 8.32261V5.9747H28.8459V12.0676L33.6054 15.729Z" fill="#FF4E19"/>
</g>
<defs>
<clipPath id="clip0_257_167">
<rect width="33.6053" height="33.6053" fill="white" transform="translate(0 0.046875)"/>
</clipPath>
</defs>
</svg>
