<svg width="34" height="34" viewBox="0 0 34 34" fill="none" xmlns="http://www.w3.org/2000/svg">
<g clip-path="url(#clip0_257_119)">
<path d="M31.0198 16.8046C30.7397 16.8046 30.5127 16.5776 30.5127 16.2975V8.78252C30.5127 8.50244 30.7397 8.27539 31.0198 8.27539C31.2999 8.27539 31.5269 8.50244 31.5269 8.78252V16.2974C31.527 16.5776 31.2999 16.8046 31.0198 16.8046Z" fill="#DB5C6E"/>
<path d="M4.26022 30.1113H1.86084V33.0497C1.86084 33.3288 2.0871 33.5552 2.36626 33.5552H3.16358C3.40488 33.5552 3.61256 33.3846 3.65936 33.1479L4.26022 30.1113Z" fill="#365E7D"/>
<path d="M16.771 30.1113H19.1704V33.0497C19.1704 33.3288 18.9442 33.5552 18.665 33.5552H17.8677C17.6264 33.5552 17.4187 33.3846 17.3719 33.1479L16.771 30.1113Z" fill="#365E7D"/>
<path d="M10.5638 9.78763C10.5638 9.88091 10.5607 9.97484 10.5544 10.0698C10.4718 11.321 9.85392 12.6975 8.93549 13.6331C8.5349 14.0415 8.07687 14.3655 7.58155 14.5586C7.25506 14.6862 6.91236 14.7565 6.55876 14.7565C6.20516 14.7565 5.86246 14.6862 5.53597 14.5586C5.25477 14.4491 4.98571 14.297 4.73208 14.1117C3.43873 13.1645 2.55371 11.3416 2.55371 9.78763C2.55371 9.39117 2.61115 9.02976 2.71866 8.70353C2.82572 8.37731 2.98293 8.08665 3.18175 7.83112C3.98485 6.63366 4.25804 5.77385 4.24399 5.15796C4.24156 5.03541 4.22751 4.92277 4.20402 4.81886C4.16647 4.65247 4.10444 4.50885 4.026 4.38485C3.971 4.29696 3.90733 4.21918 3.83854 4.15039H9.27892C9.11279 4.31652 8.97763 4.53451 8.91344 4.81886C8.88535 4.94312 8.87084 5.08017 8.87301 5.23108C8.88174 5.84166 9.16412 6.6804 9.93577 7.83112C10.2729 8.26441 10.49 8.79917 10.5481 9.43522C10.5584 9.54956 10.5638 9.66699 10.5638 9.78763Z" fill="#EDEDED"/>
<path d="M6.55854 14.7563C6.20481 14.7563 5.86204 14.6861 5.53555 14.558C5.25474 14.449 4.98556 14.2969 4.73206 14.1116C3.4385 13.1643 2.55322 11.3412 2.55322 9.78731C2.55322 9.39065 2.61118 9.02943 2.71817 8.70301C2.82517 8.37724 2.98264 8.08626 3.18159 7.83066C3.98442 6.6332 4.25775 5.77379 4.24409 5.15769C4.24134 5.03501 4.22703 4.92257 4.20386 4.81827C4.16638 4.65201 4.10435 4.50885 4.02597 4.38485C3.97077 4.29696 3.90736 4.21925 3.83857 4.15039H5.44904C5.477 4.21925 5.50286 4.2969 5.52538 4.38485C5.55741 4.50891 5.58261 4.65201 5.5983 4.81827C5.60782 4.92257 5.61327 5.03501 5.61464 5.15769C5.62009 5.77379 5.50903 6.6332 5.18123 7.83066C5.1001 8.08626 5.03603 8.37724 4.99245 8.70301C4.94814 9.02943 4.92497 9.39065 4.92497 9.78731C4.92497 11.3412 5.28619 13.1643 5.81366 14.1116C5.91659 14.2969 6.02699 14.4489 6.14147 14.558C6.27439 14.6861 6.41407 14.7563 6.55854 14.7563Z" fill="#DBDBDB"/>
<path d="M23.9136 33.5555V6.08477C23.9136 5.5202 24.3713 5.0625 24.9358 5.0625C25.5004 5.0625 25.9581 5.5202 25.9581 6.08477V33.5555H23.9136Z" fill="#407093"/>
<path d="M25.447 5.19949C25.1417 5.37672 24.9358 5.70655 24.9358 6.08477V33.5557H23.9136V6.08477C23.9136 5.52047 24.3715 5.0625 24.9358 5.0625C25.1219 5.0625 25.2964 5.11225 25.447 5.19949Z" fill="#365E7D"/>
<path d="M10.5236 32.0285C7.50549 32.0285 4.44485 31.8949 1.42669 31.6314C0.913783 31.5866 0.499401 31.184 0.441441 30.6741C-0.147147 25.4935 -0.147147 20.24 0.441441 15.0594C0.499401 14.5495 0.913783 14.1469 1.42669 14.1021C4.44485 13.8387 7.50549 13.7051 10.5236 13.7051C13.5417 13.7051 16.6023 13.8387 19.6205 14.1021C20.1334 14.1469 20.5478 14.5495 20.6057 15.0594C21.1943 20.24 21.1943 25.4935 20.6057 30.6741C20.5478 31.184 20.1335 31.5866 19.6205 31.6314C16.6023 31.8949 13.5417 32.0285 10.5236 32.0285Z" fill="#845C47"/>
<path d="M2.04736 23.373H18.9999C18.9843 25.4713 18.8707 27.5696 18.6584 29.6591C15.9502 29.8741 13.221 29.983 10.5236 29.983C7.82626 29.983 5.0971 29.8741 2.38889 29.6591C2.17654 27.5696 2.06292 25.4713 2.04736 23.373Z" fill="#986B54"/>
<path d="M18.9999 22.3599H2.04736C2.06292 20.2609 2.17654 18.1634 2.38882 16.0739C5.09704 15.8588 7.82619 15.75 10.5236 15.75C13.221 15.75 15.9501 15.8588 18.6583 16.0739C18.8707 18.1633 18.9843 20.2609 18.9999 22.3599Z" fill="#986B54"/>
<path d="M32.7386 10.9017C32.0354 11.0694 30.9805 11.2932 29.697 11.4792C29.3745 11.5258 29.037 11.5705 28.6874 11.611C27.548 11.7436 26.2747 11.8355 24.9365 11.8355C23.5983 11.8355 22.325 11.7436 21.1856 11.611C20.836 11.5705 20.4993 11.5258 20.1768 11.4792C18.8933 11.2932 17.8378 11.0694 17.1345 10.9017C16.5733 10.7678 16.2027 10.2316 16.2771 9.65951C16.7443 6.05938 18.3205 2.59585 19.0718 1.10282C19.3091 0.631528 19.7913 0.333984 20.3194 0.333984H29.5537C30.0818 0.333984 30.5639 0.631528 30.8013 1.10282C31.5525 2.59585 33.1288 6.05938 33.596 9.65951C33.6705 10.2315 33.2992 10.7678 32.7386 10.9017Z" fill="#FFD064"/>
<path d="M22.344 0.335938C22.0475 0.335938 21.777 0.632365 21.6434 1.10405C21.2215 2.59728 20.0929 7.4204 19.8312 11.0203C19.821 11.1613 19.8258 11.2997 19.8435 11.4305C18.7101 11.2554 17.7764 11.0556 17.1351 10.903C16.5735 10.7695 16.2027 10.2324 16.277 9.66061C16.7446 6.06147 18.3203 2.59728 19.072 1.10405C19.3091 0.632431 19.7916 0.335938 20.3192 0.335938H22.344Z" fill="#FFC250"/>
<path d="M21.5938 0.333984C21.2347 2.14557 20.407 6.72615 20.1758 11.4792C20.4983 11.5258 20.8351 11.5705 21.1847 11.611C21.4153 6.71263 22.2971 1.97714 22.6283 0.333984H21.5938Z" fill="#E49542"/>
<path d="M28.2773 0.333984H27.2427C27.5734 1.9711 28.4558 6.70928 28.6871 11.611C29.0367 11.5705 29.3741 11.5258 29.6967 11.4792C29.4654 6.72615 28.6363 2.1455 28.2773 0.333984Z" fill="#E49542"/>
<path d="M27.0124 31.4746H22.8601C22.0987 31.4746 21.4814 32.0918 21.4814 32.8532V33.5566H28.391V32.8532C28.391 32.0918 27.7738 31.4746 27.0124 31.4746Z" fill="#FFD064"/>
<path d="M24.8019 31.4727C24.0406 31.4727 23.4231 32.0901 23.4231 32.8514V33.5547H21.4814V32.8514C21.4814 32.0901 22.0989 31.4727 22.8602 31.4727H24.8019Z" fill="#FFC250"/>
<path d="M10.523 20.4953C11.1786 20.4953 11.7101 19.9638 11.7101 19.3082C11.7101 18.6526 11.1786 18.1211 10.523 18.1211C9.86742 18.1211 9.33594 18.6526 9.33594 19.3082C9.33594 19.9638 9.86742 20.4953 10.523 20.4953Z" fill="#EDEDED"/>
<path d="M10.523 27.6105C11.1786 27.6105 11.7101 27.079 11.7101 26.4234C11.7101 25.7678 11.1786 25.2363 10.523 25.2363C9.86742 25.2363 9.33594 25.7678 9.33594 26.4234C9.33594 27.079 9.86742 27.6105 10.523 27.6105Z" fill="#EDEDED"/>
<path d="M10.5643 10.2955H2.54473C2.26464 10.2955 2.0376 10.0685 2.0376 9.78838C2.0376 9.5083 2.26464 9.28125 2.54473 9.28125H10.5643C10.8444 9.28125 11.0714 9.5083 11.0714 9.78838C11.0715 10.0685 10.8444 10.2955 10.5643 10.2955Z" fill="#DBDBDB"/>
<path d="M9.27909 4.65879H3.83916C3.55908 4.65879 3.33203 4.43175 3.33203 4.15166C3.33203 3.87158 3.55908 3.64453 3.83916 3.64453H9.27903C9.55911 3.64453 9.78616 3.87158 9.78616 4.15166C9.78616 4.43175 9.55918 4.65879 9.27909 4.65879Z" fill="#DBDBDB"/>
</g>
<defs>
<clipPath id="clip0_257_119">
<rect width="33.6053" height="33.6053" fill="white" transform="translate(0 0.142578)"/>
</clipPath>
</defs>
</svg>
