<svg width="25" height="26" viewBox="0 0 25 26" fill="none" xmlns="http://www.w3.org/2000/svg">
<path d="M22.3214 0H2.67857C1.19978 0 0 1.21777 0 2.71875V22.6562C0 24.1572 1.19978 25.375 2.67857 25.375H22.3214C23.8002 25.375 25 24.1572 25 22.6562V2.71875C25 1.21777 23.8002 0 22.3214 0ZM13.3929 16.3125H10.7143V19.0312C10.7143 19.5297 10.3125 19.9375 9.82143 19.9375H8.03571C7.54464 19.9375 7.14286 19.5297 7.14286 19.0312V6.34375C7.14286 5.84531 7.54464 5.4375 8.03571 5.4375H13.3929C16.3449 5.4375 18.75 7.87871 18.75 10.875C18.75 13.8713 16.3449 16.3125 13.3929 16.3125ZM13.3929 9.0625H10.7143V12.6875H13.3929C14.375 12.6875 15.1786 11.8719 15.1786 10.875C15.1786 9.87812 14.375 9.0625 13.3929 9.0625Z" fill="#019CDE"/>
</svg>
