<svg width="38" height="38" viewBox="0 0 38 38" fill="none" xmlns="http://www.w3.org/2000/svg">
<path d="M12.5079 36.3272H0.751755C0.336594 36.3272 0 35.9906 0 35.5751V2.45879C0 2.04362 0.336594 1.70703 0.751755 1.70703H12.5079C12.923 1.70703 13.2596 2.04362 13.2596 2.45879V35.5751C13.2596 35.9906 12.923 36.3272 12.5079 36.3272Z" fill="#00D2B4"/>
<path d="M13.2596 2.45879V35.5746C13.2596 35.9903 12.9228 36.3263 12.5079 36.3263H10.8916C11.3065 36.3263 11.6434 35.9903 11.6434 35.5746V2.45879C11.6434 2.04305 11.3065 1.70703 10.8916 1.70703H12.5079C12.9228 1.70703 13.2596 2.04305 13.2596 2.45879V2.45879Z" fill="#00B7A0"/>
<path d="M21.0724 7.48334H16.7996C16.3844 7.48334 16.0479 7.14674 16.0479 6.73158V2.45879C16.0479 2.04362 16.3844 1.70703 16.7996 1.70703H21.0724C21.4876 1.70703 21.8242 2.04362 21.8242 2.45879V6.73158C21.8242 7.14674 21.4876 7.48334 21.0724 7.48334Z" fill="#FFDE46"/>
<path d="M21.8246 2.45879V6.73158C21.8246 7.14674 21.488 7.48363 21.0728 7.48363H19.4565C19.8717 7.48363 20.2083 7.14674 20.2083 6.73158V2.45879C20.2083 2.04305 19.8717 1.70703 19.4565 1.70703H21.0728C21.488 1.70703 21.8246 2.04305 21.8246 2.45879V2.45879Z" fill="#F9C60B"/>
<path d="M21.0724 15.9345H16.7996C16.3844 15.9345 16.0479 15.5979 16.0479 15.1828V10.91C16.0479 10.4948 16.3844 10.1582 16.7996 10.1582H21.0724C21.4876 10.1582 21.8242 10.4948 21.8242 10.91V15.1828C21.8242 15.5979 21.4876 15.9345 21.0724 15.9345Z" fill="#FF3B82"/>
<path d="M21.8246 10.908V15.1811C21.8246 15.596 21.488 15.9328 21.0728 15.9328H19.4565C19.8717 15.9328 20.2083 15.596 20.2083 15.1811V10.908C20.2083 10.4931 19.8717 10.1562 19.4565 10.1562H21.0728C21.488 10.1562 21.8246 10.4931 21.8246 10.908V10.908Z" fill="#E11158"/>
<path d="M36.6108 7.48334H25.4212C25.006 7.48334 24.6694 7.14674 24.6694 6.73158V2.45879C24.6694 2.04362 25.006 1.70703 25.4212 1.70703H36.6108C37.026 1.70703 37.3626 2.04362 37.3626 2.45879V6.73158C37.3626 7.14674 37.026 7.48334 36.6108 7.48334V7.48334Z" fill="#FF3B82"/>
<path d="M37.3627 2.45879V6.73158C37.3627 7.14674 37.0258 7.48363 36.6109 7.48363H34.9946C35.4095 7.48363 35.7464 7.14674 35.7464 6.73158V2.45879C35.7464 2.04305 35.4095 1.70703 34.9946 1.70703H36.6109C37.0258 1.70703 37.3627 2.04305 37.3627 2.45879V2.45879Z" fill="#E11158"/>
<path d="M36.6108 15.9345H25.4212C25.006 15.9345 24.6694 15.5979 24.6694 15.1828V10.91C24.6694 10.4948 25.006 10.1582 25.4212 10.1582H36.6108C37.026 10.1582 37.3626 10.4948 37.3626 10.91V15.1828C37.3626 15.5979 37.026 15.9345 36.6108 15.9345V15.9345Z" fill="#FFDE46"/>
<path d="M37.3627 10.908V15.1811C37.3627 15.596 37.0258 15.9328 36.6109 15.9328H34.9946C35.4095 15.9328 35.7464 15.596 35.7464 15.1811V10.908C35.7464 10.4931 35.4095 10.1562 34.9946 10.1562H36.6109C37.0258 10.1562 37.3627 10.4931 37.3627 10.908V10.908Z" fill="#F9C60B"/>
<path d="M36.6749 26.3627H17.3728C16.641 26.3627 16.0479 25.7696 16.0479 25.0378C16.0479 24.3061 16.641 23.7129 17.3728 23.7129H36.6749C37.4066 23.7129 37.9998 24.3061 37.9998 25.0378C37.9998 25.7696 37.4066 26.3627 36.6749 26.3627Z" fill="#8CBCD4"/>
<path d="M38 25.0375C38 25.4037 37.8518 25.7345 37.612 25.9742C37.3723 26.214 37.0406 26.363 36.6745 26.363H34.9712C35.3371 26.363 35.6679 26.214 35.9079 25.9742C36.1477 25.7345 36.2958 25.4037 36.2958 25.0375C36.2958 24.3061 35.7027 23.7129 34.9712 23.7129H36.6747C37.4068 23.7129 38 24.3061 38 25.0375V25.0375Z" fill="#6FACCA"/>
<path d="M36.6749 31.3454H17.3728C16.641 31.3454 16.0479 30.7523 16.0479 30.0205C16.0479 29.2885 16.641 28.6953 17.3728 28.6953H36.6749C37.4066 28.6953 37.9998 29.2885 37.9998 30.0205C37.9998 30.7523 37.4066 31.3454 36.6749 31.3454Z" fill="#3C94BB"/>
<path d="M38 30.0199C38 30.3861 37.8518 30.7178 37.612 30.9575C37.3723 31.1973 37.0406 31.3454 36.6745 31.3454H34.9712C35.3371 31.3454 35.6679 31.1973 35.9079 30.9575C36.1477 30.7178 36.2958 30.3861 36.2958 30.0199C36.2958 29.2885 35.7027 28.6953 34.9712 28.6953H36.6747C37.4068 28.6953 38 29.2885 38 30.0199V30.0199Z" fill="#1683AE"/>
<path d="M36.6749 36.3279H17.3728C16.641 36.3279 16.0479 35.7347 16.0479 35.0027C16.0479 34.2709 16.641 33.6777 17.3728 33.6777H36.6749C37.4066 33.6777 37.9998 34.2709 37.9998 35.0027C37.9998 35.7347 37.4066 36.3279 36.6749 36.3279V36.3279Z" fill="#0A7296"/>
<path d="M38 35.0024C38 35.3685 37.8518 35.7002 37.612 35.94C37.3723 36.1797 37.0406 36.3279 36.6745 36.3279H34.9712C35.3371 36.3279 35.6679 36.1797 35.9079 35.94C36.1477 35.7002 36.2958 35.3685 36.2958 35.0024C36.2958 34.2709 35.7027 33.6777 34.9712 33.6777H36.6747C37.4068 33.6777 38 34.2709 38 35.0024V35.0024Z" fill="#075F7F"/>
<path d="M36.6749 21.3806H17.3728C16.641 21.3806 16.0479 20.7874 16.0479 20.0557C16.0479 19.3236 16.641 18.7305 17.3728 18.7305H36.6749C37.4066 18.7305 37.9998 19.3236 37.9998 20.0557C37.9998 20.7874 37.4066 21.3806 36.6749 21.3806Z" fill="#B6D3E3"/>
<path d="M38 20.0548C38 20.421 37.8518 20.7518 37.612 20.9915C37.3723 21.2313 37.0406 21.3803 36.6745 21.3803H34.9712C35.3371 21.3803 35.6679 21.2313 35.9079 20.9915C36.1477 20.7518 36.2958 20.421 36.2958 20.0548C36.2958 19.3233 35.7027 18.7305 34.9712 18.7305H36.6747C37.4068 18.7305 38 19.3233 38 20.0548Z" fill="#8CBCD4"/>
<path d="M4.98615 23.9689H3.38058C3.06371 23.9689 2.80713 23.7123 2.80713 23.3957C2.80713 23.0788 3.06371 22.8223 3.38058 22.8223H4.98615C5.30302 22.8223 5.5596 23.0788 5.5596 23.3957C5.5596 23.7123 5.30302 23.9689 4.98615 23.9689Z" fill="#008C80"/>
<path d="M9.87965 27.4828H3.38058C3.06371 27.4828 2.80713 27.2263 2.80713 26.9094C2.80713 26.5928 3.06371 26.3359 3.38058 26.3359H9.87936C10.1962 26.3359 10.4528 26.5928 10.4528 26.9094C10.4531 27.2263 10.1962 27.4828 9.87965 27.4828Z" fill="#008C80"/>
<path d="M9.87965 30.0063H3.38058C3.06371 30.0063 2.80713 29.7497 2.80713 29.4328C2.80713 29.1162 3.06371 28.8594 3.38058 28.8594H9.87936C10.1962 28.8594 10.4528 29.1162 10.4528 29.4328C10.4531 29.7497 10.1962 30.0063 9.87965 30.0063Z" fill="#008C80"/>
<path d="M9.87965 32.5297H3.38058C3.06371 32.5297 2.80713 32.2729 2.80713 31.9563C2.80713 31.6397 3.06371 31.3828 3.38058 31.3828H9.87936C10.1962 31.3828 10.4528 31.6397 10.4528 31.9563C10.4531 32.2729 10.1962 32.5297 9.87965 32.5297Z" fill="#008C80"/>
</svg>
