<svg width="34" height="34" viewBox="0 0 34 34" fill="none" xmlns="http://www.w3.org/2000/svg">
<g clip-path="url(#clip0_257_146)">
<path d="M33.6053 16.8984C33.6053 21.5003 31.7557 25.6707 28.758 28.7048C27.0633 30.4214 25.0017 31.7746 22.7001 32.6366C22.0067 32.8973 21.2907 33.1126 20.5569 33.2799C19.3498 33.5557 18.0934 33.701 16.8027 33.701C15.3206 33.701 13.8838 33.509 12.5156 33.149C9.87308 32.4542 7.48506 31.1313 5.52014 29.3495C2.12948 26.2756 0 21.8356 0 16.8984C0 7.61851 7.52281 0.0957031 16.8027 0.0957031C26.0825 0.0957031 33.6053 7.61851 33.6053 16.8984Z" fill="#FCC72E"/>
<path d="M29.9109 13.2042C29.9109 16.7943 28.4679 20.0479 26.1292 22.415C24.8072 23.7542 23.1989 24.8098 21.4032 25.4824C20.8623 25.6857 20.3037 25.8537 19.7312 25.9843C18.7896 26.1994 17.8093 26.3128 16.8024 26.3128C15.6462 26.3128 14.5253 26.163 13.4578 25.8821C11.3963 25.3401 9.53337 24.308 8.00039 22.918C5.35515 20.5199 3.69385 17.056 3.69385 13.2043C3.69385 5.96456 9.56277 0.0957031 16.8024 0.0957031C24.0419 0.0957031 29.9109 5.96456 29.9109 13.2042Z" fill="#FFD367"/>
<path d="M12.5145 15.6484V33.1486C9.87198 32.4539 7.48397 31.1309 5.51904 29.3492V15.6484H12.5145Z" fill="#535E8A"/>
<path d="M12.2063 1.26172V6.28702C12.2063 8.04822 10.7785 9.47598 9.01734 9.47598C7.25614 9.47598 5.82838 8.04822 5.82838 6.28702V1.26172C2.80908 2.51365 0.685059 5.48929 0.685059 8.96147C0.685059 13.5633 4.41558 17.2938 9.0174 17.2938C13.6192 17.2938 17.3497 13.5633 17.3497 8.96147C17.3497 5.48929 15.2257 2.51365 12.2063 1.26172Z" fill="#535E8A"/>
<path d="M6.55972 30.2216V16.5401L5.51953 16.5137V29.3492" fill="#323B5B"/>
<path d="M6.57341 16.532C3.71171 15.2129 1.72525 12.3194 1.72525 8.96155C1.72525 5.90373 3.37303 3.23164 5.82851 1.78221V1.26172C2.80909 2.51372 0.685059 5.48937 0.685059 8.96155C0.685059 12.708 3.15755 15.8768 6.55976 16.9256L6.57341 16.532Z" fill="#323B5B"/>
<path d="M26.5743 11.7539H23.7969V26.6699H26.5743V11.7539Z" fill="#EDEDED"/>
<path d="M24.8152 11.7539H23.7969V26.6699H24.8152V11.7539Z" fill="#BDBDBD"/>
<path d="M28.2211 8.49629L26.198 1.70703H24.1749L22.1519 8.49629L23.7977 11.9594H26.5752L28.2211 8.49629Z" fill="#EDEDED"/>
<path d="M28.7577 28.7056C26.5521 30.9393 23.7251 32.5579 20.5566 33.2807V31.13C20.5566 29.3029 22.038 27.8223 23.8643 27.8223H26.5075C27.3764 27.8223 28.1672 28.1576 28.7577 28.7056Z" fill="#FF4F6F"/>
<path d="M26.0075 27.8223C24.1805 27.8223 22.6998 29.3029 22.6998 31.13V32.6374C22.0065 32.898 21.2904 33.1134 20.5566 33.2807V31.13C20.5566 29.3029 22.038 27.8223 23.8643 27.8223H26.0075Z" fill="#E33958"/>
<path d="M24.8161 11.9594L22.7923 8.41261L24.4154 2.30878H26.3773L26.198 1.70703H24.1749L22.1519 8.4963L23.7977 11.9594L24.4231 12.3523L24.8161 11.9594Z" fill="#BDBDBD"/>
<path d="M28.7865 28.1648H21.5853C21.0172 28.1648 20.5566 27.7042 20.5566 27.1361C20.5566 26.568 21.0173 26.1074 21.5853 26.1074H28.7865C29.3546 26.1074 29.8152 26.568 29.8152 27.1361C29.8152 27.7043 29.3547 28.1648 28.7865 28.1648Z" fill="#FF4F6F"/>
<path d="M22.7515 27.1361C22.7515 26.568 23.2121 26.1074 23.7802 26.1074H21.5853C21.0172 26.1074 20.5566 26.568 20.5566 27.1361C20.5566 27.7043 21.0173 28.1648 21.5853 28.1648H23.7802C23.2121 28.1648 22.7515 27.7043 22.7515 27.1361Z" fill="#E33958"/>
</g>
<defs>
<clipPath id="clip0_257_146">
<rect width="33.6053" height="33.6053" fill="white" transform="translate(0 0.0957031)"/>
</clipPath>
</defs>
</svg>
