<svg width="37" height="37" viewBox="0 0 37 37" fill="none" xmlns="http://www.w3.org/2000/svg">
<g clip-path="url(#clip0_188_916)">
<path d="M33.5146 7.90625L34.2373 13.6996L33.5146 19.493H31.9811C31.2688 19.493 30.6914 18.9156 30.6914 18.2034V9.1959C30.6914 8.48365 31.2688 7.90625 31.9811 7.90625H33.5146Z" fill="#7F78BD"/>
<path d="M23.1092 13.3824C23.7748 12.0834 23.2613 10.4908 21.9623 9.82531C20.6633 9.15977 19.0708 9.67326 18.4053 10.9722C17.7397 12.2712 18.2532 13.8637 19.5522 14.5293C20.8511 15.1948 22.4437 14.6813 23.1092 13.3824Z" fill="#ECB880"/>
<path d="M20.7589 9.53906C20.4692 9.53906 20.1906 9.5864 19.9297 9.67254C20.9829 10.0204 21.7432 11.012 21.7432 12.1817C21.7432 13.3515 20.9829 14.3431 19.9297 14.691C20.1906 14.7772 20.4692 14.8244 20.7589 14.8244C22.2185 14.8244 23.4016 13.6412 23.4016 12.1817C23.4017 10.7222 22.2185 9.53906 20.7589 9.53906Z" fill="#E5936A"/>
<path d="M16.0805 7.16797V15.7458H13.131V12.6557C13.131 11.4178 12.1274 10.4141 10.8894 10.4141C9.65143 10.4141 8.64867 11.4177 8.64867 12.6557V15.7458H5.69922V7.16797L10.8898 6.44531L16.0805 7.16797Z" fill="#77D1B3"/>
<path d="M14.5703 7.16797H16.0799V15.7458H14.5703V7.16797Z" fill="#61AAB8"/>
<path d="M11.1149 0.256741L17.3721 6.63079C17.5684 6.83067 17.4268 7.16823 17.1466 7.16823H4.63212C4.35195 7.16823 4.21031 6.83074 4.40658 6.63079L10.6638 0.256741C10.7876 0.130565 10.991 0.130565 11.1149 0.256741Z" fill="#E27F86"/>
<path d="M17.3739 6.63086L11.1167 0.256741C10.9929 0.130565 10.7896 0.130565 10.6657 0.256741L9.91309 1.02341L15.4177 6.63079C15.614 6.83067 15.4723 7.16823 15.1922 7.16823H17.1484C17.4286 7.16823 17.5702 6.83074 17.3739 6.63086Z" fill="#CD5668"/>
<path d="M21.3021 25.9961L19.6091 35.811C19.5055 36.4115 18.9839 36.836 18.3949 36.836C18.3249 36.836 18.2551 36.8294 18.1835 36.8171C17.5122 36.7019 17.0614 36.0635 17.1774 35.3914L18.798 25.9961H21.3021Z" fill="#E27F86"/>
<path d="M34.7612 36.8171C34.6897 36.8294 34.6197 36.836 34.5497 36.836C33.9607 36.836 33.4392 36.4115 33.3355 35.811L31.6426 25.9961H34.1467L35.7673 35.3914C35.8833 36.0635 35.4325 36.7019 34.7612 36.8171Z" fill="#E27F86"/>
<path d="M33.5146 7.38237V25.4483H35.9826V7.38237C35.9826 6.70091 35.4301 6.14844 34.7487 6.14844C34.0672 6.14844 33.5146 6.70091 33.5146 7.38237Z" fill="#ECB880"/>
<path d="M15.9443 25.5577V26.7779C15.9443 27.4397 16.4808 27.9762 17.1426 27.9762H35.8011C36.4629 27.9762 36.9994 27.4397 36.9994 26.7779V25.5577C36.9994 24.8959 36.4629 24.3594 35.8011 24.3594H17.1427C16.4808 24.3593 15.9443 24.8958 15.9443 25.5577Z" fill="#9D6C6C"/>
<path d="M35.8021 26.5602H17.1436C16.5146 26.5602 15.9998 26.0753 15.9502 25.459C15.9476 25.4911 15.9453 25.5234 15.9453 25.5561V26.7763C15.9453 27.4381 16.4818 27.9746 17.1436 27.9746H35.8021C36.4639 27.9746 37.0004 27.4381 37.0004 26.7763C37.0004 26.7763 36.9981 25.4911 36.9955 25.459C36.9459 26.0753 36.4311 26.5602 35.8021 26.5602Z" fill="#8C5E5E"/>
<path d="M3.80878 36.8369H1.95408C1.76316 36.8369 1.61226 36.6749 1.62585 36.4845L2.99919 17.2168H6.64795L4.13506 36.5503C4.11381 36.7143 3.97412 36.8369 3.80878 36.8369Z" fill="#ECB880"/>
<path d="M23.9114 36.8369H25.7661C25.9571 36.8369 26.1079 36.6749 26.0944 36.4845L24.721 17.2168H21.0723L23.5852 36.5503C23.6065 36.7143 23.7461 36.8369 23.9114 36.8369Z" fill="#ECB880"/>
<path d="M0 15.1633V18.2446C0 18.4718 0.184133 18.656 0.411336 18.656H27.3074C27.5345 18.656 27.7187 18.4718 27.7187 18.2446V15.1633C27.7187 14.9362 27.5346 14.752 27.3074 14.752H0.411336C0.184133 14.752 0 14.9361 0 15.1633H0Z" fill="#9D6C6C"/>
<path d="M27.3074 17.2414H0.411336C0.184205 17.2414 0 17.0573 0 16.8301V18.2445C0 18.4717 0.184133 18.6559 0.411336 18.6559H27.3074C27.5346 18.6559 27.7187 18.4717 27.7187 18.2445V16.8301C27.7186 17.0573 27.5345 17.2414 27.3074 17.2414Z" fill="#8C5E5E"/>
</g>
<defs>
<clipPath id="clip0_188_916">
<rect width="37" height="37" fill="white"/>
</clipPath>
</defs>
</svg>
