<svg width="37" height="37" viewBox="0 0 37 37" fill="none" xmlns="http://www.w3.org/2000/svg">
<g clip-path="url(#clip0_188_895)">
<path d="M31.7815 9.38063C31.4936 9.38063 31.1961 9.2663 30.9929 9.06302L27.9367 6.00691C27.7335 5.80363 27.6191 5.52844 27.6191 5.24054C27.6191 4.95263 27.7335 4.65512 27.9367 4.45191L30.9929 1.39471C31.3993 0.98822 32.1192 0.98822 32.5257 1.39471L35.6051 4.47409C35.8083 4.67737 35.9227 4.95256 35.9227 5.24047C35.9227 5.52837 35.8083 5.80363 35.6051 6.00684L32.5479 9.06295C32.3447 9.2663 32.0694 9.38063 31.7815 9.38063Z" fill="#C5C9F7"/>
<path d="M9.83181 22.5672L14.4307 27.166L27.1655 14.4312L22.5666 9.8324L9.83181 22.5672Z" fill="#C5C9F7"/>
<path d="M5.24442 35.9176C4.96706 35.9176 4.68971 35.8117 4.47804 35.6L1.39866 32.5216C1.19538 32.3184 1.08105 32.0432 1.08105 31.7553C1.08105 31.4674 1.19538 31.1921 1.39866 30.9889L4.45586 27.9328C4.87926 27.5094 5.56528 27.5094 5.98868 27.9328L9.06705 31.0111C9.49045 31.4346 9.49045 32.1206 9.06705 32.544L6.01094 35.6001C5.79913 35.8117 5.52177 35.9176 5.24442 35.9176Z" fill="#C5C9F7"/>
<path d="M4.47802 35.6008C4.68976 35.8125 4.96712 35.9184 5.2444 35.9184C5.52168 35.9184 5.79911 35.8125 6.01078 35.6008L9.06689 32.5447C9.49029 32.1213 9.49029 31.4352 9.06689 31.0118L7.5277 29.4727L2.93848 34.0619L4.47802 35.6008Z" fill="#A8AFF1"/>
<path d="M30.9919 9.06417C31.1952 9.26745 31.4926 9.38177 31.7806 9.38177C32.0685 9.38177 32.3437 9.26745 32.5469 9.06417L35.6041 6.00806C35.8074 5.80478 35.9217 5.52959 35.9217 5.24168C35.9217 4.95378 35.8074 4.67852 35.6041 4.47531L34.0644 2.93555L29.4639 7.53611L30.9919 9.06417Z" fill="#A8AFF1"/>
<path d="M24.8666 12.1344L12.1318 24.8691L14.431 27.1683L27.1658 14.4335L24.8666 12.1344Z" fill="#A8AFF1"/>
<path d="M34.0653 16.7313L20.2686 2.93448L22.568 0.634997C23.4147 -0.211666 24.7874 -0.211666 25.634 0.634997L36.3648 11.3658C37.2115 12.2125 37.2115 13.5852 36.3648 14.4318L34.0653 16.7313Z" fill="#1689FC"/>
<path d="M30.9999 21.3296L15.67 5.99976C15.2467 5.57643 15.2467 4.89012 15.67 4.46679L17.203 2.93382C18.0497 2.08716 19.4224 2.08716 20.2689 2.93382L34.0658 16.7307C34.9125 17.5773 34.9125 18.95 34.0658 19.7966L32.5328 21.3296C32.1095 21.7529 31.4232 21.7529 30.9999 21.3296Z" fill="#17ACE8"/>
<path d="M2.93448 20.2695L16.7313 34.0664L14.4319 36.3659C13.5852 37.2126 12.2125 37.2126 11.3659 36.3659L0.634997 25.635C-0.211666 24.7883 -0.211666 23.4156 0.634997 22.569L2.93448 20.2695Z" fill="#1689FC"/>
<path d="M5.99976 15.6691L21.3296 30.9989C21.7529 31.4222 21.7529 32.1085 21.3296 32.5319L19.7966 34.0648C18.95 34.9115 17.5773 34.9115 16.7307 34.0648L2.93382 20.268C2.08716 19.4214 2.08716 18.0487 2.93382 17.2021L4.46679 15.6691C4.89012 15.2457 5.57643 15.2457 5.99976 15.6691Z" fill="#17ACE8"/>
<path d="M11.3671 36.3637C12.2137 37.2103 13.5864 37.2103 14.433 36.3637L16.7325 34.0643L9.83441 27.166L6.00195 30.9985L11.3671 36.3637Z" fill="#136EF1"/>
<path d="M27.1689 9.83245L34.067 16.7307L36.3665 14.4312C37.2131 13.5846 37.2131 12.2119 36.3665 11.3653L31.0014 6L27.1689 9.83245Z" fill="#136EF1"/>
<path d="M16.7311 34.0646C17.5777 34.9112 18.9504 34.9112 19.7971 34.0646L21.3301 32.5315C21.7534 32.1082 21.7534 31.4219 21.3301 30.9985L13.6655 23.334L9.83301 27.1664L16.7311 34.0646Z" fill="#1689FC"/>
<path d="M30.9996 21.3293C31.4229 21.7527 32.1092 21.7527 32.5325 21.3293L34.0655 19.7962C34.9121 18.9496 34.9121 17.5769 34.0655 16.7303L27.1674 9.83203L23.335 13.6645L30.9996 21.3293Z" fill="#1689FC"/>
</g>
<defs>
<clipPath id="clip0_188_895">
<rect width="37" height="37" fill="white"/>
</clipPath>
</defs>
</svg>
