<svg width="37" height="37" viewBox="0 0 37 37" fill="none" xmlns="http://www.w3.org/2000/svg">
<g clip-path="url(#clip0_188_1001)">
<path d="M18.5001 0L17.0547 15.3259L18.5001 37L29.3371 26.1629C32.2319 23.2682 33.826 19.4195 33.826 15.3258C33.8261 6.87513 26.9509 0 18.5001 0V0Z" fill="#29CC5F"/>
<path d="M3.1748 15.3259C3.1748 19.4196 4.76895 23.2682 7.66369 26.163L18.5007 37.0001V0C10.05 0 3.1748 6.87512 3.1748 15.3259Z" fill="#8AE62E"/>
<path d="M18.5001 4.33594L17.0547 15.3256L18.5001 26.3152C24.5599 26.3152 29.4898 21.3853 29.4898 15.3256C29.4898 9.26589 24.5599 4.33594 18.5001 4.33594Z" fill="#198080"/>
<path d="M7.51172 15.3256C7.51172 21.3853 12.4417 26.3152 18.5014 26.3152V4.33594C12.4417 4.33594 7.51172 9.26589 7.51172 15.3256Z" fill="#29CC5F"/>
<path d="M18.5001 6.50391L17.0547 15.3254L18.5001 24.147C23.3644 24.147 27.3217 20.1896 27.3217 15.3254C27.3217 10.4612 23.3644 6.50391 18.5001 6.50391Z" fill="#E6E6F2"/>
<path d="M9.67969 15.3254C9.67969 20.1896 13.637 24.147 18.5012 24.147V6.50391C13.637 6.50391 9.67969 10.4612 9.67969 15.3254Z" fill="#FFF5F5"/>
<path d="M18.5001 8.67188L17.7773 9.79207L18.5001 10.84C19.0978 10.84 19.5841 11.3263 19.5841 11.9241V14.0922H21.7522V11.9241C21.7522 10.1308 20.2933 8.67188 18.5001 8.67188Z" fill="#4429CC"/>
<path d="M15.249 11.9241V14.0922H17.4171V11.9241C17.4171 11.3263 17.9035 10.84 18.5012 10.84V8.67188C16.7079 8.67188 15.249 10.1308 15.249 11.9241Z" fill="#6A4DFF"/>
<path d="M24.7569 13.0098H18.5011L17.0557 16.3342L18.5011 19.6587H23.1483L24.7569 13.0098Z" fill="#FFBB33"/>
<path d="M12.2451 13.0098L13.8537 19.6587H18.501V13.0098H12.2451Z" fill="#FFE14D"/>
</g>
<defs>
<clipPath id="clip0_188_1001">
<rect width="37" height="37" fill="white"/>
</clipPath>
</defs>
</svg>
