<svg width="37" height="37" viewBox="0 0 37 37" fill="none" xmlns="http://www.w3.org/2000/svg">
<g clip-path="url(#clip0_188_1016)">
<path d="M10.8824 23.9414L9.79412 37.0002H0V14.4814L9.79412 10.8086L10.8824 23.9414Z" fill="#DCE6F4"/>
<path d="M36.9995 36.9998H27.2054L26.1172 22.6109L27.2054 10.8086L36.9995 14.4809V36.9998Z" fill="#CEDCF2"/>
<path d="M4.35352 21.7656H6.52999V23.9421H4.35352V21.7656Z" fill="#77D4F5"/>
<path d="M4.35352 26.1172H6.52999V28.2937H4.35352V26.1172Z" fill="#77D4F5"/>
<path d="M4.35352 30.4707H6.52999V32.6472H4.35352V30.4707Z" fill="#77D4F5"/>
<path d="M9.79395 4.35244V36.9995H14.1469L18.4998 27.2054L19.2253 16.71L18.4998 4.35244L14.1469 3.62695L9.79395 4.35244Z" fill="#F1F5FD"/>
<path d="M27.2059 4.35244L23.1431 3.62695L18.5 4.35244V27.2054L22.8529 36.9995H27.2059V4.35244Z" fill="#DCE6F4"/>
<path d="M30.4707 21.7656H32.6472V23.9421H30.4707V21.7656Z" fill="#69B4F4"/>
<path d="M30.4707 26.1172H32.6472V28.2937H30.4707V26.1172Z" fill="#69B4F4"/>
<path d="M30.4707 30.4707H32.6472V32.6472H30.4707V30.4707Z" fill="#69B4F4"/>
<path d="M13.0596 10.8828H15.236V13.0593H13.0596V10.8828Z" fill="#596C76"/>
<path d="M21.7656 10.8828H23.9421V13.0593H21.7656V10.8828Z" fill="#3E4F55"/>
<path d="M17.4111 8.70508V10.8816H18.4994L19.2248 9.79331L18.4994 8.70508H17.4111Z" fill="#596C76"/>
<path d="M18.5 8.70508H19.5882V10.8816H18.5V8.70508Z" fill="#3E4F55"/>
<path d="M15.2344 17.4112C15.2344 19.2114 16.6988 20.6759 18.4991 20.6759L19.2246 17.4112L18.4991 14.1465C16.6988 14.1465 15.2344 15.6111 15.2344 17.4112Z" fill="#596C76"/>
<path d="M18.5 14.1465V20.6759C20.3002 20.6759 21.7647 19.2114 21.7647 17.4112C21.7647 15.6111 20.3002 14.1465 18.5 14.1465Z" fill="#3E4F55"/>
<path d="M14.1465 22.8535V25.03H18.4994L19.2249 23.9418L18.4994 22.8535H14.1465Z" fill="#77D4F5"/>
<path d="M18.5 22.8535H22.8529V25.03H18.5V22.8535Z" fill="#69B4F4"/>
<path d="M14.1465 27.2051V36.9992H18.4994L19.2249 32.1021L18.4994 27.2051H14.1465Z" fill="#69B4F4"/>
<path d="M18.5 27.2051H22.8529V36.9992H18.5V27.2051Z" fill="#6989F4"/>
<path d="M6.5293 0V4.35294H18.4999L19.2254 2.17647L18.4999 0H6.5293Z" fill="#77D4F5"/>
<path d="M18.5 0H30.4706V4.35294H18.5V0Z" fill="#69B4F4"/>
</g>
<defs>
<clipPath id="clip0_188_1016">
<rect width="37" height="37" fill="white"/>
</clipPath>
</defs>
</svg>
