<svg width="37" height="37" viewBox="0 0 37 37" fill="none" xmlns="http://www.w3.org/2000/svg">
<g clip-path="url(#clip0_188_1622)">
<path d="M5.78252 22.5424H11.1784C11.3937 22.5424 11.5681 22.368 11.5681 22.1528V17.8291C11.5681 17.6139 11.3937 17.4395 11.1784 17.4395H0.392586C0.177379 17.4395 0.00292969 17.6139 0.00292969 17.8291V22.1528C0.00292969 22.368 0.177379 22.5424 0.392586 22.5424H5.78252Z" fill="#FFA227"/>
<path d="M23.8953 17.4395H13.1094C12.8942 17.4395 12.7197 17.6139 12.7197 17.8291V22.1528C12.7197 22.368 12.8942 22.5424 13.1094 22.5424H18.4993H23.8953C24.1105 22.5424 24.285 22.368 24.285 22.1528V17.8291C24.285 17.6139 24.1105 17.4395 23.8953 17.4395Z" fill="#C7AC91"/>
<path d="M5.2071 28.4067V24.083C5.2071 23.8678 5.03265 23.6934 4.81744 23.6934H0.389656C0.174449 23.6934 0 23.8678 0 24.083V28.4067C0 28.6219 0.174449 28.7963 0.389656 28.7963H4.81744C5.03265 28.7963 5.2071 28.6219 5.2071 28.4067Z" fill="#C7AC91"/>
<path d="M17.924 28.4086V24.085C17.924 23.8698 17.7496 23.6953 17.5343 23.6953H12.1444H12.144H6.74806C6.53285 23.6953 6.3584 23.8698 6.3584 24.085V28.4086C6.3584 28.6238 6.53285 28.7983 6.74806 28.7983H12.144H12.1444H17.5343C17.7496 28.7983 17.924 28.6238 17.924 28.4086Z" fill="#FFA227"/>
<path d="M30.6418 28.4086V24.085C30.6418 23.8698 30.4674 23.6953 30.2522 23.6953H24.8618H19.4658C19.2506 23.6953 19.0762 23.8698 19.0762 24.085V28.4086C19.0762 28.6238 19.2506 28.7983 19.4658 28.7983H24.8589H24.8618H30.2521C30.4674 28.7983 30.6418 28.6238 30.6418 28.4086Z" fill="#C7AC91"/>
<path d="M0.00195312 34.6625C0.00195312 34.8777 0.176402 35.0522 0.391609 35.0522H5.78161H5.78197H11.1775C11.3927 35.0522 11.5672 34.8777 11.5672 34.6625V30.3389C11.5672 30.1237 11.3927 29.9492 11.1775 29.9492H5.78161H0.391682C0.176475 29.9492 0.00202539 30.1237 0.00202539 30.3389L0.00195312 34.6625Z" fill="#FFA227"/>
<path d="M12.7207 34.6625C12.7207 34.8777 12.8952 35.0522 13.1104 35.0522H18.5004H18.5007H23.8935C24.1087 35.0522 24.2831 34.8777 24.2831 34.6625V30.3389C24.2831 30.1237 24.1087 29.9492 23.8935 29.9492H18.5004H13.1104C12.8952 29.9492 12.7208 30.1237 12.7208 30.3389V34.6625H12.7207Z" fill="#C7AC91"/>
<path d="M37.0003 30.3389C37.0003 30.1237 36.8258 29.9492 36.6106 29.9492H31.2175H25.8272C25.6119 29.9492 25.4375 30.1237 25.4375 30.3389V34.6625C25.4375 34.8777 25.6119 35.0522 25.8272 35.0522H31.2175H36.6106C36.8258 35.0522 37.0003 34.8777 37.0003 34.6625V30.3389Z" fill="#FFA227"/>
<path d="M5.2071 40.9164V36.5928C5.2071 36.3776 5.03265 36.2031 4.81744 36.2031H0.389656C0.174449 36.2031 0 36.3776 0 36.5928V40.9164C0 41.1316 0.174449 41.3061 0.389656 41.3061H4.81744C5.03265 41.3062 5.2071 41.1316 5.2071 40.9164Z" fill="#C7AC91"/>
<path d="M6.3584 36.5928V40.9164C6.3584 41.1316 6.53285 41.3061 6.74805 41.3061H12.1436H12.1441H17.534C17.7492 41.3061 17.9236 41.1316 17.9236 40.9164V36.5928C17.9236 36.3776 17.7492 36.2031 17.534 36.2031H12.1441H12.1436H6.74813C6.53292 36.2031 6.3584 36.3776 6.3584 36.5928Z" fill="#FFA227"/>
<path d="M19.0752 36.5928V40.9164C19.0752 41.1316 19.2496 41.3061 19.4649 41.3061H24.8576H24.8604H30.2508C30.466 41.3061 30.6404 41.1316 30.6404 40.9164V36.5928C30.6404 36.3776 30.466 36.2031 30.2508 36.2031H24.8604H24.8576H19.4649C19.2496 36.2031 19.0752 36.3776 19.0752 36.5928Z" fill="#C7AC91"/>
<path d="M24.2718 34.7477V30.2537C24.2329 30.0796 24.078 29.9492 23.8922 29.9492H22.0713V35.0523H23.8922C24.078 35.0523 24.2329 34.9218 24.2718 34.7477Z" fill="#AF9177"/>
<path d="M23.8939 17.4395H22.083V22.5425H23.8939C24.1091 22.5425 24.2836 22.368 24.2836 22.1528V17.8292C24.2836 17.6139 24.1091 17.4395 23.8939 17.4395Z" fill="#AF9177"/>
<path d="M11.179 17.4395H9.36816V22.5425H11.179C11.3942 22.5425 11.5687 22.368 11.5687 22.1528V17.8292C11.5687 17.6139 11.3942 17.4395 11.179 17.4395Z" fill="#F78B0B"/>
<path d="M17.5354 23.6934H15.7246V28.7964H17.5354C17.7506 28.7964 17.9251 28.6219 17.9251 28.4067V24.0831C17.9251 23.8678 17.7506 23.6934 17.5354 23.6934Z" fill="#F78B0B"/>
<path d="M17.5354 36.2031H15.7246V41.3062H17.5354C17.7506 41.3062 17.9251 41.1317 17.9251 40.9165V36.5929C17.9251 36.3776 17.7506 36.2031 17.5354 36.2031Z" fill="#F78B0B"/>
<path d="M11.179 29.9492H9.36816V35.0523H11.179C11.3942 35.0523 11.5687 34.8778 11.5687 34.6626V30.3389C11.5687 30.1237 11.3942 29.9492 11.179 29.9492Z" fill="#F78B0B"/>
<path d="M36.6107 29.9492H34.7998V35.0523H36.6107C36.8259 35.0523 37.0004 34.8778 37.0004 34.6626V30.3389C37.0004 30.1237 36.8259 29.9492 36.6107 29.9492Z" fill="#F78B0B"/>
<path d="M30.2513 23.6953H28.4404V28.7984H30.2513C30.4665 28.7984 30.641 28.6239 30.641 28.4087V24.085C30.641 23.8698 30.4665 23.6953 30.2513 23.6953Z" fill="#AF9177"/>
<path d="M30.2513 36.2051H28.4404V41.3081H30.2513C30.4665 41.3081 30.641 41.1337 30.641 40.9185V36.5948C30.641 36.3796 30.4665 36.2051 30.2513 36.2051Z" fill="#AF9177"/>
<path d="M4.81669 36.2051H3.00586V41.3081H4.81669C5.0319 41.3081 5.20635 41.1337 5.20635 40.9185V36.5948C5.20635 36.3796 5.0319 36.2051 4.81669 36.2051Z" fill="#AF9177"/>
<path d="M4.81669 23.6953H3.00586V28.7984H4.81669C5.0319 28.7984 5.20635 28.6239 5.20635 28.4087V24.085C5.20635 23.8698 5.0319 23.6953 4.81669 23.6953Z" fill="#AF9177"/>
</g>
<defs>
<clipPath id="clip0_188_1622">
<rect width="37" height="37" fill="white"/>
</clipPath>
</defs>
</svg>
