<svg width="37" height="37" viewBox="0 0 37 37" fill="none" xmlns="http://www.w3.org/2000/svg">
<g clip-path="url(#clip0_188_1388)">
<path d="M35.7242 20.4138V16.5862C36.4279 16.5841 36.998 16.0141 37 15.3103V11.4827C36.998 10.7789 36.4279 10.2089 35.7242 10.2069V6.37932C36.4279 6.37722 36.998 5.80727 37 5.10347V1.27585C36.998 0.572055 36.4279 0.00202344 35.7242 0H29.9828C29.279 0.00202344 28.709 0.572055 28.7069 1.27585H24.8793C24.8772 0.572055 24.3073 0.00202344 23.6035 0H1.27585C0.572055 0.00202344 0.00202344 0.572055 0 1.27585V5.10347C0.0020957 5.80727 0.572055 6.3773 1.27585 6.37932V10.2069C0.572055 10.209 0.00202344 10.779 0 11.4828V15.3104C0.0020957 16.0142 0.572055 16.5842 1.27585 16.5863V20.4139C0.572055 20.4158 0.00202344 20.9859 0 21.6897V25.5173C0.0020957 26.2211 0.572055 26.791 1.27585 26.7931V30.6208C0.572055 30.6228 0.00202344 31.1927 0 31.8965V35.7242C0.0020957 36.4279 0.572055 36.998 1.27585 37H7.01721C7.721 36.9979 8.29104 36.4279 8.29306 35.7242H12.1207C12.1228 36.4279 12.6927 36.998 13.3965 37H35.7242C36.4279 36.9979 36.998 36.4279 37 35.7242V31.8965C36.998 31.1927 36.4279 30.6227 35.7242 30.6207V26.7931C36.4279 26.791 36.998 26.221 37 25.5172V21.6896C36.998 20.9859 36.4279 20.4158 35.7242 20.4138Z" fill="#FCCC88"/>
<path d="M1.27585 0H23.6035C24.3081 0 24.8793 0.571187 24.8793 1.27585V5.10347C24.8793 5.80813 24.3081 6.37932 23.6035 6.37932H1.27585C0.571187 6.37932 0 5.80806 0 5.10347V1.27585C0 0.571187 0.571187 0 1.27585 0Z" fill="#CD4F38"/>
<path d="M29.9829 0H35.7242C36.4288 0 37.0001 0.571187 37.0001 1.27585V5.10347C37.0001 5.80813 36.4288 6.37932 35.7242 6.37932H29.9829C29.2782 6.37932 28.707 5.80813 28.707 5.10347V1.27585C28.707 0.571187 29.2782 0 29.9829 0Z" fill="#DC6C33"/>
<path d="M13.396 30.6211H35.7236C36.4283 30.6211 36.9994 31.1924 36.9994 31.8969V35.7246C36.9994 36.4292 36.4282 37.0004 35.7236 37.0004H13.396C12.6913 37.0004 12.1201 36.4292 12.1201 35.7246V31.8969C12.1201 31.1924 12.6914 30.6211 13.396 30.6211Z" fill="#CD4F38"/>
<path d="M1.27585 30.6211H7.01721C7.72187 30.6211 8.29306 31.1924 8.29306 31.8969V35.7246C8.29306 36.4292 7.72187 37.0004 7.01721 37.0004H1.27585C0.571187 37.0004 0 36.4292 0 35.7246V31.8969C0 31.1924 0.571187 30.6211 1.27585 30.6211Z" fill="#DC6C33"/>
<path d="M1.27585 20.4141H23.6035C24.3081 20.4141 24.8793 20.9853 24.8793 21.6899V25.5175C24.8793 26.2222 24.3081 26.7934 23.6035 26.7934H1.27585C0.571187 26.7934 0 26.2221 0 25.5175V21.6898C0 20.9852 0.571187 20.4141 1.27585 20.4141Z" fill="#DC6C33"/>
<path d="M29.9829 20.4141H35.7242C36.4289 20.4141 37.0001 20.9853 37.0001 21.6899V25.5175C37.0001 26.2222 36.4288 26.7934 35.7242 26.7934H29.9829C29.2782 26.7934 28.707 26.2222 28.707 25.5175V21.6899C28.707 20.9852 29.2782 20.4141 29.9829 20.4141Z" fill="#CD4F38"/>
<path d="M13.396 10.207H35.7236C36.4283 10.207 36.9994 10.7782 36.9994 11.4829V15.3105C36.9994 16.0152 36.4282 16.5864 35.7236 16.5864H13.396C12.6913 16.5864 12.1201 16.0152 12.1201 15.3105V11.4829C12.1201 10.7783 12.6914 10.207 13.396 10.207Z" fill="#ED634C"/>
<path d="M1.27585 10.207H7.01721C7.72187 10.207 8.29306 10.7782 8.29306 11.4829V15.3105C8.29306 16.0152 7.72187 16.5864 7.01721 16.5864H1.27585C0.571187 16.5864 0 16.0152 0 15.3105V11.4829C0 10.7783 0.571187 10.207 1.27585 10.207Z" fill="#EC9130"/>
<path d="M1.27585 0H23.6035C24.3081 0 24.8793 0.571187 24.8793 1.27585V5.10347C24.8793 5.80813 24.3081 6.37932 23.6035 6.37932H1.27585C0.571187 6.37932 0 5.80806 0 5.10347V1.27585C0 0.571187 0.571187 0 1.27585 0Z" fill="#CD4F38"/>
<path d="M29.9829 0H35.7242C36.4288 0 37.0001 0.571187 37.0001 1.27585V5.10347C37.0001 5.80813 36.4288 6.37932 35.7242 6.37932H29.9829C29.2782 6.37932 28.707 5.80813 28.707 5.10347V1.27585C28.707 0.571187 29.2782 0 29.9829 0Z" fill="#EC9130"/>
<path d="M13.396 30.6211H35.7236C36.4283 30.6211 36.9994 31.1924 36.9994 31.8969V35.7246C36.9994 36.4292 36.4282 37.0004 35.7236 37.0004H13.396C12.6913 37.0004 12.1201 36.4292 12.1201 35.7246V31.8969C12.1201 31.1924 12.6914 30.6211 13.396 30.6211Z" fill="#CD4F38"/>
<path d="M1.27585 30.6211H7.01721C7.72187 30.6211 8.29306 31.1924 8.29306 31.8969V35.7246C8.29306 36.4292 7.72187 37.0004 7.01721 37.0004H1.27585C0.571187 37.0004 0 36.4292 0 35.7246V31.8969C0 31.1924 0.571187 30.6211 1.27585 30.6211Z" fill="#DC6C33"/>
<path d="M1.27585 20.4141H23.6035C24.3081 20.4141 24.8793 20.9853 24.8793 21.6899V25.5175C24.8793 26.2222 24.3081 26.7934 23.6035 26.7934H1.27585C0.571187 26.7934 0 26.2221 0 25.5175V21.6898C0 20.9852 0.571187 20.4141 1.27585 20.4141Z" fill="#DC6C33"/>
<path d="M29.9829 20.4141H35.7242C36.4289 20.4141 37.0001 20.9853 37.0001 21.6899V25.5175C37.0001 26.2222 36.4288 26.7934 35.7242 26.7934H29.9829C29.2782 26.7934 28.707 26.2222 28.707 25.5175V21.6899C28.707 20.9852 29.2782 20.4141 29.9829 20.4141Z" fill="#CD4F38"/>
<path d="M13.396 10.207H35.7236C36.4283 10.207 36.9994 10.7782 36.9994 11.4829V15.3105C36.9994 16.0152 36.4282 16.5864 35.7236 16.5864H13.396C12.6913 16.5864 12.1201 16.0152 12.1201 15.3105V11.4829C12.1201 10.7783 12.6914 10.207 13.396 10.207Z" fill="#DC6C33"/>
<path d="M1.27585 10.207H7.01721C7.72187 10.207 8.29306 10.7782 8.29306 11.4829V15.3105C8.29306 16.0152 7.72187 16.5864 7.01721 16.5864H1.27585C0.571187 16.5864 0 16.0152 0 15.3105V11.4829C0 10.7783 0.571187 10.207 1.27585 10.207Z" fill="#EC9130"/>
</g>
<defs>
<clipPath id="clip0_188_1388">
<rect width="37" height="37" fill="white"/>
</clipPath>
</defs>
</svg>
