<svg width="37" height="37" viewBox="0 0 37 37" fill="none" xmlns="http://www.w3.org/2000/svg">
<g clip-path="url(#clip0_188_1576)">
<path d="M21.7174 37H1.20655C0.540186 37 0 36.4598 0 35.7935V1.20655C0 0.540186 0.540186 0 1.20655 0H20.5109C21.1772 0 21.7174 0.540186 21.7174 1.20655V37Z" fill="#E7ECFD"/>
<path d="M20.5106 0H10.8584V37H21.7171V1.20655C21.7171 0.540186 21.1769 0 20.5106 0Z" fill="#DAE0F0"/>
<path d="M35.3916 37.0005H21.7178V5.63086H35.7939C36.4601 5.63086 37.0004 6.17105 37.0004 6.83741V35.4423L35.3916 37.0005Z" fill="#B8BDC9"/>
<path d="M6.0337 9.65258C5.36762 9.65258 4.82715 9.11211 4.82715 8.44603V6.8374C4.82715 6.17133 5.36762 5.63086 6.0337 5.63086C6.69977 5.63086 7.24024 6.17133 7.24024 6.8374V8.44611C7.24024 9.11218 6.69977 9.65258 6.0337 9.65258Z" fill="#95D3FC"/>
<path d="M6.0337 16.8925C5.36762 16.8925 4.82715 16.352 4.82715 15.686V13.273C4.82715 12.6069 5.36762 12.0664 6.0337 12.0664C6.69977 12.0664 7.24024 12.6069 7.24024 13.273V15.686C7.24024 16.3521 6.69977 16.8925 6.0337 16.8925Z" fill="#95D3FC"/>
<path d="M15.6841 9.65258C15.018 9.65258 14.4775 9.11211 14.4775 8.44603V6.8374C14.4775 6.17133 15.018 5.63086 15.6841 5.63086C16.3502 5.63086 16.8906 6.17133 16.8906 6.8374V8.44611C16.8906 9.11218 16.3502 9.65258 15.6841 9.65258Z" fill="#5AAAE7"/>
<path d="M15.6841 16.8925C15.018 16.8925 14.4775 16.352 14.4775 15.686V13.273C14.4775 12.6069 15.018 12.0664 15.6841 12.0664C16.3502 12.0664 16.8906 12.6069 16.8906 13.273V15.686C16.8906 16.3521 16.3502 16.8925 15.6841 16.8925Z" fill="#5AAAE7"/>
<path d="M15.6841 25.141C15.018 25.141 14.4775 24.6005 14.4775 23.9345V20.5112C14.4775 19.8452 15.018 19.3047 15.6841 19.3047C16.3502 19.3047 16.8906 19.8452 16.8906 20.5112V23.9345C16.8906 24.6005 16.3502 25.141 15.6841 25.141Z" fill="#5AAAE7"/>
<path d="M30.9659 12.8701H25.3355C24.6694 12.8701 24.1289 12.3297 24.1289 11.6636C24.1289 10.9975 24.6694 10.457 25.3355 10.457H30.9659C31.632 10.457 32.1724 10.9975 32.1724 11.6636C32.1724 12.3297 31.632 12.8701 30.9659 12.8701Z" fill="#5AAAE7"/>
<path d="M30.9659 17.6963H25.3355C24.6694 17.6963 24.1289 17.1558 24.1289 16.4898C24.1289 15.8237 24.6694 15.2832 25.3355 15.2832H30.9659C31.632 15.2832 32.1724 15.8237 32.1724 16.4898C32.1724 17.1558 31.632 17.6963 30.9659 17.6963Z" fill="#5AAAE7"/>
<path d="M30.9659 22.5225H25.3355C24.6694 22.5225 24.1289 21.982 24.1289 21.3159C24.1289 20.6498 24.6694 20.1094 25.3355 20.1094H30.9659C31.632 20.1094 32.1724 20.6498 32.1724 21.3159C32.1724 21.9821 31.632 22.5225 30.9659 22.5225Z" fill="#5AAAE7"/>
<path d="M6.0337 24.1308C5.36762 24.1308 4.82715 23.5903 4.82715 22.9243V20.5112C4.82715 19.8452 5.36762 19.3047 6.0337 19.3047C6.69977 19.3047 7.24024 19.8452 7.24024 20.5112V22.9243C7.24024 23.5904 6.69977 24.1308 6.0337 24.1308Z" fill="#95D3FC"/>
<path d="M6.0337 31.3691C5.36762 31.3691 4.82715 30.8286 4.82715 30.1625V27.7495C4.82715 27.0834 5.36762 26.543 6.0337 26.543C6.69977 26.543 7.24024 27.0834 7.24024 27.7495V30.1625C7.24024 30.8286 6.69977 31.3691 6.0337 31.3691Z" fill="#95D3FC"/>
<path d="M10.8599 32.3855C10.1938 32.3855 9.65332 31.845 9.65332 31.179V27.7495C9.65332 27.0834 10.1938 26.543 10.8599 26.543C11.5259 26.543 12.0664 27.0834 12.0664 27.7495V31.179C12.0664 31.8451 11.5259 32.3855 10.8599 32.3855Z" fill="#95D3FC"/>
<path d="M12.0649 31.179V27.7495C12.0649 27.0834 11.5245 26.543 10.8584 26.543V32.3855C11.5245 32.3855 12.0649 31.8451 12.0649 31.179Z" fill="#5AAAE7"/>
<path d="M10.8589 25.1473C10.1928 25.1473 9.65234 24.6068 9.65234 23.9407V20.5112C9.65234 19.8452 10.1928 19.3047 10.8589 19.3047C11.525 19.3047 12.0654 19.8452 12.0654 20.5112V23.9407C12.0654 24.6068 11.525 25.1473 10.8589 25.1473Z" fill="#95D3FC"/>
<path d="M12.0649 23.9407V20.5112C12.0649 19.8452 11.5245 19.3047 10.8584 19.3047V25.1472C11.5245 25.1473 12.0649 24.6068 12.0649 23.9407Z" fill="#5AAAE7"/>
<path d="M10.8589 16.8906C10.1928 16.8906 9.65234 16.3501 9.65234 15.684V13.271C9.65234 12.6049 10.1928 12.0645 10.8589 12.0645C11.525 12.0645 12.0654 12.6049 12.0654 13.271V15.684C12.0654 16.3502 11.525 16.8906 10.8589 16.8906Z" fill="#95D3FC"/>
<path d="M12.0649 15.684V13.271C12.0649 12.6049 11.5245 12.0645 10.8584 12.0645V16.8906C11.5245 16.8906 12.0649 16.3502 12.0649 15.684Z" fill="#5AAAE7"/>
<path d="M10.8589 9.65258C10.1928 9.65258 9.65234 9.11211 9.65234 8.44603V6.8374C9.65234 6.17133 10.1928 5.63086 10.8589 5.63086C11.525 5.63086 12.0654 6.17133 12.0654 6.8374V8.44611C12.0654 9.11218 11.525 9.65258 10.8589 9.65258Z" fill="#95D3FC"/>
<path d="M12.0649 8.44611V6.8374C12.0649 6.17133 11.5245 5.63086 10.8584 5.63086V9.65258C11.5245 9.65258 12.0649 9.11218 12.0649 8.44611Z" fill="#5AAAE7"/>
<path d="M37.0003 34.5797V35.7942C37.0003 36.4538 36.5337 37.0008 35.6007 37.0008H9.45138C8.93663 37.0008 8.46206 36.6791 8.30113 36.1643C7.77828 34.5555 8.08397 32.971 8.96069 31.7484C9.98224 30.3568 11.7357 29.5686 13.5053 29.8018C14.4464 28.1368 16.3848 27.1234 18.3314 27.3888C19.1197 26.0214 20.3825 25.2331 21.7177 25.008C21.9831 24.9597 22.2566 24.9355 22.522 24.9355C24.1548 24.9355 25.7877 25.756 26.7127 27.3888C28.6592 27.1234 30.5977 28.1368 31.5388 29.8018C32.6005 29.6571 33.6784 29.8903 34.5872 30.4131C36.1879 31.3462 37.0003 32.9549 37.0003 34.5797Z" fill="#96CA3F"/>
<path d="M37.0004 34.5797V35.7942C37.0004 36.4538 36.5338 37.0008 35.6008 37.0008H21.7178V25.008C21.9832 24.9597 22.2567 24.9355 22.5221 24.9355C24.1549 24.9355 25.7878 25.756 26.7128 27.3888C28.6593 27.1234 30.5978 28.1368 31.5389 29.8018C32.6006 29.6571 33.6785 29.8903 34.5873 30.4131C36.188 31.3462 37.0004 32.9549 37.0004 34.5797Z" fill="#86B639"/>
</g>
<defs>
<clipPath id="clip0_188_1576">
<rect width="37" height="37" fill="white"/>
</clipPath>
</defs>
</svg>
