<svg width="37" height="37" viewBox="0 0 37 37" fill="none" xmlns="http://www.w3.org/2000/svg">
<path d="M18.4989 0H18.2158L12.1309 12.3334H18.4989L19.2216 6.46777L18.4989 0Z" fill="#FF7037"/>
<path d="M18.5008 12.334H12.1328L6.04785 24.6673H18.5008L19.2235 18.6813L18.5008 12.334Z" fill="#FFE377"/>
<path d="M6.04704 24.666L0 36.9226V36.9994H18.5L19.2227 30.4593L18.5 24.666H6.04704Z" fill="#9DE1F7"/>
<path d="M30.953 24.666H18.5V36.9994H37V36.9226L30.953 24.666Z" fill="#2FBFEF"/>
<path d="M18.5 24.6673H30.953L24.868 12.334H18.5V24.6673Z" fill="#FFB555"/>
<path d="M24.868 12.3334L18.7831 0H18.5V12.3334H24.868Z" fill="#FF4C04"/>
<path d="M18.5 25.75H0V23.582H18.5L19.2227 24.666L18.5 25.75Z" fill="#607882"/>
<path d="M18.5 13.418H0V11.25H18.5L19.2227 12.334L18.5 13.418Z" fill="#607882"/>
<path d="M18.5 11.25H37V13.418H18.5V11.25Z" fill="#495959"/>
<path d="M18.5 23.582H37V25.75H18.5V23.582Z" fill="#495959"/>
</svg>
