<svg width="37" height="37" viewBox="0 0 37 37" fill="none" xmlns="http://www.w3.org/2000/svg">
<g clip-path="url(#clip0_188_1490)">
<path d="M29.8304 35.4571H19.0352V7.38477H30.8424V30.8426L29.8304 32.3847V35.4571Z" fill="#EB8D00"/>
<path d="M20.9021 3.08594H19.0353L17.4932 15.4151L19.0356 35.0926L20.9021 34.8306V3.08594Z" fill="#FDAE02"/>
<path d="M4.28964 0V3.08653H2.5293V34.8312L12.4811 36.0126L19.0355 35.0931V0H4.28964Z" fill="#FDCB02"/>
<path d="M7.92676 7.41016H10.0953V10.4944H7.92676V7.41016Z" fill="#F3FFFB"/>
<path d="M13.3242 7.41016H15.4928V10.4944H13.3242V7.41016Z" fill="#F3FFFB"/>
<path d="M7.92676 13.5781H10.0953V16.6624H7.92676V13.5781Z" fill="#F3FFFB"/>
<path d="M13.3242 13.5781H15.4928V16.6624H13.3242V13.5781Z" fill="#F3FFFB"/>
<path d="M7.92676 19.748H10.0953V22.8323H7.92676V19.748Z" fill="#F3FFFB"/>
<path d="M13.3242 19.748H15.4928V22.8323H13.3242V19.748Z" fill="#F3FFFB"/>
<path d="M7.92676 25.916H10.0953V29.0003H7.92676V25.916Z" fill="#F3FFFB"/>
<path d="M13.3242 25.916H15.4928V29.0003H13.3242V25.916Z" fill="#F3FFFB"/>
<path d="M23.6855 13.5781H25.8541V16.6624H23.6855V13.5781Z" fill="#FFD27B"/>
<path d="M23.6855 19.748H25.8541V22.8323H23.6855V19.748Z" fill="#FFD27B"/>
<path d="M28.6797 30.4707H30.8485V35.8683H28.6797V30.4707Z" fill="#8F4D24"/>
<path d="M29.7644 33.048C27.1535 33.048 25.0293 30.9238 25.0293 28.3129C25.0293 25.7021 27.1535 23.5781 29.7644 23.5781C32.3753 23.5781 34.4992 25.7021 34.4992 28.3129C34.4992 30.9238 32.3753 33.048 29.7644 33.048Z" fill="#A8D32A"/>
<path d="M34.4575 34.832H19.0356L18.2646 36.2418L19.0356 37.0008H34.4575V34.832Z" fill="#8D9CA8"/>
<path d="M2.5293 34.832H19.0352V37.0008H2.5293V34.832Z" fill="#AAB8C7"/>
</g>
<defs>
<clipPath id="clip0_188_1490">
<rect width="37" height="37" fill="white"/>
</clipPath>
</defs>
</svg>
