<svg width="37" height="37" viewBox="0 0 37 37" fill="none" xmlns="http://www.w3.org/2000/svg">
<path d="M3.82754 11.4824H1.27594C0.572197 11.4844 0.00197602 12.0543 0 12.7581V32.534C0.00197602 33.2378 0.572197 33.8077 1.27594 33.81H35.7241C36.4278 33.8077 36.998 33.2378 37 32.534V12.7581C36.998 12.0543 36.4278 11.4844 35.7241 11.4824H3.82754Z" fill="#BDC3C7"/>
<path d="M4.84061 11.4824H2.46488C1.78569 11.5092 1.25528 12.0789 1.27701 12.7581V32.534C1.25528 33.2132 1.78569 33.7829 2.46488 33.81H34.5373C35.2164 33.7829 35.7469 33.2132 35.7251 32.534V12.7581C35.7469 12.0789 35.2164 11.5092 34.5373 11.4824H4.84061Z" fill="#E6E7E8"/>
<path d="M3.18973 31.8959C2.83743 31.8959 2.55176 31.6103 2.55176 31.258V15.3098C2.55176 14.9576 2.83743 14.6719 3.18973 14.6719C3.54202 14.6719 3.8277 14.9576 3.8277 15.3098V31.258C3.8277 31.6103 3.54202 31.8959 3.18973 31.8959Z" fill="#BDC3C7"/>
<path d="M5.74149 31.8959C5.38919 31.8959 5.10352 31.6103 5.10352 31.258V15.3098C5.10352 14.9576 5.38919 14.6719 5.74149 14.6719C6.09378 14.6719 6.37946 14.9576 6.37946 15.3098V31.258C6.37946 31.6103 6.09378 31.8959 5.74149 31.8959Z" fill="#BDC3C7"/>
<path d="M8.29324 31.8959C7.94095 31.8959 7.65527 31.6103 7.65527 31.258V15.3098C7.65527 14.9576 7.94095 14.6719 8.29324 14.6719C8.64554 14.6719 8.93121 14.9576 8.93121 15.3098V31.258C8.93121 31.6103 8.64554 31.8959 8.29324 31.8959Z" fill="#BDC3C7"/>
<path d="M10.845 31.8959C10.4927 31.8959 10.207 31.6103 10.207 31.258V15.3098C10.207 14.9576 10.4927 14.6719 10.845 14.6719C11.1973 14.6719 11.483 14.9576 11.483 15.3098V31.258C11.483 31.6103 11.1973 31.8959 10.845 31.8959Z" fill="#BDC3C7"/>
<path d="M13.3968 31.8959C13.0445 31.8959 12.7588 31.6103 12.7588 31.258V15.3098C12.7588 14.9576 13.0445 14.6719 13.3968 14.6719C13.7491 14.6719 14.0347 14.9576 14.0347 15.3098V31.258C14.0347 31.6103 13.7491 31.8959 13.3968 31.8959Z" fill="#BDC3C7"/>
<path d="M15.9485 31.8959C15.5959 31.8959 15.3105 31.6103 15.3105 31.258V15.3098C15.3105 14.9576 15.5959 14.6719 15.9485 14.6719C16.3008 14.6719 16.5862 14.9576 16.5862 15.3098V31.258C16.5862 31.6103 16.3008 31.8959 15.9485 31.8959Z" fill="#BDC3C7"/>
<path d="M18.5003 31.8959C18.148 31.8959 17.8623 31.6103 17.8623 31.258V15.3098C17.8623 14.9576 18.148 14.6719 18.5003 14.6719C18.8526 14.6719 19.1382 14.9576 19.1382 15.3098V31.258C19.1382 31.6103 18.8526 31.8959 18.5003 31.8959Z" fill="#BDC3C7"/>
<path d="M21.0518 31.8959C20.6995 31.8959 20.4141 31.6103 20.4141 31.258V15.3098C20.4141 14.9576 20.6995 14.6719 21.0518 14.6719C21.4043 14.6719 21.6897 14.9576 21.6897 15.3098V31.258C21.6897 31.6103 21.4043 31.8959 21.0518 31.8959Z" fill="#BDC3C7"/>
<path d="M23.6038 31.8959C23.2515 31.8959 22.9658 31.6103 22.9658 31.258V15.3098C22.9658 14.9576 23.2515 14.6719 23.6038 14.6719C23.9561 14.6719 24.2418 14.9576 24.2418 15.3098V31.258C24.2418 31.6103 23.9561 31.8959 23.6038 31.8959Z" fill="#BDC3C7"/>
<path d="M26.1555 31.8959C25.8033 31.8959 25.5176 31.6103 25.5176 31.258V15.3098C25.5176 14.9576 25.8033 14.6719 26.1555 14.6719C26.5078 14.6719 26.7935 14.9576 26.7935 15.3098V31.258C26.7935 31.6103 26.5078 31.8959 26.1555 31.8959Z" fill="#BDC3C7"/>
<path d="M28.7073 31.8959C28.355 31.8959 28.0693 31.6103 28.0693 31.258V15.3098C28.0693 14.9576 28.355 14.6719 28.7073 14.6719C29.0596 14.6719 29.3453 14.9576 29.3453 15.3098V31.258C29.3453 31.6103 29.0596 31.8959 28.7073 31.8959Z" fill="#BDC3C7"/>
<path d="M31.2591 31.8959C30.9068 31.8959 30.6211 31.6103 30.6211 31.258V15.3098C30.6211 14.9576 30.9068 14.6719 31.2591 14.6719C31.6114 14.6719 31.897 14.9576 31.897 15.3098V31.258C31.897 31.6103 31.6114 31.8959 31.2591 31.8959Z" fill="#BDC3C7"/>
<path d="M33.8108 31.8959C33.4585 31.8959 33.1729 31.6103 33.1729 31.258V15.3098C33.1729 14.9576 33.4585 14.6719 33.8108 14.6719C34.1631 14.6719 34.4488 14.9576 34.4488 15.3098V31.258C34.4488 31.6103 34.1631 31.8959 33.8108 31.8959Z" fill="#BDC3C7"/>
<path d="M2.55176 33.8105H5.10364V35.7242C5.10364 36.4288 4.53229 37.0001 3.8277 37.0001C3.12311 37.0001 2.55176 36.4288 2.55176 35.7242V33.8105Z" fill="#95A5A5"/>
<path d="M31.8965 33.8105H34.4484V35.7242C34.4484 36.4288 33.877 37.0001 33.1724 37.0001C32.4678 37.0001 31.8965 36.4288 31.8965 35.7242V33.8105Z" fill="#95A5A5"/>
<path d="M3.76054 5.10348H2.5724C2.30902 5.09416 2.07416 4.93495 1.96858 4.69331C1.86301 4.45196 1.90507 4.17136 2.07726 3.9715L5.24622 0.235146C5.36733 0.08638 5.5494 0 5.74136 0C5.93331 0 6.11511 0.08638 6.23649 0.235146L9.40545 3.9715C9.57736 4.17136 9.61971 4.45196 9.51413 4.69331C9.40855 4.93495 9.17369 5.09416 8.91032 5.10348H7.65498V12.1206C7.65414 12.4726 7.36903 12.7577 7.01701 12.7586H4.46542C4.1134 12.7577 3.82858 12.4726 3.82745 12.1206V5.10348H3.76054Z" fill="#E64C3C"/>
<path d="M29.2793 5.10348H28.0909C27.8275 5.09416 27.5926 4.93495 27.4871 4.69331C27.3815 4.45196 27.4238 4.17136 27.5957 3.9715L30.7647 0.235146C30.8861 0.08638 31.0679 0 31.2598 0C31.4518 0 31.6339 0.08638 31.755 0.235146L34.9239 3.9715C35.0961 4.17136 35.1382 4.45196 35.0326 4.69331C34.927 4.93495 34.6922 5.09416 34.4288 5.10348H33.1737V12.1206C33.1726 12.4726 32.8878 12.7577 32.5358 12.7586H29.9842C29.6322 12.7577 29.3471 12.4726 29.3462 12.1206V5.10348H29.2793Z" fill="#E64C3C"/>
<path d="M13.3963 9.56971C13.14 9.56971 12.9085 9.41615 12.8085 9.17987C12.7089 8.9436 12.7603 8.67062 12.939 8.48686C13.2619 8.06766 13.4242 7.54656 13.3963 7.01783C13.4248 6.48882 13.2622 5.96716 12.9378 5.54796C12.3755 4.89446 12.0834 4.05155 12.1203 3.19029C12.0831 2.32565 12.3783 1.47935 12.9452 0.825571C13.1055 0.659868 13.3426 0.593248 13.5656 0.651681C13.7886 0.710115 13.9628 0.884286 14.0213 1.10729C14.0797 1.3303 14.0131 1.56742 13.8474 1.72748C13.5284 2.14639 13.3686 2.66467 13.3963 3.19029C13.3678 3.71958 13.5306 4.24125 13.8547 4.66017C14.417 5.31366 14.7092 6.15685 14.6722 7.01783C14.7095 7.88276 14.4145 8.72878 13.8474 9.38284C13.728 9.50253 13.5656 9.56999 13.3963 9.56971Z" fill="#C03A2B"/>
<path d="M18.4998 9.56971C18.2435 9.56971 18.012 9.41615 17.9121 9.17987C17.8124 8.9436 17.8638 8.67062 18.0425 8.48686C18.3654 8.06766 18.5277 7.54656 18.4998 7.01783C18.5283 6.48882 18.3657 5.96716 18.0414 5.54796C17.479 4.89446 17.1869 4.05155 17.2238 3.19029C17.1866 2.32565 17.4816 1.47935 18.0487 0.825571C18.209 0.659868 18.4462 0.593248 18.6692 0.651681C18.8922 0.710115 19.0663 0.884286 19.1248 1.10729C19.1832 1.3303 19.1166 1.56742 18.9509 1.72748C18.6319 2.14639 18.4721 2.66467 18.4998 3.19029C18.4713 3.71958 18.6339 4.24125 18.9582 4.66017C19.5205 5.31366 19.8127 6.15685 19.7757 7.01783C19.813 7.88276 19.518 8.72878 18.9509 9.38284C18.8312 9.50253 18.6689 9.56999 18.4998 9.56971Z" fill="#C03A2B"/>
<path d="M23.6033 9.56971C23.347 9.56971 23.1152 9.41615 23.0156 9.17987C22.9159 8.9436 22.9673 8.67062 23.146 8.48686C23.4689 8.06766 23.6312 7.54656 23.6033 7.01783C23.6318 6.48882 23.4689 5.96716 23.1449 5.54796C22.5826 4.89446 22.2904 4.05155 22.3274 3.19029C22.2901 2.32565 22.5851 1.47935 23.1522 0.825571C23.3125 0.659868 23.5497 0.593248 23.7727 0.651681C23.9957 0.710115 24.1699 0.884286 24.2283 1.10729C24.2867 1.3303 24.2201 1.56742 24.0544 1.72748C23.7354 2.14639 23.5756 2.66467 23.6033 3.19029C23.5748 3.71958 23.7374 4.24125 24.0617 4.66017C24.6241 5.31366 24.9162 6.15685 24.8792 7.01783C24.9165 7.88276 24.6212 8.72878 24.0544 9.38284C23.9347 9.50253 23.7724 9.56999 23.6033 9.56971Z" fill="#C03A2B"/>
</svg>
