<svg width="37" height="37" viewBox="0 0 37 37" fill="none" xmlns="http://www.w3.org/2000/svg">
<g clip-path="url(#clip0_188_1605)">
<path d="M35.3909 14.4774H25.7388C25.0727 14.4774 24.5322 13.9374 24.5322 13.2709V8.44483C24.5322 7.77832 25.0727 7.23828 25.7388 7.23828H35.3909C36.057 7.23828 36.5975 7.77832 36.5975 8.44483V13.2709C36.5975 13.9374 36.057 14.4774 35.3909 14.4774Z" fill="#AEB3BF"/>
<path d="M8.84907 19.3035H4.02295C3.35688 19.3035 2.81641 18.7634 2.81641 18.0969V10.8578C2.81641 8.86195 4.44007 7.23828 6.43597 7.23828H16.0881C16.7542 7.23828 17.2947 7.77832 17.2947 8.44483V13.2709C17.2947 13.9374 16.7542 14.4775 16.0881 14.4775H10.0555V18.0971C10.0555 18.7634 9.51514 19.3035 8.84907 19.3035Z" fill="#C4C9D6"/>
<path d="M8.84766 19.3035C9.51374 19.3035 10.0542 18.7634 10.0542 18.0969V14.4773H16.0868C16.7529 14.4773 17.2933 13.9373 17.2933 13.2708V8.44483C17.2933 7.77832 16.7529 7.23828 16.0868 7.23828H6.43457V19.3035H8.84766Z" fill="#AEB3BF"/>
<path d="M35.3911 19.3034C34.725 19.3034 34.1846 18.7634 34.1846 18.0969V3.61866C34.1846 2.95215 34.725 2.41211 35.3911 2.41211C36.0572 2.41211 36.5977 2.95215 36.5977 3.61866V18.0969C36.5977 18.7634 36.0572 19.3034 35.3911 19.3034Z" fill="#6C5B52"/>
<path d="M23.3256 7.23914H18.4995C17.8334 7.23914 17.293 6.6991 17.293 6.03259V1.20655C17.293 0.540041 17.8334 0 18.4995 0H23.3256C23.9917 0 24.5322 0.540041 24.5322 1.20655V6.03266C24.5321 6.6991 23.9917 7.23914 23.3256 7.23914Z" fill="#AEB3BF"/>
<path d="M12.1298 28.9802C12.1057 28.8918 12.0654 28.7952 12.0252 28.7068C11.808 28.2001 11.4944 27.6852 11.0599 27.0981C11.0519 27.0739 11.0358 27.0578 11.0197 27.0338C10.336 26.0846 9.36277 24.9425 8.05975 23.3258C7.84259 23.0523 7.60925 22.7708 7.37598 22.4732C7.14277 22.1836 6.78882 22.0469 6.43501 22.0469C6.08119 22.0469 5.72716 22.1836 5.49403 22.4732C5.12396 22.9397 4.7781 23.366 4.45645 23.7682C3.32231 25.1677 2.47774 26.1893 1.85033 27.0338C1.83421 27.066 1.80198 27.1063 1.77785 27.1384C1.44008 27.613 1.17457 28.0313 0.965437 28.4334C0.933279 28.4977 0.901121 28.5701 0.877057 28.6345C0.530977 29.3665 0.402344 30.0582 0.402344 30.9671C0.402344 34.2971 3.10493 36.9997 6.43493 36.9997C9.76493 36.9997 12.4675 34.2971 12.4675 30.9671C12.4676 30.2189 12.371 29.5915 12.1298 28.9802Z" fill="#7C84E8"/>
<path d="M12.4662 30.9671C12.4662 34.2971 9.7636 36.9997 6.43359 36.9997V22.0469C6.78741 22.0469 7.14144 22.1836 7.37457 22.4732C7.60784 22.7708 7.84119 23.0523 8.05834 23.3258C9.36137 24.9425 10.3346 26.0846 11.0183 27.0338C11.0344 27.0579 11.0504 27.074 11.0585 27.0981L11.1551 27.2107C11.5171 27.6612 11.8065 28.1678 12.0238 28.7068C12.064 28.7953 12.1043 28.8918 12.1284 28.9803C12.3696 29.5917 12.4662 30.219 12.4662 30.9671Z" fill="#515BE0"/>
<path d="M23.3251 0H20.9121V7.23914H23.3251C23.9912 7.23914 24.5317 6.6991 24.5317 6.03259V1.20655C24.5316 0.540041 23.9912 0 23.3251 0Z" fill="#AEB3BF"/>
<path d="M28.1516 2.41309H13.6733C13.0071 2.41309 12.4668 1.87291 12.4668 1.20655C12.4668 0.540258 13.007 0 13.6733 0H28.1516C28.8179 0 29.3582 0.540186 29.3582 1.20655C29.3582 1.87291 28.818 2.41309 28.1516 2.41309Z" fill="#7C84E8"/>
<path d="M28.1522 0H20.9131V2.41302H28.1522C28.8185 2.41302 29.3588 1.87284 29.3588 1.20647C29.3588 0.540113 28.8186 0 28.1522 0Z" fill="#515BE0"/>
<path d="M23.3265 16.8913H18.5004C16.5045 16.8913 14.8809 15.2677 14.8809 13.2718V8.44574C14.8809 6.44984 16.5045 4.82617 18.5004 4.82617H23.3265C25.3224 4.82617 26.9461 6.44984 26.9461 8.44574V13.2719C26.9461 15.2677 25.3224 16.8913 23.3265 16.8913Z" fill="#DBE1F1"/>
<path d="M23.3251 4.82617H20.9121V16.8914H23.3251C25.321 16.8914 26.9447 15.2678 26.9447 13.2719V8.44574C26.9447 6.44976 25.321 4.82617 23.3251 4.82617Z" fill="#D0D5E5"/>
</g>
<defs>
<clipPath id="clip0_188_1605">
<rect width="37" height="37" fill="white"/>
</clipPath>
</defs>
</svg>
