<svg width="50" height="49" viewBox="0 0 50 49" fill="none" xmlns="http://www.w3.org/2000/svg">
<path d="M27.083 22.9694V10.209C27.083 7.14648 29.1663 4.08398 33.333 4.08398C37.4997 4.08398 39.583 7.14648 39.583 10.209V34.709" stroke="#019CDE" stroke-width="3"/>
<path d="M34.1143 34.709H45.0518L45.833 40.834H33.333L34.1143 34.709Z" stroke="#019CDE" stroke-width="3" stroke-linecap="round" stroke-linejoin="round"/>
<path d="M10.4165 40.834H26.9644C27.03 40.834 27.0832 40.7829 27.0832 40.7176V23.7401C27.0832 16.2676 20.9019 10.209 13.2759 10.209C11.6887 10.209 10.1666 10.8269 9.04429 11.9267C7.922 13.0266 7.2915 14.5183 7.2915 16.0737V29.6048" stroke="#019CDE" stroke-width="3" stroke-linecap="round" stroke-linejoin="round"/>
<path d="M10.4165 40.834C13.8683 40.834 16.6665 38.0917 16.6665 34.709C16.6665 31.3262 13.8683 28.584 10.4165 28.584C6.96472 28.584 4.1665 31.3262 4.1665 34.709C4.1665 38.0917 6.96472 40.834 10.4165 40.834Z" stroke="#019CDE" stroke-width="3"/>
<path d="M14.583 10.209V29.6048" stroke="#019CDE" stroke-width="3" stroke-linecap="round" stroke-linejoin="round"/>
</svg>
