<svg width="37" height="43" viewBox="0 0 37 43" fill="none" xmlns="http://www.w3.org/2000/svg">
<path d="M34.3571 42.5709H2.64286C1.92708 42.5709 1.30766 42.3076 0.784598 41.781C0.261533 41.2544 0 40.6308 0 39.9102V13.3034C0 12.5828 0.261533 11.9592 0.784598 11.4326C1.30766 10.906 1.92708 10.6427 2.64286 10.6427H34.3571C35.1004 10.6427 35.7267 10.906 36.236 11.4326C36.7453 11.9592 37 12.5828 37 13.3034V39.9102C37 40.6586 36.7453 41.2891 36.236 41.8018C35.7267 42.3146 35.1004 42.5709 34.3571 42.5709ZM18.5 15.9641C15.5818 15.9641 13.0904 17.0034 11.0257 19.0821C8.96094 21.1607 7.92857 23.669 7.92857 26.6068C7.92857 29.5447 8.96094 32.0529 11.0257 34.1316C13.0904 36.2102 15.5818 37.2496 18.5 37.2496C21.4182 37.2496 23.9096 36.2102 25.9743 34.1316C28.0391 32.0529 29.0714 29.5447 29.0714 26.6068C29.0714 23.669 28.0391 21.1607 25.9743 19.0821C23.9096 17.0034 21.4182 15.9641 18.5 15.9641ZM18.5 34.5889C16.2976 34.5889 14.4256 33.8128 12.8839 32.2608C11.3423 30.7087 10.5714 28.8241 10.5714 26.6068C10.5714 24.3896 11.3423 22.5049 12.8839 20.9529C14.4256 19.4008 16.2976 18.6248 18.5 18.6248C20.7024 18.6248 22.5744 19.4008 24.1161 20.9529C25.6577 22.5049 26.4286 24.3896 26.4286 26.6068C26.4286 28.8241 25.6577 30.7087 24.1161 32.2608C22.5744 33.8128 20.7024 34.5889 18.5 34.5889ZM34.3571 7.98205H2.64286C1.92708 7.98205 1.30766 7.71875 0.784598 7.19216C0.261533 6.66556 0 6.04197 0 5.32137V2.66068C0 1.94008 0.261533 1.31648 0.784598 0.78989C1.30766 0.263297 1.92708 0 2.64286 0H34.3571C35.1004 0 35.7267 0.263297 36.236 0.78989C36.7453 1.31648 37 1.94008 37 2.66068V5.32137C37 6.06968 36.7453 6.70021 36.236 7.21294C35.7267 7.72568 35.1004 7.98205 34.3571 7.98205ZM9.25 2.66068H6.60714C6.24926 2.66068 5.93955 2.79233 5.67801 3.05563C5.41648 3.31892 5.28571 3.63072 5.28571 3.99102C5.28571 4.35133 5.41648 4.66312 5.67801 4.92642C5.93955 5.18972 6.24926 5.32137 6.60714 5.32137H9.25C9.60789 5.32137 9.9176 5.18972 10.1791 4.92642C10.4407 4.66312 10.5714 4.35133 10.5714 3.99102C10.5714 3.63072 10.4407 3.31892 10.1791 3.05563C9.9176 2.79233 9.60789 2.66068 9.25 2.66068ZM14.5357 2.66068C14.1778 2.66068 13.8681 2.79233 13.6066 3.05563C13.3451 3.31892 13.2143 3.63072 13.2143 3.99102C13.2143 4.35133 13.3451 4.66312 13.6066 4.92642C13.8681 5.18972 14.1778 5.32137 14.5357 5.32137C14.8936 5.32137 15.2033 5.18972 15.4648 4.92642C15.7264 4.66312 15.8571 4.35133 15.8571 3.99102C15.8571 3.63072 15.7264 3.31892 15.4648 3.05563C15.2033 2.79233 14.8936 2.66068 14.5357 2.66068ZM19.8214 2.66068C19.4635 2.66068 19.1538 2.79233 18.8923 3.05563C18.6308 3.31892 18.5 3.63072 18.5 3.99102C18.5 4.35133 18.6308 4.66312 18.8923 4.92642C19.1538 5.18972 19.4635 5.32137 19.8214 5.32137C20.1793 5.32137 20.489 5.18972 20.7506 4.92642C21.0121 4.66312 21.1429 4.35133 21.1429 3.99102C21.1429 3.63072 21.0121 3.31892 20.7506 3.05563C20.489 2.79233 20.1793 2.66068 19.8214 2.66068Z" fill="#019CDE"/>
</svg>
