<svg width="44" height="46" viewBox="0 0 44 46" fill="none" xmlns="http://www.w3.org/2000/svg">
<path d="M8.8 27.3672H13.2L19.8 34.209H15.4L8.8 27.3672ZM4.4 4.56119H6.6V2.2806C6.6 1.67575 6.83179 1.09567 7.24437 0.667971C7.65695 0.240276 8.21652 0 8.8 0H17.6C18.1835 0 18.7431 0.240276 19.1556 0.667971C19.5682 1.09567 19.8 1.67575 19.8 2.2806V4.56119H24.2V2.2806C24.2 1.67575 24.4318 1.09567 24.8444 0.667971C25.2569 0.240276 25.8165 0 26.4 0H35.2C35.7835 0 36.3431 0.240276 36.7556 0.667971C37.1682 1.09567 37.4 1.67575 37.4 2.2806V4.56119H39.6C40.767 4.56119 41.8861 5.04175 42.7113 5.89714C43.5364 6.75253 44 7.91268 44 9.12239V38.7701C44 39.9799 43.5364 41.14 42.7113 41.9954C41.8861 42.8508 40.767 43.3313 39.6 43.3313V45.6119H33V43.3313H11V45.6119H4.4V43.3313C3.23305 43.3313 2.11389 42.8508 1.28873 41.9954C0.46357 41.14 0 39.9799 0 38.7701V9.12239C0 7.91268 0.46357 6.75253 1.28873 5.89714C2.11389 5.04175 3.23305 4.56119 4.4 4.56119ZM35.2 11.403C35.7835 11.403 36.3431 11.6433 36.7556 12.071C37.1682 12.4987 37.4 13.0787 37.4 13.6836C37.4 14.2884 37.1682 14.8685 36.7556 15.2962C36.3431 15.7239 35.7835 15.9642 35.2 15.9642C34.6165 15.9642 34.0569 15.7239 33.6444 15.2962C33.2318 14.8685 33 14.2884 33 13.6836C33 13.0787 33.2318 12.4987 33.6444 12.071C34.0569 11.6433 34.6165 11.403 35.2 11.403ZM26.4 11.403C26.9835 11.403 27.5431 11.6433 27.9556 12.071C28.3682 12.4987 28.6 13.0787 28.6 13.6836C28.6 14.2884 28.3682 14.8685 27.9556 15.2962C27.5431 15.7239 26.9835 15.9642 26.4 15.9642C25.8165 15.9642 25.2569 15.7239 24.8444 15.2962C24.4318 14.8685 24.2 14.2884 24.2 13.6836C24.2 13.0787 24.4318 12.4987 24.8444 12.071C25.2569 11.6433 25.8165 11.403 26.4 11.403ZM39.6 9.12239H4.4V18.2448H39.6V9.12239ZM4.4 38.7701H39.6V22.806H4.4V38.7701ZM8.8 11.403C9.38348 11.403 9.94305 11.6433 10.3556 12.071C10.7682 12.4987 11 13.0787 11 13.6836C11 14.2884 10.7682 14.8685 10.3556 15.2962C9.94305 15.7239 9.38348 15.9642 8.8 15.9642C8.21652 15.9642 7.65695 15.7239 7.24437 15.2962C6.83179 14.8685 6.6 14.2884 6.6 13.6836C6.6 13.0787 6.83179 12.4987 7.24437 12.071C7.65695 11.6433 8.21652 11.403 8.8 11.403ZM24.2 27.3672H28.6L35.2 34.209H30.8L24.2 27.3672Z" fill="#019CDE"/>
</svg>
