<svg width="37" height="42" viewBox="0 0 37 42" fill="none" xmlns="http://www.w3.org/2000/svg">
<path d="M2.05556 41.5573H34.9444C35.4896 41.5573 36.0125 41.3383 36.3979 40.9487C36.7834 40.559 37 40.0305 37 39.4794V6.23359C37 2.7968 34.2332 0 30.8333 0H6.16667C2.76678 0 0 2.7968 0 6.23359V39.4794C0 40.0305 0.216567 40.559 0.602058 40.9487C0.98755 41.3383 1.51039 41.5573 2.05556 41.5573ZM30.8333 3.99781C31.1033 3.99781 31.3706 4.05155 31.62 4.15598C31.8694 4.2604 32.096 4.41345 32.2868 4.6064C32.4777 4.79935 32.6291 5.02841 32.7324 5.28051C32.8357 5.5326 32.8889 5.8028 32.8889 6.07567C32.8889 6.34854 32.8357 6.61874 32.7324 6.87083C32.6291 7.12293 32.4777 7.35199 32.2868 7.54494C32.096 7.73789 31.8694 7.89094 31.62 7.99536C31.3706 8.09979 31.1033 8.15353 30.8333 8.15353C30.2882 8.15353 29.7653 7.93462 29.3798 7.54494C28.9943 7.15527 28.7778 6.62675 28.7778 6.07567C28.7778 5.52459 28.9943 4.99607 29.3798 4.6064C29.7653 4.21672 30.2882 3.99781 30.8333 3.99781ZM24.6667 3.99781C24.9366 3.99781 25.2039 4.05155 25.4533 4.15598C25.7027 4.2604 25.9293 4.41345 26.1202 4.6064C26.311 4.79935 26.4625 5.02841 26.5658 5.28051C26.6691 5.5326 26.7222 5.8028 26.7222 6.07567C26.7222 6.34854 26.6691 6.61874 26.5658 6.87083C26.4625 7.12293 26.311 7.35199 26.1202 7.54494C25.9293 7.73789 25.7027 7.89094 25.4533 7.99536C25.2039 8.09979 24.9366 8.15353 24.6667 8.15353C24.1215 8.15353 23.5987 7.93462 23.2132 7.54494C22.8277 7.15527 22.6111 6.62675 22.6111 6.07567C22.6111 5.52459 22.8277 4.99607 23.2132 4.6064C23.5987 4.21672 24.1215 3.99781 24.6667 3.99781ZM18.5 10.3893C25.3018 10.3893 30.8333 15.9808 30.8333 22.8565C30.8333 29.7321 25.3018 35.3237 18.5 35.3237C11.6982 35.3237 6.16667 29.7321 6.16667 22.8565C6.16667 15.9808 11.6982 10.3893 18.5 10.3893Z" fill="#019CDE"/>
<path d="M20.1271 26.833C23.1001 26.2509 25.5908 23.9005 26.5513 20.89C27.2468 18.777 27.1302 16.4627 26.2262 14.4385C26.1271 14.2159 25.9584 14.0356 25.748 13.9276C25.5376 13.8197 25.2984 13.7906 25.0701 13.8453C23.7866 14.1776 22.9046 14.8444 21.8825 15.6316C20.2121 16.9183 18.1316 18.5172 14.2491 18.5172C12.5214 18.5172 11.1677 18.1916 10.0329 17.7278L10.0052 17.7479C9.96031 19.0902 10.2044 20.4259 10.7194 21.6556C11.2343 22.8853 12.0069 23.9773 12.9796 24.8504C13.9523 25.7234 15.1001 26.3551 16.3376 26.6983C17.575 27.0416 18.8704 27.0876 20.1271 26.833Z" fill="#019CDE"/>
</svg>
