<svg width="51" height="47" viewBox="0 0 51 47" fill="none" xmlns="http://www.w3.org/2000/svg">
<path fill-rule="evenodd" clip-rule="evenodd" d="M5.02612 41.1743V19.4021H8.37569V41.1743C8.37569 41.6185 8.55214 42.0445 8.86622 42.3585C9.1803 42.6726 9.60629 42.8491 10.0505 42.8491H40.1966C40.6407 42.8491 41.0667 42.6726 41.3808 42.3585C41.6949 42.0445 41.8713 41.6185 41.8713 41.1743V19.4021H45.2209V41.1743C45.2209 42.5068 44.6915 43.7848 43.7493 44.727C42.8071 45.6693 41.5291 46.1986 40.1966 46.1986H10.0505C8.71793 46.1986 7.43997 45.6693 6.49772 44.727C5.55547 43.7848 5.02612 42.5068 5.02612 41.1743ZM41.8713 4.32908V16.0526L35.1722 9.35343V4.32908C35.1722 3.8849 35.3487 3.45891 35.6627 3.14483C35.9768 2.83075 36.4028 2.6543 36.847 2.6543H40.1966C40.6407 2.6543 41.0667 2.83075 41.3808 3.14483C41.6949 3.45891 41.8713 3.8849 41.8713 4.32908Z" fill="white"/>
<path fill-rule="evenodd" clip-rule="evenodd" d="M22.7557 0.980707C23.3838 0.352761 24.2357 0 25.1238 0C26.012 0 26.8639 0.352761 27.492 0.980707L49.7565 23.2419C50.071 23.5564 50.2477 23.9829 50.2477 24.4277C50.2477 24.8724 50.071 25.2989 49.7565 25.6134C49.4421 25.9279 49.0155 26.1046 48.5708 26.1046C48.1261 26.1046 47.6995 25.9279 47.3851 25.6134L25.1238 3.34885L2.86264 25.6134C2.54816 25.9279 2.12164 26.1046 1.6769 26.1046C1.23216 26.1046 0.805631 25.9279 0.491152 25.6134C0.176673 25.2989 0 24.8724 0 24.4277C0 23.9829 0.176673 23.5564 0.491152 23.2419L22.7557 0.980707Z" fill="white"/>
<path d="M25.1234 12.7031C25.5675 12.7031 25.9935 12.8796 26.3076 13.1937C26.6217 13.5077 26.7981 13.9337 26.7981 14.3779V24.4266H36.8468C37.291 24.4266 37.717 24.603 38.0311 24.9171C38.3452 25.2312 38.5216 25.6572 38.5216 26.1014C38.5216 26.5456 38.3452 26.9716 38.0311 27.2856C37.717 27.5997 37.291 27.7762 36.8468 27.7762H26.7981V37.8249C26.7981 38.269 26.6217 38.695 26.3076 39.0091C25.9935 39.3232 25.5675 39.4996 25.1234 39.4996C24.6792 39.4996 24.2532 39.3232 23.9391 39.0091C23.625 38.695 23.4486 38.269 23.4486 37.8249V27.7762H13.3999C12.9557 27.7762 12.5297 27.5997 12.2156 27.2856C11.9015 26.9716 11.7251 26.5456 11.7251 26.1014C11.7251 25.6572 11.9015 25.2312 12.2156 24.9171C12.5297 24.603 12.9557 24.4266 13.3999 24.4266H23.4486V14.3779C23.4486 13.9337 23.625 13.5077 23.9391 13.1937C24.2532 12.8796 24.6792 12.7031 25.1234 12.7031Z" fill="white"/>
</svg>
