<svg width="35" height="31" viewBox="0 0 35 31" fill="none" xmlns="http://www.w3.org/2000/svg">
<path d="M0.436893 3.96195C0.44096 3.54032 0.786458 3.20142 1.20809 3.20549L13.7674 3.32662C14.1891 3.33068 14.5279 3.67618 14.5239 4.09782C14.5198 4.51945 14.1743 4.85835 13.7527 4.85428L1.19336 4.73315C0.771724 4.72908 0.432823 4.38397 0.436893 3.96195Z" fill="#019CDE"/>
<path d="M11.917 26.8323C11.921 26.4107 12.2665 26.0718 12.6882 26.0758L33.8299 26.2797C34.2516 26.2838 34.5904 26.6293 34.5864 27.0509C34.5823 27.4726 34.2368 27.8115 33.8152 27.8074L12.6734 27.6035C12.2514 27.5994 11.9129 27.2539 11.917 26.8323Z" fill="#019CDE"/>
<path d="M0.324875 15.3403C0.328942 14.9187 0.674441 14.5798 1.09608 14.5838L24.0409 14.8051C24.4625 14.8092 24.8014 15.1547 24.7973 15.5763C24.7933 15.998 24.4478 16.3369 24.0261 16.3328L1.08134 16.1115C0.659707 16.1074 0.320808 15.7619 0.324875 15.3403Z" fill="#019CDE"/>
<path d="M23.2689 15.5614C23.289 13.4746 25.003 11.793 27.0902 11.8131C29.1774 11.8332 30.8586 13.5472 30.8385 15.6344C30.8184 17.7216 29.1044 19.4028 27.0172 19.3827C24.93 19.3626 23.2488 17.6486 23.2689 15.5614ZM29.3104 15.6197C29.3225 14.375 28.3198 13.3528 27.0751 13.3408C25.8304 13.3288 24.8082 14.3315 24.7962 15.5761C24.7842 16.8208 25.7869 17.843 27.0316 17.855C28.2762 17.867 29.2984 16.8643 29.3104 15.6197Z" fill="#019CDE"/>
<path d="M12.9955 4.08288C13.0156 1.99609 14.7296 0.31446 16.8168 0.33459C18.9036 0.354717 20.5852 2.06871 20.5651 4.15589C20.5449 6.24306 18.8309 7.92431 16.7438 7.90417C14.6566 7.88404 12.9753 6.16967 12.9955 4.08288ZM19.0374 4.14115C19.0494 2.89649 18.0467 1.87426 16.802 1.86226C15.5574 1.85025 14.5351 2.85295 14.5231 4.09761C14.5111 5.34228 15.5138 6.3645 16.7585 6.37651C18.0032 6.38851 19.0254 5.38582 19.0374 4.14115Z" fill="#019CDE"/>
<path d="M5.87868 26.7739C5.8988 24.6871 7.6128 23.0059 9.69997 23.026C11.7868 23.0461 13.468 24.7601 13.4479 26.8469C13.4277 28.9341 11.7138 30.6153 9.62696 30.5952C7.54017 30.5751 5.85855 28.8611 5.87868 26.7739ZM11.9206 26.8322C11.9326 25.5875 10.9303 24.5657 9.68562 24.5537C8.44095 24.5417 7.41873 25.544 7.40672 26.7886C7.39472 28.0333 8.39742 29.0555 9.64208 29.0675C10.8867 29.0795 11.9086 28.0768 11.9206 26.8322Z" fill="#019CDE"/>
<path d="M19.0339 4.14102C19.038 3.71938 19.3835 3.38049 19.8051 3.38455L34.0487 3.52193C34.4703 3.526 34.8092 3.87149 34.8051 4.29313C34.8011 4.71477 34.4556 5.05366 34.0339 5.0496L19.7904 4.91222C19.3683 4.90815 19.0298 4.56304 19.0339 4.14102Z" fill="#019CDE"/>
<path d="M29.3096 15.6201C29.3137 15.1985 29.6592 14.8596 30.0808 14.8636L33.9393 14.9008C34.3609 14.9049 34.6998 15.2504 34.6958 15.672C34.6917 16.0937 34.3462 16.4326 33.9246 16.4285L30.0661 16.3913C29.6444 16.3872 29.3055 16.0417 29.3096 15.6201Z" fill="#019CDE"/>
<path d="M0.217882 26.7199C0.221948 26.2983 0.567446 25.9594 0.989082 25.9634L6.65023 26.018C7.07187 26.0221 7.41076 26.3676 7.4067 26.7892C7.40263 27.2109 7.05713 27.5498 6.6355 27.5457L0.974348 27.4911C0.552712 27.487 0.213815 27.1415 0.217882 26.7199Z" fill="#019CDE"/>
</svg>
