<svg width="29" height="31" viewBox="0 0 29 31" fill="none" xmlns="http://www.w3.org/2000/svg">
<path d="M22.6562 12.5938C22.6562 10.2814 21.7969 8.06375 20.2673 6.42866C18.7377 4.79358 16.6632 3.875 14.5 3.875C12.3368 3.875 10.2623 4.79358 8.73266 6.42866C7.20307 8.06375 6.34375 10.2814 6.34375 12.5938C6.34375 16.1704 9.02081 20.832 14.5 26.4159C19.9792 20.832 22.6562 16.1704 22.6562 12.5938ZM14.5 29.0625C7.85356 22.6048 4.53125 17.1139 4.53125 12.5938C4.53125 9.76754 5.58153 7.05708 7.45103 5.05864C9.32053 3.06021 11.8561 1.9375 14.5 1.9375C17.1439 1.9375 19.6795 3.06021 21.549 5.05864C23.4185 7.05708 24.4688 9.76754 24.4688 12.5938C24.4688 17.1139 21.1464 22.6048 14.5 29.0625Z" fill="#777777"/>
<path d="M14.5 15.5C15.2211 15.5 15.9126 15.1938 16.4224 14.6488C16.9323 14.1038 17.2188 13.3645 17.2188 12.5938C17.2188 11.823 16.9323 11.0837 16.4224 10.5387C15.9126 9.99369 15.2211 9.6875 14.5 9.6875C13.7789 9.6875 13.0874 9.99369 12.5776 10.5387C12.0677 11.0837 11.7812 11.823 11.7812 12.5938C11.7812 13.3645 12.0677 14.1038 12.5776 14.6488C13.0874 15.1938 13.7789 15.5 14.5 15.5ZM14.5 17.4375C13.2982 17.4375 12.1457 16.9272 11.2959 16.0188C10.4461 15.1104 9.96875 13.8784 9.96875 12.5938C9.96875 11.3091 10.4461 10.0771 11.2959 9.1687C12.1457 8.26032 13.2982 7.75 14.5 7.75C15.7018 7.75 16.8543 8.26032 17.7041 9.1687C18.5539 10.0771 19.0312 11.3091 19.0312 12.5938C19.0312 13.8784 18.5539 15.1104 17.7041 16.0188C16.8543 16.9272 15.7018 17.4375 14.5 17.4375Z" fill="#777777"/>
</svg>
