<svg width="58" height="58" viewBox="0 0 58 58" fill="none" xmlns="http://www.w3.org/2000/svg">
<path d="M51.8302 14.7535L37.3302 7.50353C36.9944 7.33552 36.6241 7.24805 36.2487 7.24805C35.8733 7.24805 35.503 7.33552 35.1673 7.50353L21.7499 14.2146L8.33017 7.50353C7.96164 7.31937 7.55214 7.23249 7.14058 7.25113C6.72902 7.26976 6.32905 7.39331 5.97868 7.61003C5.6283 7.82674 5.33914 8.12943 5.13867 8.48935C4.93819 8.84927 4.83306 9.25446 4.83325 9.66644V41.0831C4.83325 41.999 5.35042 42.8352 6.16967 43.246L20.6697 50.496C21.0054 50.664 21.3757 50.7515 21.7511 50.7515C22.1266 50.7515 22.4968 50.664 22.8326 50.496L36.2499 43.7849L49.6697 50.4936C50.0372 50.6795 50.4464 50.7676 50.8578 50.7494C51.2692 50.7312 51.669 50.6073 52.0187 50.3897C52.7316 49.9474 53.1666 49.1717 53.1666 48.3331V16.9164C53.1666 16.0005 52.6494 15.1644 51.8302 14.7535ZM24.1666 18.4099L33.8333 13.5766V39.5896L24.1666 44.4229V18.4099ZM9.66659 13.5766L19.3333 18.4099V44.4229L9.66659 39.5896V13.5766ZM48.3333 44.4229L38.6666 39.5896V13.5766L48.3333 18.4099V44.4229Z" fill="white"/>
</svg>
