<svg width="40" height="41" viewBox="0 0 40 41" fill="none" xmlns="http://www.w3.org/2000/svg">
<g clip-path="url(#clip0_188_535)">
<path d="M31.6516 24.8294C31.0534 22.6065 29.7602 20.6462 27.9704 19.2492C26.1806 17.8522 23.9931 17.0957 21.7434 17.0957C19.4938 17.0957 17.3063 17.8522 15.5165 19.2492C13.7267 20.6462 12.4335 22.6065 11.8352 24.8294L10.4096 30.1265C10.1536 31.0776 10.1155 32.0765 10.298 33.0452C10.4806 34.0139 10.879 34.9263 11.4621 35.7112C12.0453 36.4962 12.7974 37.1325 13.6599 37.5705C14.5224 38.0085 15.472 38.2364 16.4345 38.2364H27.0523C28.0149 38.2364 28.9644 38.0085 29.827 37.5705C30.6895 37.1325 31.4416 36.4962 32.0247 35.7112C32.6079 34.9263 33.0063 34.0139 33.1889 33.0452C33.3714 32.0765 33.3332 31.0776 33.0773 30.1265L31.6516 24.8294ZM30.0359 34.1585C29.6875 34.6312 29.2365 35.0142 28.7187 35.2772C28.2008 35.5403 27.6303 35.6761 27.0523 35.6739H16.4345C15.857 35.6739 15.2872 35.5372 14.7697 35.2743C14.2522 35.0115 13.8009 34.6298 13.451 34.1588C13.1011 33.6878 12.8621 33.1404 12.7526 32.5591C12.643 31.9779 12.6659 31.3786 12.8195 30.8079L14.2452 25.5108C14.6979 23.8286 15.6766 22.3451 17.031 21.2879C18.3855 20.2307 20.041 19.6582 21.7434 19.6582C23.4459 19.6582 25.1014 20.2307 26.4558 21.2879C27.8103 22.3451 28.789 23.8286 29.2417 25.5108L30.6673 30.8079C30.8231 31.3784 30.8472 31.9782 30.7376 32.5598C30.628 33.1414 30.3877 33.6889 30.0359 34.1588V34.1585Z" fill="#019CDE"/>
<path d="M13.1579 18.8825C13.3754 17.4892 13.087 15.9976 12.3454 14.6814C11.6038 13.3652 10.4876 12.3634 9.20189 11.8598C7.82501 11.3208 6.42064 11.4066 5.2461 12.1014C2.91118 13.4832 2.29673 16.8888 3.87665 19.6932C4.61798 21.0093 5.73431 22.0114 7.02001 22.5148C7.58955 22.7423 8.19493 22.8609 8.80618 22.8648C9.5677 22.8677 10.3163 22.6635 10.9758 22.2731C12.1496 21.5783 12.9246 20.3742 13.1579 18.8825ZM10.6892 18.4775C10.5774 19.1925 10.2352 19.7524 9.72564 20.0539C9.21603 20.3555 8.57196 20.3792 7.91181 20.121C7.16079 19.827 6.49657 19.22 6.04142 18.4119C5.16642 16.8584 5.37439 14.9846 6.4961 14.3206C6.77809 14.1566 7.09745 14.0721 7.42165 14.0757C7.72577 14.0789 8.02676 14.1391 8.30978 14.2532C9.06079 14.5474 9.72501 15.1543 10.1802 15.9623C10.6353 16.7704 10.816 17.6638 10.6892 18.4775Z" fill="#019CDE"/>
<path d="M13.4276 13.5733C14.3152 14.3007 15.3289 14.6795 16.354 14.6794C16.661 14.6793 16.9672 14.6454 17.2672 14.5784C19.9018 13.9913 21.4992 10.9394 20.8281 7.77513C20.5133 6.29 19.7478 4.98705 18.6728 4.10611C17.5216 3.16279 16.158 2.80572 14.8332 3.10105C12.1987 3.68802 10.6012 6.73996 11.2723 9.90424C11.5872 11.3895 12.3526 12.6924 13.4276 13.5733ZM15.3641 5.60509C15.4856 5.57824 15.6095 5.56482 15.7338 5.56505C16.1985 5.56505 16.6765 5.75139 17.1117 6.10806C17.7396 6.62256 18.1919 7.40805 18.3851 8.3199C18.757 10.0732 18.0019 11.7927 16.7362 12.0748C16.1611 12.2029 15.5405 12.0245 14.9887 11.5723C14.3608 11.0577 13.9086 10.2722 13.7153 9.36043C13.3433 7.60664 14.0985 5.88713 15.3641 5.60509Z" fill="#019CDE"/>
<path d="M38.241 12.1014C37.0669 11.4066 35.6619 11.3208 34.2852 11.8598C32.9995 12.3632 31.8832 13.3652 31.1419 14.6814C30.4005 15.9976 30.112 17.4895 30.3294 18.8825C30.5623 20.3742 31.3372 21.5783 32.5115 22.2731C33.1709 22.6635 33.9196 22.8677 34.6811 22.8648C35.2923 22.8609 35.8977 22.7423 36.4673 22.5148C37.753 22.0114 38.8693 21.0093 39.6106 19.6932C41.1904 16.8888 40.5759 13.4832 38.241 12.1014ZM37.4457 18.4119C36.9905 19.22 36.3263 19.827 35.5753 20.1209C34.9155 20.3794 34.2712 20.3557 33.7616 20.0539C33.252 19.7522 32.9101 19.1925 32.7981 18.4775C32.6711 17.6638 32.8517 16.7707 33.3069 15.9631C33.7622 15.1554 34.4263 14.5481 35.1773 14.2539C35.4603 14.1397 35.7613 14.0794 36.0655 14.0761C36.3897 14.0725 36.709 14.157 36.991 14.321C38.1127 14.9844 38.3209 16.858 37.4457 18.4119Z" fill="#019CDE"/>
<path d="M26.219 14.5783C26.519 14.6453 26.8251 14.6791 27.1322 14.6792C28.1572 14.6792 29.1712 14.3006 30.0586 13.5732C31.1335 12.6923 31.899 11.3893 32.2139 9.90419C32.8849 6.7399 31.2875 3.68796 28.6529 3.10099C27.3282 2.80582 25.9645 3.16265 24.8133 4.10605C23.7383 4.98691 22.9729 6.28994 22.658 7.77499C21.9869 10.9393 23.5844 13.9912 26.219 14.5783ZM25.101 8.31936C25.2943 7.40751 25.7465 6.62171 26.3744 6.10752C26.8097 5.75086 27.2876 5.56451 27.7523 5.56451C27.8766 5.56428 28.0005 5.57771 28.122 5.60455C29.3876 5.88659 30.1428 7.60651 29.771 9.35942C29.5776 10.2713 29.1253 11.0571 28.4976 11.5713C27.9459 12.0235 27.3257 12.2019 26.7501 12.0738C25.4843 11.7922 24.7291 10.0724 25.101 8.31936Z" fill="#019CDE"/>
</g>
<defs>
<clipPath id="clip0_188_535">
<rect width="40" height="41" fill="white"/>
</clipPath>
</defs>
</svg>
