<svg width="46" height="35" viewBox="0 0 46 35" fill="none" xmlns="http://www.w3.org/2000/svg">
<path d="M45.7718 32.8985C45.7718 33.2859 45.6303 33.6211 45.3472 33.9042C45.0641 34.1873 44.7288 34.3289 44.3414 34.3289C43.954 34.3289 43.6188 34.1873 43.3357 33.9042C43.0526 33.6211 42.9111 33.2859 42.9111 32.8985V14.0802L27.1323 21.9919C25.9403 22.5879 24.5249 22.8859 22.8859 22.8859C21.2469 22.8859 19.8315 22.5879 18.6395 21.9919L1.74326 13.5438C0.581087 12.9478 0 12.2401 0 11.4206C0 10.6011 0.581087 9.90829 1.74326 9.3421L18.6395 0.893981C19.8315 0.297994 21.2469 0 22.8859 0C24.5249 0 25.9403 0.297994 27.1323 0.893981L44.0285 9.3421C45.0417 9.84869 45.6079 10.4745 45.7271 11.2195C45.7569 11.2493 45.7718 11.3089 45.7718 11.3983V32.8985ZM28.5627 24.8527L37.1896 20.5169V26.8194C37.1896 28.1008 35.7965 29.1959 33.0102 30.1048C30.224 31.0137 26.8492 31.4681 22.8859 31.4681C18.9226 31.4681 15.5478 31.0137 12.7616 30.1048C9.97533 29.1959 8.58221 28.1008 8.58221 26.8194V20.5169L17.2091 24.8527C18.4011 25.4487 20.2934 25.7466 22.8859 25.7466C25.4784 25.7466 27.3707 25.4487 28.5627 24.8527Z" fill="#019CDE"/>
</svg>
