<svg width="38" height="43" viewBox="0 0 38 43" fill="none" xmlns="http://www.w3.org/2000/svg">
<path d="M6.5 31.0938C7.32843 31.0938 8 30.3203 8 29.3662C8 28.4121 7.32843 27.6387 6.5 27.6387C5.67157 27.6387 5 28.4121 5 29.3662C5 30.3203 5.67157 31.0938 6.5 31.0938Z" fill="#EA4444"/>
<path d="M13.5 31.0938C14.3284 31.0938 15 30.3203 15 29.3662C15 28.4121 14.3284 27.6387 13.5 27.6387C12.6716 27.6387 12 28.4121 12 29.3662C12 30.3203 12.6716 31.0938 13.5 31.0938Z" fill="#EA4444"/>
<path d="M7.04157 32.9016C7.47995 34.3817 8.36609 35.7029 9.50049 35.7029C10.6349 35.7029 11.5204 34.3829 11.9588 32.9016C12.077 32.5031 11.9206 32.0734 11.7462 32.3211C10.2997 34.3955 8.69378 34.3817 7.25294 32.3211C7.07909 32.0746 6.92275 32.5042 7.04157 32.9016Z" fill="#EA4444"/>
<path d="M33.1335 34.9758C34.6155 33.7521 35.8581 32.0848 36.1728 30.1334C37.0576 29.9842 38 29.3678 38 27.4227C38 25.7098 37.4211 25.1971 36.9316 25.0699C36.8803 18.0434 35.3083 15.0473 28.2581 14.9747C21.1495 14.9008 19.2768 18.0261 19.209 25.1577C19.1345 25.1988 19.0644 25.2489 19 25.3069V25.1093C19 16.5439 13.8561 16.7042 13.8561 16.7042C13.8561 16.7042 13.4691 14.9727 9.50063 14.9727C3.3554 14.9727 0 19.3466 0 25.1093V42.6118H38V37.6195C38 36.3025 35.9176 35.4222 33.1335 34.9758ZM2.46557 25.1376C6.27823 25.1376 12.49 19.7273 12.49 19.7273C12.49 19.7273 14.8377 24.5033 17.1038 25.1376C17.1038 25.1376 18.2026 25.3574 18.2026 27.2541C18.2026 29.5337 16.7377 29.9275 16.7377 29.9275C16.7194 33.3679 12.4146 36.8262 9.80273 36.8262C7.1877 36.8262 2.81137 33.3672 2.81137 29.9275C2.81137 29.9275 1.39967 29.5337 1.39967 27.2541C1.39967 25.4479 2.46557 25.1376 2.46557 25.1376ZM18.6833 41.9353L0.6327 41.9208V37.6195C0.6327 36.9188 2.2724 36.0254 5.38967 35.5894C6.83937 36.7661 8.51137 37.5165 9.80273 37.5165C11.0517 37.5165 12.6654 36.7965 14.0834 35.6606C16.8923 36.118 18.684 37.4571 18.684 38.1205V41.9353H18.6833ZM18.981 27.4227C18.981 26.295 19.2324 25.7229 19.7302 25.7229C19.7632 25.7229 19.7961 25.725 19.8297 25.7291C19.8955 26.1423 19.9728 26.4401 20.0646 26.6371C20.2914 27.1187 20.7227 27.3819 20.7714 27.4103L21.3022 27.7219L21.2173 27.0551C21.1509 26.428 21.1291 25.7961 21.1521 25.1653C21.3623 21.6924 21.5644 21.2295 22.256 21.2295C22.5701 21.2295 23.0014 21.3255 23.548 21.4457C24.6126 21.6814 26.0699 22.0041 28.1821 22.0041C30.2942 22.0041 31.7522 21.6814 32.8162 21.4457C33.3627 21.3248 33.794 21.2295 34.1088 21.2295C34.801 21.2295 35.0031 21.6938 35.2108 25.1646C35.2475 26.2543 35.1481 27.0475 35.1468 27.0551L35.0613 27.7233L35.594 27.4103C35.6427 27.3819 36.0728 27.1187 36.3001 26.6371C36.3932 26.4388 36.4699 26.1472 36.537 25.7291C37.0937 25.6628 37.3857 26.2218 37.3857 27.4227C37.3857 28.7397 36.9081 29.392 35.8834 29.4756L35.6326 29.4957L35.6003 29.7748C35.1259 33.8785 30.1543 36.4808 28.1821 36.4808C26.2099 36.4808 21.2382 33.8785 20.7651 29.7748L20.7328 29.4957L20.482 29.4756C19.4585 29.3913 18.981 28.7397 18.981 27.4227ZM19 29.5012C19.3395 29.8785 19.772 30.0623 20.1938 30.1334C20.5162 32.1345 21.8133 33.8371 23.3447 35.0691C20.8284 35.539 19 36.3861 19 37.6195V29.5012ZM37.366 41.9208L19.3167 41.9215V38.1211C19.3167 36.9334 21.3269 36.0613 24.1047 35.6357C25.5525 36.6134 27.0978 37.1717 28.1827 37.1717C29.2942 37.1717 30.8877 36.583 32.3652 35.5611C35.4584 35.9611 37.366 36.8104 37.366 37.6195V41.9208Z" fill="#EA4444"/>
<path d="M24.5 31.0938C25.3284 31.0938 26 30.3203 26 29.3662C26 28.4121 25.3284 27.6387 24.5 27.6387C23.6716 27.6387 23 28.4121 23 29.3662C23 30.3203 23.6716 31.0938 24.5 31.0938Z" fill="#EA4444"/>
<path d="M31.5 31.0938C32.3284 31.0938 33 30.3203 33 29.3662C33 28.4121 32.3284 27.6387 31.5 27.6387C30.6716 27.6387 30 28.4121 30 29.3662C30 30.3203 30.6716 31.0938 31.5 31.0938Z" fill="#EA4444"/>
<path d="M26.033 32.9016C26.3835 34.3817 27.0925 35.7029 28.0001 35.7029C28.9076 35.7029 29.6162 34.3829 29.9672 32.9016C30.0617 32.5031 29.9357 32.0734 29.7972 32.3211C28.6401 34.3955 27.3545 34.3817 26.2025 32.3211C26.0635 32.0746 25.9385 32.5042 26.033 32.9016Z" fill="#EA4444"/>
<path d="M18.9982 17.2747C19.7989 16.4958 30.983 10.2077 28.691 3.65611C26.561 -2.43265 19.6389 0.298975 18.9982 3.34012C18.1182 0.0995918 11.3694 -2.31677 9.30938 3.65899C7.01601 10.3185 18.1988 16.2965 18.9982 17.2747Z" fill="#EA4444"/>
</svg>
