<svg width="42" height="42" viewBox="0 0 42 42" fill="none" xmlns="http://www.w3.org/2000/svg">
<path d="M26.7684 27.7246C28.7965 27.7246 30.4425 29.4896 30.4425 31.6644L30.4404 33.8301C30.6861 38.7605 27.2681 41.2527 21.1355 41.2527C15.026 41.2527 11.5472 38.7988 11.5472 33.9157V31.6644C11.5472 29.4896 13.1932 27.7246 15.2213 27.7246H26.7684ZM26.7684 31.1016H15.2213C15.0821 31.1016 14.9486 31.1609 14.8501 31.2664C14.7517 31.372 14.6964 31.5151 14.6964 31.6644V33.9157C14.6964 36.5632 16.5586 37.8757 21.1355 37.8757C25.6872 37.8757 27.4235 36.606 27.2933 33.9202V31.6644C27.2933 31.5151 27.238 31.372 27.1396 31.2664C27.0411 31.1609 26.9076 31.1016 26.7684 31.1016ZM3.6741 16.4681H12.8614C12.5969 17.5702 12.5292 18.716 12.662 19.8451H3.6741C3.53489 19.8451 3.40139 19.9043 3.30296 20.0099C3.20453 20.1154 3.14923 20.2586 3.14923 20.4079V22.6592C3.14923 25.3067 5.01147 26.6192 9.58835 26.6192C10.5583 26.6192 11.4002 26.5607 12.1224 26.4459C10.9212 27.2619 10.044 28.5258 9.65973 29.9939L9.58835 29.9962C3.47885 29.9962 0 27.5423 0 22.6592V20.4079C0 18.2331 1.646 16.4681 3.6741 16.4681ZM38.3156 16.4681C40.3437 16.4681 41.9897 18.2331 41.9897 20.4079L41.9876 22.5736C42.2332 27.504 38.8153 29.9962 32.6827 29.9962L32.3279 29.9917C31.932 28.4834 31.0184 27.1916 29.7707 26.3761C30.5832 26.5382 31.549 26.6192 32.6827 26.6192C37.2344 26.6192 38.9706 25.3495 38.8405 22.6637V20.4079C38.8405 20.2586 38.7852 20.1154 38.6867 20.0099C38.5883 19.9043 38.4548 19.8451 38.3156 19.8451H29.3298C29.4597 18.7158 29.3914 17.5704 29.1283 16.4681H38.3156ZM20.9949 11.9655C21.822 11.9655 22.641 12.1402 23.4052 12.4796C24.1693 12.819 24.8637 13.3165 25.4485 13.9437C26.0334 14.5708 26.4973 15.3154 26.8139 16.1348C27.1304 16.9542 27.2933 17.8325 27.2933 18.7194C27.2933 19.6063 27.1304 20.4846 26.8139 21.304C26.4973 22.1234 26.0334 22.868 25.4485 23.4951C24.8637 24.1223 24.1693 24.6198 23.4052 24.9592C22.641 25.2986 21.822 25.4733 20.9949 25.4733C19.3244 25.4733 17.7224 24.7617 16.5412 23.4951C15.36 22.2285 14.6964 20.5106 14.6964 18.7194C14.6964 16.9282 15.36 15.2103 16.5412 13.9437C17.7224 12.6771 19.3244 11.9655 20.9949 11.9655ZM20.9949 15.3424C20.5813 15.3424 20.1718 15.4298 19.7897 15.5995C19.4076 15.7692 19.0604 16.018 18.768 16.3315C18.4756 16.6451 18.2436 17.0174 18.0853 17.4271C17.9271 17.8368 17.8456 18.2759 17.8456 18.7194C17.8456 19.1629 17.9271 19.602 18.0853 20.0117C18.2436 20.4214 18.4756 20.7937 18.768 21.1073C19.0604 21.4208 19.4076 21.6696 19.7897 21.8393C20.1718 22.009 20.5813 22.0964 20.9949 22.0964C21.8301 22.0964 22.6311 21.7406 23.2217 21.1073C23.8123 20.474 24.1441 19.615 24.1441 18.7194C24.1441 17.8238 23.8123 16.9648 23.2217 16.3315C22.6311 15.6982 21.8301 15.3424 20.9949 15.3424ZM9.44768 0.708984C11.1181 0.708984 12.7202 1.42055 13.9014 2.68716C15.0826 3.95376 15.7461 5.67164 15.7461 7.46289C15.7461 9.25414 15.0826 10.972 13.9014 12.2386C12.7202 13.5052 11.1181 14.2168 9.44768 14.2168C7.77723 14.2168 6.17519 13.5052 4.994 12.2386C3.81281 10.972 3.14923 9.25414 3.14923 7.46289C3.14923 5.67164 3.81281 3.95376 4.994 2.68716C6.17519 1.42055 7.77723 0.708984 9.44768 0.708984ZM32.542 0.708984C34.2125 0.708984 35.8145 1.42055 36.9957 2.68716C38.1769 3.95376 38.8405 5.67164 38.8405 7.46289C38.8405 9.25414 38.1769 10.972 36.9957 12.2386C35.8145 13.5052 34.2125 14.2168 32.542 14.2168C30.8716 14.2168 29.2695 13.5052 28.0883 12.2386C26.9072 10.972 26.2436 9.25414 26.2436 7.46289C26.2436 5.67164 26.9072 3.95376 28.0883 2.68716C29.2695 1.42055 30.8716 0.708984 32.542 0.708984ZM9.44768 4.08594C8.61246 4.08594 7.81144 4.44172 7.22084 5.07502C6.63025 5.70832 6.29846 6.56727 6.29846 7.46289C6.29846 8.35851 6.63025 9.21746 7.22084 9.85076C7.81144 10.4841 8.61246 10.8398 9.44768 10.8398C10.2829 10.8398 11.0839 10.4841 11.6745 9.85076C12.2651 9.21746 12.5969 8.35851 12.5969 7.46289C12.5969 6.56727 12.2651 5.70832 11.6745 5.07502C11.0839 4.44172 10.2829 4.08594 9.44768 4.08594ZM32.542 4.08594C31.7068 4.08594 30.9058 4.44172 30.3152 5.07502C29.7246 5.70832 29.3928 6.56727 29.3928 7.46289C29.3928 8.35851 29.7246 9.21746 30.3152 9.85076C30.9058 10.4841 31.7068 10.8398 32.542 10.8398C33.3773 10.8398 34.1783 10.4841 34.7689 9.85076C35.3595 9.21746 35.6913 8.35851 35.6913 7.46289C35.6913 6.56727 35.3595 5.70832 34.7689 5.07502C34.1783 4.44172 33.3773 4.08594 32.542 4.08594Z" fill="#019CDE"/>
</svg>
