<svg width="49" height="43" viewBox="0 0 49 43" fill="none" xmlns="http://www.w3.org/2000/svg">
<path d="M48.2015 20.6666L38.3532 10.4098C39.8449 9.40088 40.833 7.65788 40.833 5.6683C40.833 4.16498 40.2594 2.72322 39.2385 1.66021C38.2175 0.597196 36.8328 0 35.389 0C33.9451 0 32.5604 0.597196 31.5394 1.66021C30.5185 2.72322 29.9449 4.16498 29.9449 5.6683C29.9449 7.66071 30.933 9.40371 32.4247 10.4127L23.6652 19.5358L17.6305 17.9628C18.5453 16.9294 19.0543 15.5762 19.0569 14.1708C19.0569 12.6674 18.4833 11.2257 17.4623 10.1627C16.4414 9.09965 15.0567 8.50245 13.6128 8.50245C12.169 8.50245 10.7843 9.09965 9.76331 10.1627C8.74235 11.2257 8.16879 12.6674 8.16879 14.1708C8.16879 16.0668 9.0725 17.739 10.4471 18.7677L1.08882 26.0742C0.802851 26.2975 0.561927 26.5773 0.379803 26.8975C0.19768 27.2178 0.0779212 27.5723 0.0273687 27.9407C-0.0747268 28.6848 0.111261 29.4407 0.544416 30.042C0.97757 30.6433 1.62241 31.0409 2.33708 31.1472C3.05174 31.2535 3.7777 31.0598 4.35524 30.6088L9.07794 26.9188L5.28073 38.7825C5.14436 39.2088 5.10729 39.6628 5.17258 40.1069C5.23787 40.551 5.40364 40.9727 5.65623 41.337C5.90881 41.7013 6.24097 41.9978 6.62529 42.2022C7.00962 42.4065 7.4351 42.5128 7.86664 42.5123C9.00717 42.5123 10.0688 41.7612 10.4498 40.5737L13.3814 31.4166L16.49 40.6162C16.6026 40.9752 16.7829 41.3072 17.0204 41.5926C17.258 41.878 17.5479 42.1112 17.8732 42.2783C18.1985 42.4454 18.5525 42.5431 18.9146 42.5657C19.2767 42.5883 19.6394 42.5354 19.9816 42.41C20.3237 42.2845 20.6383 42.0892 20.9069 41.8354C21.1755 41.5816 21.3927 41.2745 21.5457 40.932C21.6986 40.5896 21.7844 40.2188 21.7978 39.8414C21.8112 39.464 21.752 39.0876 21.6237 38.7343L16.4764 23.5036L23.8394 25.4223C24.2956 25.5421 24.7737 25.5363 25.2271 25.4057C25.6804 25.275 26.0933 25.0239 26.4254 24.677L31.4829 19.4139L27.2882 39.0659C27.2108 39.4294 27.203 39.8051 27.265 40.1717C27.3271 40.5384 27.458 40.8886 27.6501 41.2026C28.038 41.8367 28.652 42.2843 29.357 42.4471C30.0619 42.6098 30.8001 42.4743 31.4091 42.0704C32.0181 41.6664 32.448 41.0271 32.6043 40.2931L35.389 27.2334L38.1736 40.2903C38.3603 40.991 38.7979 41.5904 39.3965 41.965C39.995 42.3397 40.7087 42.461 41.3906 42.3041C42.0725 42.1471 42.6705 41.7238 43.0616 41.1213C43.4526 40.5189 43.6068 39.7832 43.4924 39.0659L39.2978 19.4139L44.3553 24.677C44.6082 24.9399 44.9084 25.1484 45.2387 25.2906C45.569 25.4327 45.9229 25.5058 46.2803 25.5055C46.6377 25.5053 46.9916 25.4317 47.3217 25.289C47.6518 25.1464 47.9517 24.9374 48.2042 24.6741C48.4568 24.4108 48.657 24.0983 48.7936 23.7544C48.9301 23.4105 49.0002 23.0419 49 22.6698C48.9997 22.2977 48.9291 21.9292 48.7921 21.5855C48.6551 21.2418 48.4544 20.9296 48.2015 20.6666Z" fill="#019CDE"/>
</svg>
