<svg width="40" height="40" viewBox="0 0 40 40" fill="none" xmlns="http://www.w3.org/2000/svg">
<path d="M3.94141 18.75V28.125H30.1445V18.75H3.94141ZM27.707 25.625H6.37891V21.25H27.707V25.625Z" fill="#EA4444"/>
<path d="M31.9727 18.75H34.4102V28.125H31.9727V18.75Z" fill="#EA4444"/>
<path d="M36.2383 18.75H38.6758V28.125H36.2383V18.75Z" fill="#EA4444"/>
<path d="M32.082 13.5391C31.7898 13.0869 31.649 12.5495 31.6809 12.008C31.7127 11.4666 31.9156 10.9505 32.2587 10.5377C32.968 9.69154 33.3797 8.62561 33.4278 7.51083C33.4758 6.39605 33.1574 5.29702 32.5237 4.39L32.0781 3.75H29.292L29.1533 3.85156L30.5402 5.84297C30.8564 6.29555 31.0153 6.84395 30.9913 7.40021C30.9673 7.95647 30.7619 8.48835 30.4079 8.91055C29.7204 9.73787 29.3139 10.7722 29.25 11.8573C29.1862 12.9425 29.4683 14.0195 30.0538 14.9256L30.5084 15.625H33.438L32.082 13.5391Z" fill="#EA4444"/>
<path d="M37.5663 13.5391C37.2741 13.0869 37.1334 12.5495 37.1652 12.008C37.1971 11.4666 37.3999 10.9505 37.7431 10.5377C38.4524 9.69154 38.8641 8.62561 38.9121 7.51083C38.9602 6.39605 38.6418 5.29702 38.0081 4.39L37.5625 3.75H34.7763L34.6377 3.85156L36.0246 5.84297C36.3408 6.29555 36.4997 6.84395 36.4757 7.40021C36.4517 7.95647 36.2463 8.48835 35.8923 8.91055C35.2047 9.73787 34.7983 10.7722 34.7344 11.8573C34.6705 12.9425 34.9527 14.0195 35.5382 14.9256L35.9928 15.625H38.9224L37.5663 13.5391Z" fill="#EA4444"/>
</svg>
