<svg width="35" height="33" viewBox="0 0 35 33" fill="none" xmlns="http://www.w3.org/2000/svg">
<path d="M6.67506 14.8691C6.946 14.9021 7.201 15.0733 7.48256 15.2759C7.47141 15.296 7.45972 15.3162 7.45122 15.3373C7.40872 15.4451 7.41297 15.5678 7.44697 15.6859C7.48628 15.8019 7.56119 15.9174 7.67116 15.9849C7.779 16.0545 7.90862 16.0674 8.00212 16.0164C7.92717 15.9606 7.86265 15.8928 7.81141 15.8158C7.77378 15.7541 7.74416 15.6881 7.72322 15.6193C7.7001 15.5481 7.68409 15.4749 7.67541 15.4007C7.66903 15.3234 7.66106 15.2455 7.70356 15.145C7.62866 15.1367 7.56331 15.1775 7.51497 15.2326C7.44828 15.0859 7.35242 14.9535 7.23287 14.8428C7.0836 14.7016 6.89376 14.6076 6.68834 14.5731C6.49603 14.5465 6.30002 14.5815 6.13 14.6727C5.97147 14.7573 5.83795 14.88 5.74219 15.029C5.91644 14.9825 6.07209 14.9263 6.22562 14.8918C6.38022 14.8598 6.53003 14.8449 6.67506 14.8691Z" fill="#019CDE"/>
<path d="M9.49269 12.4472C9.67438 12.4787 9.86403 12.5009 10.0632 12.4916C10.2603 12.4813 10.4728 12.439 10.6497 12.3142C10.8293 12.1956 10.9446 11.9857 10.935 11.7733C10.8361 11.8505 10.7241 11.9105 10.6041 11.9507C10.5437 11.8686 10.4964 11.7783 10.4638 11.6826C10.4149 11.5485 10.365 11.4026 10.2821 11.2515C10.1993 11.1056 10.0611 10.9473 9.88369 10.8849C9.8075 10.8553 9.72555 10.8422 9.6436 10.8465C9.56165 10.8509 9.48167 10.8726 9.40928 10.9101C9.56281 10.9643 9.69881 11.0148 9.79709 11.0916C9.89591 11.1669 9.96603 11.2618 10.0324 11.3835C10.1052 11.5016 10.1663 11.6444 10.2688 11.7821C10.3225 11.861 10.4027 11.9378 10.492 11.9883C10.3374 12.0249 10.1791 12.0321 9.99791 12.0425C9.82578 12.0528 9.63984 12.0574 9.44912 12.0966C9.2685 12.1327 9.03422 12.2054 8.94922 12.406C9.14684 12.3714 9.30888 12.424 9.49269 12.4472Z" fill="#019CDE"/>
<path d="M32.3522 18.894H28.3556L28.3545 18.8935C28.3099 18.7789 28.2558 18.668 28.1925 18.5619C27.8244 17.9628 27.5635 17.1692 27.3117 16.402C26.7948 14.8252 26.2603 13.1943 24.7001 13.1943C22.6925 13.1943 19.1602 16.617 17.8894 18.8935H12.536C12.4263 18.6116 12.3724 18.3121 12.3772 18.0107C13.8063 17.4864 14.4799 17.0125 14.6494 16.4334C14.7949 15.9364 14.5213 15.5172 14.3163 15.2619C14.3789 15.1691 14.4523 15.0444 14.4894 14.8845C14.5243 14.7359 14.5239 14.5817 14.4885 14.4332C14.4531 14.2848 14.3835 14.1461 14.2849 14.0275C14.1785 13.8983 14.0424 13.795 13.8875 13.7259C13.9024 13.4763 13.8493 13.2639 13.7287 13.0912C13.6642 12.9993 13.581 12.9212 13.4841 12.8619C13.3872 12.8025 13.2788 12.7631 13.1656 12.7462C13.2543 12.5456 13.2894 12.3033 13.1512 12.0481C12.8702 11.5299 12.3804 11.5299 12.2194 11.5299C12.1785 11.5299 12.1355 11.5314 12.0919 11.5324C12.1142 10.4842 11.4964 8.81354 8.94213 8.30616C7.12951 7.94574 2.54429 9.73341 2.25476 11.9929C2.25476 11.9929 1.03129 13.1639 2.89598 16.2107L4.5386 18.8935V18.894H3.49895C1.31285 18.894 1.31285 21.3453 3.49895 21.3453H3.68648C3.86657 24.4432 4.74632 26.4747 6.13607 27.8107C5.57334 28.3143 5.14135 28.9399 4.87541 29.6365C4.41588 30.8446 5.15751 31.9692 6.21416 31.9692C7.26869 31.9692 7.7431 30.9241 7.7431 29.6365C7.7431 29.4324 7.78773 29.2209 7.85307 29.0116C10.4328 30.3094 13.9895 30.3641 17.9203 30.3641C21.7431 30.3641 25.2127 30.312 27.7744 29.1158C27.8212 29.2911 27.8514 29.4659 27.8514 29.6365C27.8514 30.9241 28.3259 31.9692 29.382 31.9692C30.436 31.9692 31.1803 30.8446 30.7207 29.6365C30.4745 28.992 30.0849 28.408 29.5796 27.9262C31.0405 26.5933 31.9681 24.5349 32.154 21.3453H32.3533C34.1951 21.3453 34.1951 18.894 32.3522 18.894ZM24.7001 13.9677C25.6122 13.9677 26.0085 14.9763 26.552 16.6366C26.8091 17.4209 27.0779 18.2289 27.4732 18.8935H24.1114C24.4546 18.135 24.7452 16.8537 24.8897 16.4561L23.8915 18.8935H18.8117C20.1574 16.7634 23.2413 13.9677 24.7001 13.9677ZM5.66963 14.3101C5.8577 14.1178 6.11588 14.0255 6.4001 14.0255C6.83891 14.0255 7.34041 14.2451 7.74576 14.6576C7.92107 14.836 8.05866 15.033 8.1612 15.2351L8.16916 15.2305C8.16916 15.2305 9.05423 14.9737 8.22016 11.9094C7.89398 10.7074 8.49641 9.27193 9.16101 9.27244C9.26407 9.27244 9.36926 9.30699 9.47232 9.38279C11.065 10.5533 10.6304 11.4334 11.0639 11.7603C11.4002 12.0145 11.6914 12.0517 11.9368 12.0517C12.0383 12.0517 12.1323 12.045 12.2184 12.045C12.4123 12.045 12.5663 12.0774 12.6805 12.2878C12.8351 12.573 12.3257 12.9262 12.357 13.0159C12.4362 13.2371 12.6561 13.2345 13.003 13.2469C13.522 13.7089 12.655 14.5329 12.655 14.5329C12.655 14.5329 13.53 14.4339 13.7377 14.7154C13.9385 14.9887 13.5667 15.1898 13.8073 15.4718C14.3699 16.1292 14.6435 16.7387 11.5155 17.7607C10.8451 17.9798 10.3946 18.2325 9.92282 18.2325C9.39688 18.2325 8.84491 17.9184 7.93223 16.8949C7.76594 17.0032 7.56566 17.0558 7.35051 17.0558C6.91382 17.0558 6.41604 16.8387 6.01176 16.4262C5.34398 15.7471 5.19045 14.7994 5.66963 14.3101ZM11.9756 18.8935H9.28426C9.00521 18.6882 8.75058 18.4533 8.5251 18.1933C9.02129 18.579 9.45798 18.7491 9.92335 18.7491C10.3494 18.7491 10.7346 18.6022 11.142 18.447C11.3073 18.3835 11.4858 18.315 11.685 18.2505C11.7439 18.2314 11.7928 18.2129 11.8497 18.1938C11.8592 18.3882 11.8938 18.631 11.9756 18.8935ZM27.5513 28.15C25.2611 29.3076 22.1145 29.3973 17.9203 29.3973C13.7255 29.3973 10.5789 29.3076 8.2887 28.15C6.84635 27.4209 4.97051 25.9173 4.68523 21.3453H31.1553C30.8695 25.9173 28.9936 27.4209 27.5513 28.15Z" fill="#019CDE"/>
<path d="M21.5703 12.375C21.5703 12.375 25.3002 8.98064 22.2259 5.88277C20.2661 3.90792 21.5703 1.03125 21.5703 1.03125C21.5703 1.03125 17.4521 4.83347 20.0526 7.45491C23.0626 10.4883 21.5703 12.375 21.5703 12.375Z" fill="#019CDE"/>
<path d="M15.8624 12.375C15.8624 12.375 18.6599 9.90619 16.3554 7.65342C14.8838 6.21741 15.8624 4.125 15.8624 4.125C15.8624 4.125 12.7737 6.8903 14.7239 8.79708C16.9817 11.0029 15.8624 12.375 15.8624 12.375Z" fill="#019CDE"/>
<path d="M27.5499 12.375C27.5499 12.375 30.3474 9.90567 28.0429 7.65291C26.5719 6.21689 27.5499 4.125 27.5499 4.125C27.5499 4.125 24.4612 6.8903 26.4114 8.79708C28.6698 11.0024 27.5499 12.375 27.5499 12.375Z" fill="#019CDE"/>
</svg>
