<svg width="48" height="48" viewBox="0 0 48 48" fill="none" xmlns="http://www.w3.org/2000/svg">
<path d="M24.2614 6.31836L4.6875 23.9349H10.5597V39.594H22.304V27.8497H26.2188V31.9797L30.1336 28.065V23.9349H18.3892V35.6792H14.4745V20.392L24.2614 11.5837L34.0484 20.392V24.1502L38.8048 19.3937L24.2614 6.31836ZM41.9562 22.2515C41.6719 22.2583 41.4 22.3699 41.1928 22.5647L39.2354 24.5221L43.2481 28.5347L45.2055 26.5774C45.4027 26.3761 45.5132 26.1055 45.5132 25.8238C45.5132 25.542 45.4027 25.2714 45.2055 25.0702L42.7 22.5647C42.5043 22.369 42.2302 22.2515 41.9562 22.2515ZM38.0806 25.6574L26.2188 37.5192V41.5514H30.251L42.0932 29.67L38.0806 25.6574Z" fill="#019CDE"/>
</svg>
