<svg width="25" height="24" viewBox="0 0 25 24" fill="none" xmlns="http://www.w3.org/2000/svg">
<path d="M22.3833 2.0506C21.4793 1.136 20.3283 0.504754 19.0711 0.234099C17.8139 -0.0365559 16.5051 0.0651195 15.3048 0.526684C14.1045 0.988249 13.0648 1.78969 12.3128 2.83293C11.5609 3.87617 11.1293 5.11598 11.071 6.40065L18.0267 13.3563C19.3105 13.298 20.5496 12.8669 21.5924 12.1158C22.6353 11.3647 23.4368 10.3261 23.8989 9.12689C24.361 7.92767 24.4638 6.6198 24.1946 5.36311C23.9255 4.10643 23.2961 2.95537 22.3833 2.0506ZM5.93951 13.7835L1.24191 18.4878C0.826893 18.9029 0.59375 19.4659 0.59375 20.0529C0.59375 20.6399 0.826893 21.2029 1.24191 21.6181L2.80704 23.1832C3.22218 23.5982 3.78516 23.8313 4.37217 23.8313C4.95918 23.8313 5.52216 23.5982 5.9373 23.1832L10.6327 18.4878L15.3303 13.7902L10.6349 9.0948L5.93951 13.7835ZM7.57991 18.4037L6.01478 16.8385L10.6349 12.2251L12.2 13.7902L7.57991 18.4037Z" fill="#019CDE"/>
</svg>
