<svg width="30" height="31" viewBox="0 0 30 31" fill="none" xmlns="http://www.w3.org/2000/svg">
<path d="M17.6087 0C18.1522 0.0134549 18.6141 0.201823 18.9946 0.565104C19.3614 0.94184 19.5516 1.39931 19.5652 1.9375V29.0625C19.5516 29.6007 19.3614 30.0582 18.9946 30.4349C18.6141 30.7982 18.1522 30.9865 17.6087 31H1.95652C1.41304 30.9865 0.951087 30.7982 0.570652 30.4349C0.203804 30.0582 0.013587 29.6007 0 29.0625V1.9375C0.013587 1.39931 0.203804 0.94184 0.570652 0.565104C0.951087 0.201823 1.41304 0.0134549 1.95652 0H17.6087ZM8.80435 1.9375C8.53261 1.9375 8.30163 2.03168 8.11141 2.22005C7.9212 2.40842 7.82609 2.63715 7.82609 2.90625C7.82609 3.17535 7.9212 3.40408 8.11141 3.59245C8.30163 3.78082 8.53261 3.875 8.80435 3.875H10.7609C11.0326 3.875 11.2636 3.78082 11.4538 3.59245C11.644 3.40408 11.7391 3.17535 11.7391 2.90625C11.7391 2.63715 11.644 2.40842 11.4538 2.22005C11.2636 2.03168 11.0326 1.9375 10.7609 1.9375H8.80435ZM10.7609 29.0625C11.0326 29.0625 11.2636 28.9683 11.4538 28.7799C11.644 28.5916 11.7391 28.3628 11.7391 28.0938C11.7391 27.8247 11.644 27.5959 11.4538 27.4076C11.2636 27.2192 11.0326 27.125 10.7609 27.125H8.80435C8.53261 27.125 8.30163 27.2192 8.11141 27.4076C7.9212 27.5959 7.82609 27.8247 7.82609 28.0938C7.82609 28.3628 7.9212 28.5916 8.11141 28.7799C8.30163 28.9683 8.53261 29.0625 8.80435 29.0625H10.7609ZM17.6087 25.1875V5.8125H1.95652V25.1875H17.6087ZM26.9429 8.19401C28.981 10.3199 30 12.7552 30 15.5C30 18.2448 28.981 20.6801 26.9429 22.806C26.6712 23.0482 26.3655 23.1693 26.0258 23.1693C25.6726 23.1693 25.3668 23.0414 25.1087 22.7858C24.837 22.5167 24.7011 22.2207 24.7011 21.8978C24.7011 21.5614 24.837 21.2587 25.1087 20.9896C26.6304 19.4019 27.3913 17.572 27.3913 15.5C27.3913 13.428 26.6304 11.5981 25.1087 10.0104C24.837 9.74132 24.7011 9.43858 24.7011 9.10221C24.7011 8.7793 24.837 8.48329 25.1087 8.21419C25.3668 7.95855 25.6726 7.83073 26.0258 7.83073C26.3655 7.83073 26.6712 7.95182 26.9429 8.19401ZM23.2745 11.8268C24.2799 12.9032 24.7826 14.1276 24.7826 15.5C24.7826 16.8724 24.2799 18.0968 23.2745 19.1732C23.0027 19.4154 22.6902 19.5365 22.337 19.5365C21.9837 19.5365 21.678 19.4086 21.4198 19.153C21.1617 18.8974 21.0326 18.5946 21.0326 18.2448C21.0326 17.895 21.1549 17.5855 21.3995 17.3164C21.9158 16.8051 22.1739 16.1997 22.1739 15.5C22.1739 14.8003 21.9158 14.1949 21.3995 13.6836C21.1549 13.428 21.0326 13.1185 21.0326 12.7552C21.0326 12.4054 21.1617 12.1026 21.4198 11.847C21.678 11.5914 21.9837 11.4635 22.337 11.4635C22.6902 11.4635 23.0027 11.5846 23.2745 11.8268Z" fill="#019CDE"/>
</svg>
