<svg width="34" height="32" viewBox="0 0 34 32" fill="none" xmlns="http://www.w3.org/2000/svg">
<path fill-rule="evenodd" clip-rule="evenodd" d="M5.17616 18.7848C3.32905 18.7848 1.84099 18.0833 1.09177 17.4897C0.994102 17.4136 0.913048 17.3184 0.853599 17.2098C0.794149 17.1012 0.757561 16.9815 0.746089 16.8583C0.734618 16.735 0.748505 16.6107 0.786897 16.493C0.825288 16.3753 0.887369 16.2667 0.969318 16.1739C1.14032 15.9849 1.37633 15.8673 1.63023 15.8446C1.88413 15.8219 2.13726 15.8957 2.33908 16.0515C2.44908 16.1365 4.95409 18.0148 8.29549 15.985C12.7514 13.2704 17.6223 15.8543 17.8278 15.9622C17.8652 15.9809 21.8541 18.0646 25.457 15.9767C30.1661 13.2372 33.4826 15.9539 33.6196 16.0743C33.7148 16.1529 33.793 16.2502 33.8492 16.3602C33.9055 16.4702 33.9386 16.5905 33.9466 16.7138C33.9546 16.8371 33.9372 16.9607 33.8956 17.077C33.854 17.1933 33.789 17.2998 33.7046 17.3901C33.5282 17.5768 33.2871 17.6892 33.0306 17.7042C32.7741 17.7193 32.5216 17.6359 32.3245 17.471C32.2394 17.3984 29.9295 15.5637 26.4719 17.5707C21.879 20.2355 17.0703 17.6952 16.8648 17.5873C16.8233 17.5623 12.8033 15.4475 9.34149 17.5603C7.86588 18.461 6.43593 18.7848 5.17616 18.7848Z" fill="#019CDE"/>
<path fill-rule="evenodd" clip-rule="evenodd" d="M5.19251 25.035C2.80995 25.035 1.2285 23.8603 1.13095 23.7815C0.922889 23.6257 0.785228 23.3936 0.748253 23.1364C0.711277 22.8791 0.778017 22.6177 0.933788 22.4096C1.08956 22.2015 1.32161 22.0639 1.57888 22.0269C1.83615 21.9899 2.09757 22.0567 2.30563 22.2124C2.42393 22.2996 4.96007 24.1197 8.33052 22.1481C12.7553 19.5622 17.591 22.0194 17.7944 22.1253C17.8317 22.144 21.858 24.1675 25.492 22.1398C30.17 19.5289 33.447 22.1211 33.5861 22.2332C33.7878 22.3977 33.9164 22.6352 33.944 22.894C33.9716 23.1528 33.8959 23.4121 33.7335 23.6154C33.6532 23.7156 33.5539 23.799 33.4414 23.8608C33.3288 23.9226 33.2052 23.9615 33.0775 23.9754C32.9499 23.9893 32.8207 23.9779 32.6975 23.9417C32.5743 23.9056 32.4595 23.8455 32.3595 23.7648C32.2703 23.6943 29.9313 21.9136 26.4384 23.8582C21.8829 26.4006 17.1033 23.9786 16.8978 23.8728C16.8604 23.8541 12.803 21.8015 9.31219 23.8499C7.79507 24.7361 6.3921 25.035 5.19251 25.035Z" fill="#019CDE"/>
<path fill-rule="evenodd" clip-rule="evenodd" d="M21.8818 31.2454C20.1385 31.2348 18.4214 30.8199 16.8656 30.0334C16.824 30.0126 12.804 27.8812 9.34637 30.0105C5.68744 32.2561 2.34604 30.9486 1.0925 29.94C0.994527 29.8629 0.913282 29.7667 0.853721 29.6573C0.794159 29.5478 0.757532 29.4273 0.746073 29.3032C0.734614 29.1791 0.748565 29.054 0.787073 28.9354C0.825582 28.8169 0.88784 28.7075 0.970049 28.6138C1.13943 28.4221 1.37579 28.3026 1.63055 28.2799C1.88532 28.2571 2.13913 28.3328 2.33982 28.4913C2.44981 28.5764 4.95482 30.4713 8.29622 28.4228C12.7521 25.6833 17.6231 28.2879 17.8285 28.4C17.8701 28.4187 21.8569 30.5211 25.4577 28.4145C30.1668 25.6522 33.4833 28.3959 33.6203 28.51C33.7157 28.5901 33.7939 28.6888 33.8502 28.8C33.9064 28.9112 33.9395 29.0326 33.9474 29.157C33.9554 29.2813 33.938 29.406 33.8964 29.5235C33.8548 29.6409 33.7898 29.7487 33.7054 29.8403C33.5292 30.0274 33.2882 30.1401 33.0318 30.1555C32.7753 30.171 32.5226 30.0879 32.3252 29.9234C32.2401 29.8466 29.9302 28.0015 26.4726 30.0209C25.0806 30.8353 23.4944 31.2583 21.8818 31.2454Z" fill="#019CDE"/>
<path fill-rule="evenodd" clip-rule="evenodd" d="M19.9994 8.38618H8.2838C7.71098 8.38618 7.24609 7.95035 7.24609 7.41282C7.24609 6.87529 7.71098 6.43945 8.2838 6.43945H19.9994C20.5723 6.43945 21.0371 6.87529 21.0371 7.41282C21.0371 7.95035 20.5723 8.38618 19.9994 8.38618Z" fill="#019CDE"/>
<path fill-rule="evenodd" clip-rule="evenodd" d="M19.9994 12.5949H8.2838C8.00858 12.5949 7.74464 12.4856 7.55003 12.291C7.35542 12.0964 7.24609 11.8324 7.24609 11.5572C7.24609 11.282 7.35542 11.0181 7.55003 10.8235C7.74464 10.6289 8.00858 10.5195 8.2838 10.5195H19.9994C20.2747 10.5195 20.5386 10.6289 20.7332 10.8235C20.9278 11.0181 21.0371 11.282 21.0371 11.5572C21.0371 11.8324 20.9278 12.0964 20.7332 12.291C20.5386 12.4856 20.2747 12.5949 19.9994 12.5949Z" fill="#019CDE"/>
<path fill-rule="evenodd" clip-rule="evenodd" d="M7.91056 18.2154C7.33775 18.2154 6.96832 17.7505 6.96832 17.1777V2.8014C6.89984 2.70178 6.18175 2.08746 5.12537 2.08746H4.60444C3.54598 2.08746 2.92336 2.70178 2.84242 2.86159C2.84246 2.9959 2.81563 3.12885 2.76349 3.25263C2.71136 3.3764 2.63498 3.48849 2.53886 3.58229C2.44273 3.6761 2.32881 3.74971 2.2038 3.79881C2.07879 3.8479 1.94521 3.87148 1.81095 3.86816C1.53276 3.86163 1.26834 3.74581 1.07491 3.54577C0.881473 3.34574 0.774593 3.07758 0.777398 2.79933C0.777398 1.33824 2.42319 0.238281 4.60444 0.238281H5.12537C7.30454 0.238281 8.94826 1.33824 8.94826 2.79933V17.1756C8.94853 17.3121 8.92189 17.4473 8.86986 17.5734C8.81784 17.6995 8.74144 17.8142 8.64506 17.9107C8.54867 18.0073 8.43418 18.0839 8.30815 18.1362C8.18211 18.1885 8.047 18.2154 7.91056 18.2154Z" fill="#019CDE"/>
<path fill-rule="evenodd" clip-rule="evenodd" d="M20.3949 18.2591C20.1197 18.2591 19.8558 18.1498 19.6612 17.9552C19.4666 17.7606 19.3572 17.4966 19.3572 17.2214V2.73304C19.2887 2.63342 18.8259 2.08759 17.7675 2.08759H17.2445C16.1881 2.08759 15.4057 2.63342 15.3247 2.79323C15.3248 2.92754 15.2979 3.06049 15.2458 3.18427C15.1937 3.30804 15.1173 3.42013 15.0212 3.51394C14.925 3.60774 14.8111 3.68135 14.6861 3.73045C14.5611 3.77954 14.4275 3.80312 14.2932 3.7998C14.0154 3.79273 13.7515 3.67668 13.5585 3.4767C13.3656 3.27672 13.259 3.00887 13.2618 2.73097C13.2618 1.26989 14.9055 0.169922 17.0867 0.169922H17.6077C19.7889 0.169922 21.4326 1.26989 21.4326 2.73097V17.2194C21.4329 17.3558 21.4063 17.491 21.3542 17.6171C21.3022 17.7432 21.2258 17.8579 21.1294 17.9545C21.033 18.051 20.9186 18.1277 20.7925 18.1799C20.6665 18.2322 20.5314 18.2591 20.3949 18.2591Z" fill="#019CDE"/>
</svg>
