<svg width="35" height="33" viewBox="0 0 35 33" fill="none" xmlns="http://www.w3.org/2000/svg">
<path d="M32.0013 28.8752C30.4288 28.8752 29.5505 28.3665 28.913 27.9952C28.3888 27.6927 28.063 27.5002 27.2838 27.5002C26.4905 27.5002 26.1788 27.679 25.6546 27.9952C25.003 28.3665 24.1388 28.8752 22.5663 28.8752C20.9938 28.8752 20.1155 28.3665 19.478 27.9952C18.9538 27.6927 18.628 27.5002 17.8488 27.5002C17.0555 27.5002 16.7438 27.679 16.2196 27.9952C15.568 28.3665 14.6896 28.8752 13.1171 28.8752C11.5446 28.8752 10.6663 28.3665 10.0288 27.9952C9.50464 27.679 9.1788 27.5002 8.39964 27.5002C7.62047 27.5002 7.29464 27.679 6.77047 27.9952C6.1188 28.3665 5.24047 28.8752 3.66797 28.8752V26.1252C4.4613 26.1252 4.77297 25.9465 5.29714 25.6302C5.9488 25.259 6.82714 24.7502 8.39964 24.7502C9.97214 24.7502 10.8505 25.259 11.488 25.6302C12.0121 25.9465 12.3238 26.1252 13.1171 26.1252C13.9105 26.1252 14.2221 25.9465 14.7463 25.6302C15.398 25.259 16.2763 24.7502 17.8488 24.7502C19.4213 24.7502 20.2996 25.259 20.9371 25.6302C21.4613 25.9327 21.7871 26.1252 22.5663 26.1252C23.3455 26.1252 23.6713 25.9465 24.1955 25.6302C24.833 25.259 25.7113 24.7502 27.2838 24.7502C28.8563 24.7502 29.7346 25.259 30.3721 25.6302C30.8963 25.9465 31.208 26.1252 32.0013 26.1252V28.8752ZM32.0013 22.6877C30.4288 22.6877 29.5505 22.179 28.913 21.8077C28.3888 21.5052 28.063 21.3127 27.2838 21.3127C26.4905 21.3127 26.1788 21.4915 25.6546 21.8077C25.0171 22.179 24.1388 22.6877 22.5663 22.6877C20.9938 22.6877 20.1155 22.179 19.478 21.8077C18.9538 21.5052 18.628 21.3127 17.8488 21.3127C17.0555 21.3127 16.7438 21.4915 16.2196 21.8077C15.5821 22.179 14.7038 22.6877 13.1313 22.6877C11.5588 22.6877 10.6805 22.179 10.043 21.8077C9.5188 21.5052 9.19297 21.3127 8.4138 21.3127C7.63464 21.3127 7.3088 21.4915 6.78464 21.8077C6.1188 22.179 5.24047 22.6877 3.66797 22.6877V19.9377C4.4613 19.9377 4.77297 19.759 5.29714 19.4427C5.93464 19.0715 6.81297 18.5627 8.38547 18.5627C9.95797 18.5627 10.8363 19.0715 11.4738 19.4427C11.998 19.7452 12.3238 19.9377 13.103 19.9377C13.8963 19.9377 14.208 19.759 14.7321 19.4427C15.3696 19.0715 16.248 18.5627 17.8205 18.5627C19.393 18.5627 20.2713 19.0715 20.9088 19.4427C21.433 19.7452 21.7588 19.9377 22.538 19.9377C23.3171 19.9377 23.643 19.759 24.1671 19.4427C24.8046 19.0715 25.683 18.5627 27.2555 18.5627C28.828 18.5627 29.7063 19.0715 30.3438 19.4427C30.868 19.7452 31.1938 19.9377 31.973 19.9377V22.6877H32.0013ZM13.1171 16.5002C13.9105 16.5002 14.2221 16.3215 14.7463 16.0052C15.398 15.634 16.2763 15.1252 17.8488 15.1252C19.4213 15.1252 20.2996 15.634 20.9371 16.0052C21.4613 16.3077 21.7871 16.5002 22.5663 16.5002C23.3455 16.5002 23.6713 16.3215 24.1955 16.0052C24.3655 15.909 24.5638 15.799 24.7763 15.689L15.6813 6.87522C13.4855 4.74397 11.4596 4.11147 7.91797 4.12522V7.56272C10.4963 7.54897 12.0121 8.09897 13.5846 9.62522L15.0013 11.0002L10.3971 15.469C10.8363 15.634 11.1905 15.8402 11.488 16.0052C12.0121 16.3215 12.3238 16.5002 13.1171 16.5002Z" fill="#019CDE"/>
<path d="M24.2096 11C26.1656 11 27.7513 9.46098 27.7513 7.5625C27.7513 5.66402 26.1656 4.125 24.2096 4.125C22.2536 4.125 20.668 5.66402 20.668 7.5625C20.668 9.46098 22.2536 11 24.2096 11Z" fill="#019CDE"/>
</svg>
