<svg width="48" height="47" viewBox="0 0 48 47" fill="none" xmlns="http://www.w3.org/2000/svg">
<path d="M42.6297 22.3448L25.3459 5.06107C24.6217 4.33683 23.6234 3.92578 22.586 3.92578H8.5515C6.39837 3.92578 4.63672 5.68743 4.63672 7.84056V21.875C4.63672 22.9125 5.04777 23.9107 5.79158 24.635L23.0753 41.9187C24.6021 43.4455 27.088 43.4455 28.6148 41.9187L42.6492 27.8842C44.176 26.3575 44.176 23.8912 42.6297 22.3448ZM25.8353 39.1588L8.5515 21.875V7.84056H22.586L39.8697 25.1243L25.8353 39.1588Z" fill="#019CDE"/>
<path d="M13.4439 15.671C15.0655 15.671 16.38 14.3565 16.38 12.7349C16.38 11.1134 15.0655 9.79883 13.4439 9.79883C11.8223 9.79883 10.5078 11.1134 10.5078 12.7349C10.5078 14.3565 11.8223 15.671 13.4439 15.671Z" fill="#019CDE"/>
</svg>
