<svg width="35" height="35" viewBox="0 0 35 35" fill="none" xmlns="http://www.w3.org/2000/svg">
<g clip-path="url(#clip0_373_4206)">
<path d="M34.107 2.15799L34.9675 3.01841C36.1531 4.20549 35.9737 6.30987 34.5635 7.71862L16.82 25.4622L11.0712 27.5651C10.3493 27.8305 9.64641 27.4863 9.50349 26.7995C9.45519 26.5503 9.47793 26.2926 9.56912 26.0557L11.7129 20.2574L29.4068 2.56195C30.817 1.1532 32.9214 0.972369 34.107 2.15945V2.15799ZM16.0456 3.92258C16.2371 3.92258 16.4267 3.9603 16.6037 4.03359C16.7806 4.10687 16.9414 4.21429 17.0768 4.34971C17.2122 4.48513 17.3196 4.6459 17.3929 4.82283C17.4662 4.99976 17.5039 5.1894 17.5039 5.38091C17.5039 5.57242 17.4662 5.76206 17.3929 5.93899C17.3196 6.11592 17.2122 6.27669 17.0768 6.41211C16.9414 6.54753 16.7806 6.65495 16.6037 6.72823C16.4267 6.80152 16.2371 6.83924 16.0456 6.83924H10.2122C9.43869 6.83924 8.69683 7.14653 8.14985 7.69352C7.60286 8.2405 7.29557 8.98236 7.29557 9.75591V27.2559C7.29557 28.0295 7.60286 28.7713 8.14985 29.3183C8.69683 29.8653 9.43869 30.1726 10.2122 30.1726H27.7122C28.4858 30.1726 29.2277 29.8653 29.7746 29.3183C30.3216 28.7713 30.6289 28.0295 30.6289 27.2559V21.4226C30.6289 21.0358 30.7826 20.6649 31.056 20.3914C31.3295 20.1179 31.7005 19.9642 32.0872 19.9642C32.474 19.9642 32.845 20.1179 33.1184 20.3914C33.3919 20.6649 33.5456 21.0358 33.5456 21.4226V27.2559C33.5456 28.803 32.931 30.2867 31.837 31.3807C30.7431 32.4747 29.2593 33.0892 27.7122 33.0892H10.2122C8.66514 33.0892 7.18141 32.4747 6.08745 31.3807C4.99349 30.2867 4.37891 28.803 4.37891 27.2559V9.75591C4.37891 8.20881 4.99349 6.72508 6.08745 5.63112C7.18141 4.53716 8.66514 3.92258 10.2122 3.92258H16.0456Z" fill="#019CDE"/>
</g>
<defs>
<clipPath id="clip0_373_4206">
<rect width="35" height="35" fill="white"/>
</clipPath>
</defs>
</svg>
