<svg width="23" height="23" viewBox="0 0 23 23" fill="none" xmlns="http://www.w3.org/2000/svg">
<g clip-path="url(#clip0_19_597)">
<path d="M5.83006 22.5588H0.175781V7.98041C0.175781 7.85528 0.277201 7.75391 0.40228 7.75391H5.83006V22.5588Z" fill="#C1E9AF"/>
<path d="M9.74113 2.56511C9.55618 2.56511 9.40625 2.41518 9.40625 2.23023V0.33488C9.40625 0.149927 9.55618 0 9.74113 0C9.92608 0 10.076 0.149927 10.076 0.33488V2.23023C10.076 2.41518 9.92608 2.56511 9.74113 2.56511Z" fill="#E1D3CE"/>
<path d="M22.3687 22.5511H16.5859V10.6836H22.1421C22.2673 10.6836 22.3686 10.785 22.3686 10.9101V22.5511H22.3687Z" fill="#FEE97D"/>
<path d="M22.3921 10.9127V22.5504H21.4874V10.9127C21.4874 10.7861 21.3844 10.6836 21.2578 10.6836H22.163C22.2895 10.6836 22.3921 10.7861 22.3921 10.9127Z" fill="#FEE45A"/>
<path d="M12.8372 2.96699V3.40405H6.67578V1.72451C6.67578 1.59938 6.77711 1.49805 6.90224 1.49805H12.6077C12.6156 1.49805 12.6235 1.49849 12.631 1.49937C12.7469 1.51082 12.8368 1.60864 12.8368 1.72716V2.96699H12.8372Z" fill="#B5ADB6"/>
<path d="M13.9946 3.20176V22.5661H5.50781V3.19912C5.50781 3.07399 5.60959 2.97266 5.73427 2.97266H13.7655C13.7734 2.97266 13.7813 2.9731 13.7888 2.97398C13.8003 2.97486 13.8117 2.97706 13.8228 2.97971C13.8501 2.98631 13.8756 2.99821 13.8981 3.01451C13.9025 3.01804 13.9069 3.02112 13.9113 3.02465C13.9113 3.02509 13.9113 3.02509 13.9118 3.02465C13.9567 3.06254 13.9871 3.11717 13.9933 3.17841C13.9941 3.1859 13.9946 3.19383 13.9946 3.20176Z" fill="#E1D3CE"/>
<path d="M10.4791 20.6858H7.79364C7.63794 20.6858 7.51172 20.5596 7.51172 20.4039V5.12763C7.51172 4.97193 7.63794 4.8457 7.79364 4.8457H10.4791C10.6348 4.8457 10.761 4.97193 10.761 5.12763V20.4039C10.761 20.5596 10.6348 20.6858 10.4791 20.6858Z" fill="#F9F3F1"/>
<path d="M10.7561 5.13855V20.3929C10.7561 20.5549 10.6252 20.6857 10.4632 20.6857H9.55859C9.72011 20.6857 9.85144 20.5549 9.85144 20.3929V5.13855C9.85144 4.97704 9.72011 4.8457 9.55859 4.8457H10.4632C10.6252 4.8457 10.7561 4.97699 10.7561 5.13855Z" fill="#F3EAE6"/>
<path d="M12.8157 1.72716V2.96701H11.9244V1.72716C11.9244 1.60071 11.8218 1.49805 11.6953 1.49805H12.5866C12.5945 1.49805 12.6025 1.49849 12.6099 1.49937C12.7258 1.51082 12.8157 1.60864 12.8157 1.72716Z" fill="#A79BA7"/>
<path d="M13.9841 3.20176V22.5661H13.0924V3.20176C13.0924 3.07531 12.9902 2.97266 12.8633 2.97266H13.755C13.7629 2.97266 13.7709 2.9731 13.7784 2.97398C13.8246 2.97838 13.8665 2.99689 13.9008 3.02465C13.9008 3.02509 13.9008 3.02509 13.9013 3.02465C13.9462 3.06254 13.9766 3.11717 13.9828 3.17841C13.9837 3.1859 13.9841 3.19383 13.9841 3.20176Z" fill="#CDBFBA"/>
<path d="M12.6016 22.5462V5.40716C12.6016 5.23744 12.7796 5.12663 12.9319 5.20158L16.9383 7.17353C17.0166 7.21208 17.0662 7.29183 17.0662 7.37911V22.5462H12.6016Z" fill="#8AC9FE"/>
<path d="M17.0532 7.3945V22.5611H16.1484V6.80664L16.9253 7.18906C17.0037 7.22779 17.0532 7.30713 17.0532 7.3945Z" fill="#60B7FF"/>
<path d="M4.73438 7.75391H5.51564V22.559H4.73438V7.75391Z" fill="#ADE194"/>
<path d="M14.1 20.1667C13.9174 20.1667 13.7695 20.0188 13.7695 19.8363V7.77574C13.7695 7.59326 13.9174 7.44531 14.1 7.44531C14.2825 7.44531 14.4304 7.59326 14.4304 7.77574V19.8363C14.4304 20.0188 14.2825 20.1667 14.1 20.1667Z" fill="#0593FC"/>
<path d="M15.4867 20.1586C15.3042 20.1586 15.1562 20.0107 15.1562 19.8282V8.76793C15.1562 8.58544 15.3042 8.4375 15.4867 8.4375C15.6692 8.4375 15.8171 8.58544 15.8171 8.76793V19.8282C15.8171 20.0107 15.6692 20.1586 15.4867 20.1586Z" fill="#0593FC"/>
<path d="M20.8334 14.3349H18.612C18.5156 14.3349 18.4375 14.2568 18.4375 14.1604V12.8639C18.4375 12.7676 18.5156 12.6895 18.612 12.6895H20.8334C20.9297 12.6895 21.0079 12.7676 21.0079 12.8639V14.1604C21.0079 14.2568 20.9297 14.3349 20.8334 14.3349Z" fill="#F9F3F1"/>
<path d="M20.8334 17.4403H18.612C18.5156 17.4403 18.4375 17.3622 18.4375 17.2659V15.9694C18.4375 15.873 18.5156 15.7949 18.612 15.7949H20.8334C20.9297 15.7949 21.0079 15.873 21.0079 15.9694V17.2659C21.0079 17.3622 20.9297 17.4403 20.8334 17.4403Z" fill="#F9F3F1"/>
<path d="M20.8334 20.5692H18.612C18.5156 20.5692 18.4375 20.4911 18.4375 20.3948V19.0983C18.4375 19.0019 18.5156 18.9238 18.612 18.9238H20.8334C20.9297 18.9238 21.0079 19.0019 21.0079 19.0983V20.3948C21.0079 20.4912 20.9297 20.5692 20.8334 20.5692Z" fill="#F9F3F1"/>
<path d="M21.0015 12.8659V14.1584C21.0015 14.2556 20.9226 14.3349 20.825 14.3349H19.9336C20.0312 14.3349 20.1101 14.2556 20.1101 14.1584V12.8659C20.1101 12.7684 20.0312 12.6895 19.9336 12.6895H20.825C20.9225 12.6895 21.0015 12.7684 21.0015 12.8659Z" fill="#F3EAE6"/>
<path d="M21.0015 15.9714V17.2639C21.0015 17.3615 20.9226 17.4404 20.825 17.4404H19.9336C20.0312 17.4404 20.1101 17.3615 20.1101 17.2639V15.9714C20.1101 15.8738 20.0312 15.7949 19.9336 15.7949H20.825C20.9225 15.7949 21.0015 15.8738 21.0015 15.9714Z" fill="#F3EAE6"/>
<path d="M21.0015 19.1003V20.3928C21.0015 20.4904 20.9226 20.5693 20.825 20.5693H19.9336C20.0312 20.5693 20.1101 20.4904 20.1101 20.3928V19.1003C20.1101 19.0027 20.0312 18.9238 19.9336 18.9238H20.825C20.9225 18.9238 21.0015 19.0027 21.0015 19.1003Z" fill="#F3EAE6"/>
<path d="M3.93877 14.4208H1.71743C1.62108 14.4208 1.54297 14.3427 1.54297 14.2463V12.9499C1.54297 12.8535 1.62108 12.7754 1.71743 12.7754H3.93877C4.03512 12.7754 4.11323 12.8535 4.11323 12.9499V14.2463C4.11323 14.3427 4.03512 14.4208 3.93877 14.4208Z" fill="#80D261"/>
<path d="M3.93877 17.5497H1.71743C1.62108 17.5497 1.54297 17.4716 1.54297 17.3752V16.0788C1.54297 15.9824 1.62108 15.9043 1.71743 15.9043H3.93877C4.03512 15.9043 4.11323 15.9824 4.11323 16.0788V17.3752C4.11323 17.4716 4.03512 17.5497 3.93877 17.5497Z" fill="#80D261"/>
<path d="M3.93877 20.6552H1.71743C1.62108 20.6552 1.54297 20.5771 1.54297 20.4807V19.1842C1.54297 19.0879 1.62108 19.0098 1.71743 19.0098H3.93877C4.03512 19.0098 4.11323 19.0879 4.11323 19.1842V20.4807C4.11323 20.5771 4.03512 20.6552 3.93877 20.6552Z" fill="#80D261"/>
<path d="M3.93877 11.3157H1.71743C1.62108 11.3157 1.54297 11.2375 1.54297 11.1412V9.84443C1.54297 9.74805 1.62108 9.66992 1.71743 9.66992H3.93877C4.03512 9.66992 4.11323 9.74805 4.11323 9.84443V11.1412C4.11323 11.2375 4.03512 11.3157 3.93877 11.3157Z" fill="#80D261"/>
<path d="M4.13036 12.9519V14.2444C4.13036 14.3415 4.05146 14.4208 3.95387 14.4208H3.0625C3.16009 14.4208 3.23899 14.3415 3.23899 14.2444V12.9519C3.23899 12.8543 3.16009 12.7754 3.0625 12.7754H3.95387C4.05146 12.7754 4.13036 12.8543 4.13036 12.9519Z" fill="#68CA44"/>
<path d="M4.13036 16.0808V17.3733C4.13036 17.4704 4.05146 17.5498 3.95387 17.5498H3.0625C3.16009 17.5498 3.23899 17.4704 3.23899 17.3733V16.0808C3.23899 15.9832 3.16009 15.9043 3.0625 15.9043H3.95387C4.05146 15.9043 4.13036 15.9832 4.13036 16.0808Z" fill="#68CA44"/>
<path d="M4.13036 19.1667V20.4592C4.13036 20.5568 4.05146 20.6357 3.95387 20.6357H3.0625C3.16009 20.6357 3.23899 20.5568 3.23899 20.4592V19.1667C3.23899 19.0691 3.16009 18.9902 3.0625 18.9902H3.95387C4.05146 18.9902 4.13036 19.0691 4.13036 19.1667Z" fill="#68CA44"/>
<path d="M4.13036 9.84638V11.1381C4.13036 11.2357 4.05146 11.3146 3.95387 11.3146H3.0625C3.16009 11.3146 3.23899 11.2357 3.23899 11.1381V9.84638C3.23899 9.74881 3.16009 9.66992 3.0625 9.66992H3.95387C4.05146 9.66992 4.13036 9.74881 4.13036 9.84638Z" fill="#68CA44"/>
</g>
<defs>
<clipPath id="clip0_19_597">
<rect width="22.5574" height="22.5574" fill="white"/>
</clipPath>
</defs>
</svg>
