<svg width="23" height="23" viewBox="0 0 23 23" fill="none" xmlns="http://www.w3.org/2000/svg">
<path d="M20.5392 12.3691H2.02072C1.65548 12.3691 1.35938 12.6661 1.35938 13.0324V21.8948C1.35938 22.2611 1.65548 22.5581 2.02072 22.5581H20.5392C20.9044 22.5581 21.2005 22.2611 21.2005 21.8948V13.0324C21.2005 12.6661 20.9044 12.3691 20.5392 12.3691Z" fill="#127793"/>
<path d="M20.5405 12.3691H11.2812V22.5581H20.5405C20.9057 22.5581 21.2018 22.2611 21.2018 21.8948V13.0324C21.2018 12.6661 20.9057 12.3691 20.5405 12.3691Z" fill="#0D5E7B"/>
<path d="M12.6023 11.459V17.5477C12.2166 17.3125 11.7633 17.1767 11.2797 17.1767C10.7961 17.1767 10.3428 17.3125 9.95703 17.5477V11.459H12.6023Z" fill="#0D5E7B"/>
<path d="M11.2812 11.459V17.1767C11.7649 17.1767 12.2181 17.3125 12.6039 17.5477V11.459H11.2812Z" fill="#04445D"/>
<path d="M7.30939 12.166H4.66406V22.5574H7.30939V12.166Z" fill="#0D5E7B"/>
<path d="M17.8914 11.9512H15.2461V22.5568H17.8914V11.9512Z" fill="#04445D"/>
<path d="M22.5451 12.9052L21.0554 5.21408C21.0166 5.01388 20.8882 4.84268 20.7071 4.74989L11.5795 0.0726286C11.3906 -0.0242095 11.1667 -0.0242095 10.9778 0.0726286L1.85013 4.74994C1.6691 4.84272 1.54058 5.01393 1.50186 5.21412L0.0121435 12.9052C-0.0255256 13.0996 0.0254488 13.3008 0.151056 13.4536C0.276708 13.6065 0.463864 13.695 0.661329 13.695H21.8959C22.0934 13.695 22.2806 13.6065 22.4062 13.4536C22.5318 13.3008 22.5828 13.0996 22.5451 12.9052Z" fill="#FFD74A"/>
<path d="M22.4063 13.4542C22.2806 13.6072 22.0937 13.6956 21.8962 13.6956H0.661224C0.463715 13.6956 0.27678 13.6072 0.151128 13.4542C0.0254763 13.3016 -0.0256744 13.1005 0.012259 12.9059L0.534736 10.209H22.0227L22.5452 12.9059C22.583 13.1004 22.5319 13.3016 22.4063 13.4542Z" fill="#FAC004"/>
<path d="M11.2809 4.04883C10.1869 4.04883 9.29688 4.94147 9.29688 6.03868C9.29688 7.13588 10.1869 8.02853 11.2809 8.02853C12.3748 8.02853 13.2648 7.13588 13.2648 6.03868C13.2648 4.94147 12.3748 4.04883 11.2809 4.04883Z" fill="#FAC004"/>
<path d="M13.8318 22.5576V16.7515C13.8318 15.3399 12.6867 14.1914 11.2792 14.1914C9.87166 14.1914 8.72656 15.3399 8.72656 16.7515V22.5576H13.8318Z" fill="#EBE1E2"/>
<path d="M22.5477 12.9052L21.058 5.2141C21.0193 5.01391 20.8908 4.8427 20.7097 4.74991L11.5821 0.0726506C11.4877 0.0242316 11.3845 0 11.2812 0V13.695H21.8985C22.0961 13.695 22.2832 13.6065 22.4089 13.4537C22.5344 13.3008 22.5854 13.0997 22.5477 12.9052Z" fill="#FAC004"/>
<path d="M22.5476 12.9059L22.0252 10.209H11.2812V13.6956H21.8986C22.0962 13.6956 22.2831 13.6072 22.4087 13.4542C22.5344 13.3016 22.5856 13.1004 22.5476 12.9059Z" fill="#F49F11"/>
<path d="M11.2812 4.04883V8.02854C12.3752 8.02854 13.2652 7.13589 13.2652 6.03868C13.2652 4.94148 12.3752 4.04883 11.2812 4.04883Z" fill="#F49F11"/>
<path d="M13.8338 16.7515C13.8338 15.3399 12.6888 14.1914 11.2812 14.1914V22.5576H13.8338V16.7515Z" fill="#D9D2CC"/>
</svg>
