<svg width="23" height="23" viewBox="0 0 23 23" fill="none" xmlns="http://www.w3.org/2000/svg">
<g clip-path="url(#clip0_19_556)">
<path d="M18.1869 21.6165H11.6055V4.50195H18.8039V18.8032L18.1869 19.7434V21.6165Z" fill="#EB8D00"/>
<path d="M12.7423 1.88086H11.6042L10.6641 9.39746L11.6044 21.394L12.7423 21.2343V1.88086Z" fill="#FDAE02"/>
<path d="M2.61618 0V1.88173H1.54297V21.2351L7.61015 21.9554L11.6061 21.3948V0H2.61618Z" fill="#FDCB02"/>
<path d="M4.83203 4.51758H6.1541V6.39793H4.83203V4.51758Z" fill="#F3FFFB"/>
<path d="M8.12109 4.51758H9.44316V6.39793H8.12109V4.51758Z" fill="#F3FFFB"/>
<path d="M4.83203 8.27734H6.1541V10.1577H4.83203V8.27734Z" fill="#F3FFFB"/>
<path d="M8.12109 8.27734H9.44316V10.1577H8.12109V8.27734Z" fill="#F3FFFB"/>
<path d="M4.83203 12.0391H6.1541V13.9194H4.83203V12.0391Z" fill="#F3FFFB"/>
<path d="M8.12109 12.0391H9.44316V13.9194H8.12109V12.0391Z" fill="#F3FFFB"/>
<path d="M4.83203 15.8008H6.1541V17.6811H4.83203V15.8008Z" fill="#F3FFFB"/>
<path d="M8.12109 15.8008H9.44316V17.6811H8.12109V15.8008Z" fill="#F3FFFB"/>
<path d="M14.4414 8.27734H15.7635V10.1577H14.4414V8.27734Z" fill="#FFD27B"/>
<path d="M14.4414 12.0391H15.7635V13.9194H14.4414V12.0391Z" fill="#FFD27B"/>
<path d="M17.4844 18.5762H18.8066V21.8669H17.4844V18.5762Z" fill="#8F4D24"/>
<path d="M18.1446 20.1484C16.5529 20.1484 15.2578 18.8534 15.2578 17.2616C15.2578 15.6699 16.5529 14.375 18.1446 14.375C19.7363 14.375 21.0312 15.6699 21.0312 17.2616C21.0312 18.8534 19.7363 20.1484 18.1446 20.1484Z" fill="#A8D32A"/>
<path d="M21.0088 21.2344H11.6067L11.1367 22.0938L11.6067 22.5566H21.0088V21.2344Z" fill="#8D9CA8"/>
<path d="M1.54297 21.2344H11.6059V22.5566H1.54297V21.2344Z" fill="#AAB8C7"/>
</g>
<defs>
<clipPath id="clip0_19_556">
<rect width="22.5574" height="22.5574" fill="white"/>
</clipPath>
</defs>
</svg>
