<svg width="24" height="23" viewBox="0 0 24 23" fill="none" xmlns="http://www.w3.org/2000/svg">
<g clip-path="url(#clip0_19_638)">
<path d="M20.2917 3.33984H17.707V7.85133H20.2917V3.33984Z" fill="#F05540"/>
<path d="M21.2772 1.03711H16.7188V3.48084H21.2772V1.03711Z" fill="#F3705A"/>
<path d="M2.80859 12.2695V22.6553H21.2304V12.2695C17.6119 8.65097 15.5911 6.63019 12.0195 3.05859C8.44794 6.67716 6.42716 8.69794 2.80859 12.2695Z" fill="#FFD15C"/>
<path d="M21.2774 12.2695C17.6589 8.65097 15.6381 6.63019 12.0665 3.05859C10.2337 4.84437 8.82388 6.25421 7.41404 7.66404C6.00421 9.07388 4.59437 10.4837 2.80859 12.2695V14.3842C6.42716 10.7657 8.44794 8.7449 12.0195 5.1733C15.6381 8.79187 17.6589 10.8126 21.2305 14.3842V14.6662V12.2695H21.2774V12.2695Z" fill="#F7B64C"/>
<path d="M10.3774 22.6557H4.83203V17.2043C4.83203 15.6535 6.10089 14.4316 7.6047 14.4316C9.15552 14.4316 10.3774 15.7005 10.3774 17.2043V22.6557Z" fill="#415A6B"/>
<path d="M19.2567 14.4316H12.0195V20.7759H19.2567V14.4316Z" fill="#344A5E"/>
<path d="M15.2641 15.1816H12.7734V20.0221H15.2641V15.1816Z" fill="#8AD7F8"/>
<path d="M18.5063 15.1816H16.0156V20.0221H18.5063V15.1816Z" fill="#8AD7F8"/>
<path d="M22.9704 10.3425L13.1485 0.520607C12.5846 -0.0433274 11.5977 -0.0433274 11.0338 0.520607L1.25889 10.3425C0.694954 10.9064 0.694954 11.8933 1.25889 12.4572C1.82282 13.0211 2.80971 13.0211 3.37364 12.4572L12.1146 3.71622L20.8556 12.4572C21.4195 13.0211 22.4064 13.0211 22.9704 12.4572C23.5343 11.8463 23.5343 10.9064 22.9704 10.3425Z" fill="#F3705A"/>
</g>
<defs>
<clipPath id="clip0_19_638">
<rect width="22.5574" height="22.5574" fill="white" transform="translate(0.835938 0.0976562)"/>
</clipPath>
</defs>
</svg>
