<svg width="23" height="23" viewBox="0 0 23 23" fill="none" xmlns="http://www.w3.org/2000/svg">
<g clip-path="url(#clip0_19_652)">
<path d="M16.5424 1.69141H6.01562V21.993H16.5424V1.69141Z" fill="#4398D1"/>
<path d="M6.01562 16.3546V21.9939H16.5424V4.6582L6.01562 16.3546Z" fill="#3F8FC4"/>
<path d="M15.0387 0.189453H7.51953V1.69326H15.0387V0.189453Z" fill="#4398D1"/>
<path d="M15.0387 0.939453H7.51953V1.69138H15.0387V0.939453Z" fill="#3F8FC4"/>
<path d="M9.02334 3.57031H7.51953V5.07412H9.02334V3.57031Z" fill="#87CED9"/>
<path d="M12.0312 3.57031H10.5273V5.07412H12.0312V3.57031Z" fill="#87CED9"/>
<path d="M15.039 3.57031H13.5352V5.07412H15.039V3.57031Z" fill="#87CED9"/>
<path d="M9.02334 6.57812H7.51953V8.08194H9.02334V6.57812Z" fill="#87CED9"/>
<path d="M12.0312 6.57812H10.5273V8.08194H12.0312V6.57812Z" fill="#87CED9"/>
<path d="M15.039 6.57812H13.5352V8.08194H15.039V6.57812Z" fill="#87CED9"/>
<path d="M9.02334 9.58594H7.51953V11.0897H9.02334V9.58594Z" fill="#87CED9"/>
<path d="M12.0312 9.58594H10.5273V11.0897H12.0312V9.58594Z" fill="#87CED9"/>
<path d="M15.039 9.58594H13.5352V11.0897H15.039V9.58594Z" fill="#87CED9"/>
<path d="M9.02334 12.5938H7.51953V14.0976H9.02334V12.5938Z" fill="#87CED9"/>
<path d="M12.0312 12.5938H10.5273V14.0976H12.0312V12.5938Z" fill="#87CED9"/>
<path d="M15.039 12.5938H13.5352V14.0976H15.039V12.5938Z" fill="#87CED9"/>
<path d="M9.02334 15.5996H7.51953V17.1034H9.02334V15.5996Z" fill="#87CED9"/>
<path d="M12.0312 15.5996H10.5273V17.1034H12.0312V15.5996Z" fill="#87CED9"/>
<path d="M15.039 15.5996H13.5352V17.1034H15.039V15.5996Z" fill="#87CED9"/>
<path d="M13.5349 18.9844H9.02344V21.992H13.5349V18.9844Z" fill="#87CED9"/>
<path d="M11.6543 18.9863H10.9023V21.994H11.6543V18.9863Z" fill="#61ACC9"/>
<path d="M3.68371 16.0728C3.77434 15.7979 3.78407 15.5032 3.71266 15.2231C3.57656 14.6874 3.15476 14.2708 2.61713 14.1415C1.8092 13.943 0.993391 14.437 0.794869 15.2449C0.765923 15.3622 0.751252 15.4825 0.751252 15.6032C0.751252 15.7363 0.768919 15.8687 0.8039 15.9968C0.972332 16.5559 0.908801 17.1593 0.627186 17.671C0.10797 18.5703 0.416284 19.7195 1.31519 20.2388C2.21409 20.758 3.36416 20.4497 3.88298 19.5508C4.20742 18.9887 4.2191 18.2988 3.91382 17.7263C3.61375 17.2299 3.5303 16.6322 3.68371 16.0728Z" fill="#88B337"/>
<path d="M2.63083 15.6016H1.87891V22.3688H2.63083V15.6016Z" fill="#79A125"/>
<path d="M21.7306 16.0728C21.8212 15.7979 21.8309 15.5032 21.7595 15.2231C21.6234 14.6874 21.2016 14.2708 20.664 14.1415C19.8561 13.943 19.0403 14.437 18.8417 15.2449C18.8128 15.3622 18.7981 15.4825 18.7981 15.6032C18.7981 15.7363 18.8158 15.8687 18.8508 15.9968C19.0196 16.5563 18.956 17.1604 18.6741 17.6725C18.1548 18.5718 18.4632 19.721 19.3621 20.2403C20.261 20.7595 21.4106 20.4512 21.9299 19.5523C22.2543 18.9902 22.266 18.3003 21.9607 17.7277C21.6603 17.2311 21.5768 16.6326 21.7306 16.0728Z" fill="#88B337"/>
<path d="M20.6777 15.6016H19.9258V22.3688H20.6777V15.6016Z" fill="#79A125"/>
<path d="M22.5574 21.6172H0V22.3691H22.5574V21.6172Z" fill="#E0D2C1"/>
</g>
<defs>
<clipPath id="clip0_19_652">
<rect width="22.5574" height="22.5574" fill="white"/>
</clipPath>
</defs>
</svg>
